<?xml version="1.0" encoding="UTF-8"?><svg xmlns="http://www.w3.org/2000/svg" xmlns:xlink="http://www.w3.org/1999/xlink" viewBox="0 0 2852.3 2822.83"><defs><style>.cls-1{fill:url(#linear-gradient-37);}.cls-1,.cls-2,.cls-3,.cls-4,.cls-5,.cls-6{mix-blend-mode:multiply;opacity:.3;}.cls-7{fill:url(#linear-gradient-2);}.cls-8{fill:#fff;}.cls-9{fill:url(#linear-gradient-17);}.cls-10{fill:url(#linear-gradient-43);}.cls-2{fill:url(#linear-gradient-9);}.cls-11{fill:url(#linear-gradient-15);}.cls-12{fill:url(#linear-gradient-18);}.cls-13{fill:url(#linear-gradient-40);}.cls-14{fill:url(#linear-gradient-28);}.cls-15{fill:url(#linear-gradient-14);}.cls-16{fill:url(#linear-gradient-36);}.cls-17{fill:url(#linear-gradient-6);}.cls-18{opacity:.44;}.cls-18,.cls-19,.cls-20{mix-blend-mode:soft-light;}.cls-18,.cls-21,.cls-20,.cls-22{fill:#f4f7fa;}.cls-23{clip-path:url(#clippath-2);}.cls-24{isolation:isolate;}.cls-3{fill:url(#linear-gradient-20);}.cls-4{fill:url(#linear-gradient-35);}.cls-25{fill:url(#linear-gradient-32);}.cls-26{fill:url(#linear-gradient-11);}.cls-27{fill:url(#linear-gradient-39);}.cls-28{clip-path:url(#clippath-1);}.cls-29{fill:url(#linear-gradient-10);}.cls-30{fill:url(#linear-gradient-16);}.cls-31{fill:url(#linear-gradient-31);}.cls-32{fill:url(#linear-gradient-41);}.cls-33{fill:#d8dee8;}.cls-34{fill:url(#linear-gradient-21);}.cls-35{fill:#aeb7c4;}.cls-36{fill:url(#linear-gradient-25);}.cls-37{fill:url(#linear-gradient-5);}.cls-21{opacity:.75;}.cls-38{clip-path:url(#clippath);}.cls-39{fill:url(#linear-gradient-34);}.cls-40{fill:none;}.cls-20{opacity:.5;}.cls-41{fill:url(#linear-gradient-7);}.cls-6{fill:url(#linear-gradient-44);}.cls-42{fill:url(#linear-gradient-24);}.cls-43{fill:url(#linear-gradient-22);}.cls-44{fill:url(#linear-gradient-42);}.cls-45{fill:url(#linear-gradient-3);}.cls-46{fill:url(#linear-gradient);}.cls-47{fill:url(#linear-gradient-27);}.cls-48{fill:url(#linear-gradient-33);}.cls-49{fill:url(#linear-gradient-38);}.cls-50{fill:url(#linear-gradient-29);}.cls-51{fill:url(#linear-gradient-30);}.cls-52{fill:url(#linear-gradient-23);}.cls-53{fill:url(#linear-gradient-19);}.cls-54{fill:url(#linear-gradient-4);}.cls-55{fill:url(#linear-gradient-8);}.cls-56{fill:#fcfdfe;}.cls-57{fill:url(#linear-gradient-12);}.cls-58{fill:url(#linear-gradient-13);}.cls-59{fill:url(#linear-gradient-26);}</style><linearGradient id="linear-gradient" x1="2037.4" y1="3069.3" x2="-376.57" y2="-1104.84" gradientTransform="matrix(1, 0, 0, 1, 0, 0)" gradientUnits="userSpaceOnUse"><stop offset="0" stop-color="#ff9085"/><stop offset="1" stop-color="#fb6fbb"/></linearGradient><clipPath id="clippath"><path class="cls-46" d="M916.01,2361.69c-20.04,47.52-57.38,113.51-97.16,189.52h847.53c-129.46-239.35-298.8-485.87-166.85-953.13,61.92-219.28,253.33-616.74,117.99-843.73-154.19-258.6-363.21-107.03-451.46-311.75C1028.14,122.64,711.19-67.95,430.67,141.61c-276.86,206.83-180.37,802.08,310.11,1397.53,303.49,467.04,279.87,574.42,175.24,822.55Z"/></clipPath><linearGradient id="linear-gradient-2" x1="219.88" y1="1058.55" x2="1481.3" y2="3135.18" gradientTransform="matrix(1, 0, 0, 1, 0, 0)" gradientUnits="userSpaceOnUse"><stop offset="0" stop-color="#e38ddd"/><stop offset="1" stop-color="#9571f6"/></linearGradient><clipPath id="clippath-1"><path class="cls-7" d="M770.34,1415.63c4.57,389.38,192.37,261.08,365.55,299.5,199.87,289.18,218.69,557.48-79.72,789.18l-332.51-49.76c-123.37-5.73-268.14-43.43-259.97-207.71,9.24-185.8,53.18-303.8-156.54-395.05C97.45,1760.55,7.37,1594.06,92.29,1404.68c89.37-199.29-120.25-467.93,32.94-601.45,266.93-232.66,640.36,206.94,645.11,612.4Z"/></clipPath><linearGradient id="linear-gradient-3" x1="-685.46" y1="2765" x2="-635.39" y2="2765" gradientTransform="translate(2606.4)" gradientUnits="userSpaceOnUse"><stop offset="0" stop-color="#ffc444"/><stop offset="1" stop-color="#f36f56"/></linearGradient><linearGradient id="linear-gradient-4" x1="-745.93" y1="2779.18" x2="-657" y2="2779.18" gradientTransform="translate(2606.4)" gradientUnits="userSpaceOnUse"><stop offset="0" stop-color="#444b8c"/><stop offset="1" stop-color="#26264f"/></linearGradient><linearGradient id="linear-gradient-5" x1="-689.04" y1="2746.8" x2="-698.88" y2="2769.54" xlink:href="#linear-gradient-4"/><linearGradient id="linear-gradient-6" x1="157.26" y1="712.57" x2="1004.29" y2="2149.31" gradientTransform="translate(2654.15 -148.51) rotate(179.15) scale(1 -1)" gradientUnits="userSpaceOnUse"><stop offset="0" stop-color="#311944"/><stop offset="1" stop-color="#893976"/></linearGradient><linearGradient id="linear-gradient-7" x1="143.65" y1="720.96" x2="977.48" y2="2135.31" gradientTransform="translate(2654.15 -148.51) rotate(179.15) scale(1 -1)" xlink:href="#linear-gradient"/><linearGradient id="linear-gradient-8" x1="-454.77" y1="2259.34" x2="-726.9" y2="2731.57" gradientTransform="translate(2606.4)" xlink:href="#linear-gradient-6"/><linearGradient id="linear-gradient-9" x1="-423.36" y1="2277.44" x2="-695.49" y2="2749.67" gradientTransform="translate(2606.4)" xlink:href="#linear-gradient-6"/><linearGradient id="linear-gradient-10" x1="44.92" y1="2675.12" x2="86.07" y2="2675.12" xlink:href="#linear-gradient-4"/><linearGradient id="linear-gradient-11" x1="-115.19" y1="2157.12" x2="-296.99" y2="2565.32" gradientTransform="translate(2606.4)" xlink:href="#linear-gradient-6"/><linearGradient id="linear-gradient-12" x1="-761.93" y1="1424.5" x2="-768.79" y2="1566" xlink:href="#linear-gradient-3"/><linearGradient id="linear-gradient-13" x1="-224.18" y1="1450.57" x2="-231.04" y2="1592.07" xlink:href="#linear-gradient-3"/><linearGradient id="linear-gradient-14" x1="-685.81" y1="1663.54" x2="-491.43" y2="2207.81" gradientTransform="translate(2606.4)" gradientUnits="userSpaceOnUse"><stop offset="0" stop-color="#aa80f9"/><stop offset="1" stop-color="#6165d7"/></linearGradient><linearGradient id="linear-gradient-15" x1="-495.18" y1="1595.46" x2="-300.79" y2="2139.73" xlink:href="#linear-gradient-14"/><linearGradient id="linear-gradient-16" x1="-232.53" y1="1501.66" x2="-38.15" y2="2045.93" xlink:href="#linear-gradient-14"/><linearGradient id="linear-gradient-17" x1="6039.35" y1="-1916.18" x2="6045.62" y2="-2083.41" gradientTransform="translate(8525.96 2255.73) rotate(166.63) scale(1 -1)" xlink:href="#linear-gradient-3"/><linearGradient id="linear-gradient-18" x1="-2890.64" y1="-161.79" x2="-2926.59" y2="-253.1" gradientTransform="translate(4856.11 2856.02) rotate(19.64)" gradientUnits="userSpaceOnUse"><stop offset="0" stop-color="#311944"/><stop offset="1" stop-color="#6b3976"/></linearGradient><linearGradient id="linear-gradient-19" x1="3553.37" y1="-33.25" x2="3551.77" y2="96.35" gradientTransform="translate(5434.65 3086.98) rotate(-156.85) scale(1 -1)" xlink:href="#linear-gradient-3"/><linearGradient id="linear-gradient-20" x1="-709.15" y1="1266.82" x2="-411.25" y2="2100.94" xlink:href="#linear-gradient-14"/><linearGradient id="linear-gradient-21" x1="214.8" y1="2130.76" x2="1533.51" y2="2130.76" gradientTransform="translate(295.29)" gradientUnits="userSpaceOnUse"><stop offset="0" stop-color="#311944"/><stop offset="1" stop-color="#a03976"/></linearGradient><linearGradient id="linear-gradient-22" x1="742.44" y1="2189.37" y2="2189.37" xlink:href="#linear-gradient-21"/><linearGradient id="linear-gradient-23" x1="1344.65" y1="1434.77" x2="-468.84" y2="4473.58" gradientTransform="translate(295.29)" xlink:href="#linear-gradient-3"/><clipPath id="clippath-2"><path class="cls-40" d="M1201.1,93.84L576.22,0S271.69,21.25,266.38,23.02c0,0-49.57,495.75-49.57,502.83s289.83,400.38,289.83,400.38c-3.99,20.89-6.43,42.26-7.14,63.98-7.13,217.5,159.59,385.08,371.2,374.36,47.53-2.41,93.27-13.61,135.68-32,15.07-6.53,29.72-13.97,43.88-22.25,81.22-47.46,289.61,55.51,325.66-33.13l198.52-164.66,10.62-334.63-190.77-399.01-193.2-285.05Z"/></clipPath><linearGradient id="linear-gradient-24" x1="1430.38" y1="1071.88" x2="1209.11" y2="1472.92" gradientTransform="matrix(1, 0, 0, 1, 0, 0)" gradientUnits="userSpaceOnUse"><stop offset="0" stop-color="#ab316d"/><stop offset="1" stop-color="#792d3d"/></linearGradient><linearGradient id="linear-gradient-25" x1="2670.83" y1="3838.22" x2="3109.51" y2="3838.22" gradientTransform="translate(5533.4 2838.97) rotate(-105.22) scale(1 -1)" xlink:href="#linear-gradient-3"/><linearGradient id="linear-gradient-26" x1="2670.83" y1="3842.7" x2="3085.12" y2="3842.7" gradientTransform="translate(5533.4 2838.97) rotate(-105.22) scale(1 -1)" xlink:href="#linear-gradient"/><linearGradient id="linear-gradient-27" x1="4081.2" y1="1121.86" x2="4540.21" y2="1121.86" gradientTransform="translate(5079.15) rotate(-180) scale(1 -1)" xlink:href="#linear-gradient-3"/><linearGradient id="linear-gradient-28" x1="2288.83" y1="828.54" x2="3168.52" y2="828.54" gradientTransform="translate(3448.6 1112.32) rotate(-148.54) scale(1 -1)" xlink:href="#linear-gradient-18"/><linearGradient id="linear-gradient-29" x1="2288.83" y1="926.89" x2="3168.52" y2="926.89" gradientTransform="translate(3448.6 1112.32) rotate(-148.54) scale(1 -1)" xlink:href="#linear-gradient-18"/><linearGradient id="linear-gradient-30" x1="4267.39" y1="991.27" x2="4258.45" y2="703.08" gradientTransform="translate(5079.15) rotate(-180) scale(1 -1)" xlink:href="#linear-gradient-24"/><linearGradient id="linear-gradient-31" x1="2355.73" y1="1115.83" x2="2437.27" y2="848.88" gradientTransform="translate(3448.6 1112.32) rotate(-148.54) scale(1 -1)" xlink:href="#linear-gradient-24"/><linearGradient id="linear-gradient-32" x1="4081.2" y1="1220.99" x2="4540.21" y2="1220.99" gradientTransform="translate(5079.15) rotate(-180) scale(1 -1)" xlink:href="#linear-gradient"/><linearGradient id="linear-gradient-33" x1="1431.16" y1="1088.83" x2="1432.87" y2="1075.18" gradientTransform="matrix(1, 0, 0, 1, 0, 0)" gradientUnits="userSpaceOnUse"><stop offset="0" stop-color="#26264f"/><stop offset="1" stop-color="#444b8c"/></linearGradient><linearGradient id="linear-gradient-34" x1="1424.14" y1="1076.39" x2="1441.21" y2="1045.66" xlink:href="#linear-gradient-33"/><linearGradient id="linear-gradient-35" x1="1404.84" y1="1061.82" x2="1461.5" y2="1061.82" xlink:href="#linear-gradient-33"/><linearGradient id="linear-gradient-36" x1="1425.77" y1="1067.99" x2="1442.63" y2="1035.55" xlink:href="#linear-gradient-33"/><linearGradient id="linear-gradient-37" x1="1402.3" y1="1052.28" x2="1464.01" y2="1052.28" xlink:href="#linear-gradient-33"/><linearGradient id="linear-gradient-38" x1="1401.38" y1="1041.13" x2="1464.95" y2="1041.13" xlink:href="#linear-gradient-33"/><linearGradient id="linear-gradient-39" x1="1431.59" y1="1036.33" x2="1437.85" y2="1007.03" xlink:href="#linear-gradient-33"/><linearGradient id="linear-gradient-40" x1="1419.57" y1="872.81" x2="1543.75" y2="1069.97" gradientTransform="matrix(1, 0, 0, 1, 0, 0)" gradientUnits="userSpaceOnUse"><stop offset="0" stop-color="#fcb148"/><stop offset=".05" stop-color="#fdb946"/><stop offset=".14" stop-color="#fec144"/><stop offset=".32" stop-color="#ffc444"/><stop offset=".48" stop-color="#fdb946"/><stop offset=".78" stop-color="#f99c4c"/><stop offset=".87" stop-color="#f8924f"/><stop offset="1" stop-color="#f8924f"/></linearGradient><linearGradient id="linear-gradient-41" x1="1396.88" y1="1024.62" x2="1422.2" y2="950.65" gradientTransform="matrix(1, 0, 0, 1, 0, 0)" gradientUnits="userSpaceOnUse"><stop offset=".49" stop-color="#ebeff2"/><stop offset="1" stop-color="#fff"/></linearGradient><linearGradient id="linear-gradient-42" x1="1421.09" y1="1032.91" x2="1446.41" y2="958.93" xlink:href="#linear-gradient-41"/><linearGradient id="linear-gradient-43" x1="1388.06" y1="1021.6" x2="1413.38" y2="947.63" xlink:href="#linear-gradient-41"/><linearGradient id="linear-gradient-44" x1="1423.92" y1="828.37" x2="1399.17" y2="1032.37" xlink:href="#linear-gradient-40"/></defs><g class="cls-24"><g id="Layer_2"><g id="Illustration"><g><path class="cls-22" d="M264.36,503.11C286.5,475.14,679.49-4.34,1307.29,36.45c88.7,5.76,625.04,51.26,829.85,416.13,159.44,284.06-9.36,536.09,185.15,729.63,169.48,168.64,377.76,57.02,481.92,193.38,158.65,207.73-94,768.74-482.18,1081.61-430.21,346.74-1194.78,535.94-1763.65,129.05C-4.98,2183.31-.63,1465.3,.06,1351.65c.93-153.77,3.14-518.59,264.3-848.54Z"/><g><path class="cls-8" d="M2402.99,1139.76c49.42,25.09,111.5,2.05,138.67-51.46,27.17-53.51,9.13-117.22-40.29-142.31-2.56-1.3-5.17-2.39-7.8-3.44,9.18-29.61,16.1-59.45,20.75-89.3,2.83,0,5.68-.05,8.56-.31,56.38-5.03,101.13-56.83,99.95-115.72-1.18-58.89-47.84-102.55-104.22-97.52-2.95,.26-5.84,.73-8.72,1.24-5.89-29.18-13.96-57.69-24.14-85.28,2.59-1.52,5.17-3.09,7.69-4.85,48.23-33.79,63.66-100.49,34.45-148.98-29.21-48.48-92-60.39-140.23-26.6-2.47,1.73-4.8,3.6-7.09,5.5-19.05-21.06-39.95-40.58-62.55-58.39,1.59-2.61,3.15-5.25,4.55-8.02,27.17-53.51,62.67-111.96,12.86-136.27-115.21-56.24-164.65-8.1-191.82,45.41-1.41,2.77-2.62,5.59-3.79,8.41-27.72-7.74-55.81-13.09-84.06-16.05,.18-2.97,.31-5.95,.25-8.97-1.18-58.88,16.29-90.75-40.3-91.85-123.41-2.4-165.05,51.16-163.87,110.05,.06,3.08,.32,6.09,.62,9.07-28.28,8.06-56.06,18.37-83.09,30.83-1.28-2.63-2.62-5.24-4.14-7.77-29.21-48.48-92-60.39-140.23-26.59-48.24,33.8-63.66,100.49-34.44,148.97,1.5,2.48,3.13,4.81,4.8,7.1-21.36,21.36-41.37,44.56-59.85,69.44-2.39-1.5-4.81-2.97-7.37-4.26-49.42-25.09-111.5-2.05-138.67,51.46-27.17,53.51-9.13,117.22,40.29,142.31,2.56,1.3,5.17,2.39,7.79,3.44-9.18,29.61-16.1,59.45-20.74,89.3-2.83,0-5.68,.05-8.56,.31-56.38,5.03-101.13,56.84-99.95,115.72,1.18,58.89,47.84,102.54,104.22,97.52,2.95-.26,5.84-.73,8.72-1.24,5.89,29.18,13.96,57.69,24.14,85.28-2.59,1.52-5.17,3.09-7.69,4.85-48.23,33.79-63.66,100.49-34.44,148.97,29.21,48.48,125.93,71.01,174.16,37.21,2.47-1.73-29.13-14.22-26.83-16.12,19.05,21.06,39.95,40.58,62.56,58.39-1.59,2.61-3.15,5.25-4.55,8.02-27.17,53.51-9.13,117.22,40.29,142.31,49.42,25.09,111.5,2.05,138.67-51.46,1.41-2.77,2.62-5.59,3.79-8.41,27.72,7.74,55.81,13.09,84.05,16.04-.18,2.98-.31,5.96-.25,8.97,1.18,58.88,47.84,102.54,104.22,97.52,56.38-5.03,101.13-56.84,99.95-115.72-.06-3.08-.32-6.09-.62-9.07,28.28-8.06,56.06-18.37,83.09-30.83,1.28,2.63,2.62,5.24,4.14,7.77,29.21,48.48,92,60.39,140.23,26.6,48.24-33.8,63.66-100.49,34.45-148.98-1.5-2.48-3.14-4.8-4.8-7.09,21.36-21.36,41.37-44.56,59.85-69.44,2.39,1.5,4.81,2.96,7.38,4.26Zm-616.03,7.82c-179.42-91.1-244.91-322.43-146.27-516.71,98.64-194.28,324.05-277.92,503.47-186.82,179.42,91.1,244.91,322.43,146.27,516.71-98.64,194.28-324.05,277.92-503.47,186.82Z"/><path class="cls-8" d="M2522.88,852.94c56.38-5.03,101.13-56.83,99.95-115.72-1.18-58.88-47.84-102.55-104.22-97.52-2.95,.26-5.84,.73-8.72,1.24-5.89-29.18-13.96-57.69-24.14-85.28,2.59-1.52,5.17-3.09,7.69-4.85,48.23-33.79,107.91-115.45,73.88-160.68-64.59-85.84-131.43-48.69-179.67-14.89-2.47,1.73-4.8,3.6-7.09,5.5-19.05-21.06-39.95-40.58-62.56-58.39,1.59-2.61,3.15-5.25,4.55-8.02,14.79-29.12,16.09-61.23,6.33-88.52-46.59,82-92.55,164.34-137.69,247.14,143.14,104.89,188.71,311.59,99.24,487.81-75.82,149.33-226.53,233.18-373.69,222.67-6.56,17.02-13.01,34.14-20.04,51-19.08,45.75-40.75,90.56-62.44,135.32,13.65,2.57,27.35,4.6,41.1,6.04-.18,2.98-.31,5.96-.25,8.97,1.18,58.89,36.93,108.91,139.11,103.49,56.52-3,66.24-62.81,65.06-121.69-.06-3.08-.32-6.09-.62-9.07,28.28-8.06,56.06-18.37,83.09-30.83,1.28,2.63,2.62,5.24,4.15,7.77,29.21,48.48,130.55,69.08,178.79,35.29,48.24-33.8,25.1-109.18-4.11-157.67-1.5-2.48-3.14-4.81-4.8-7.1,21.36-21.36,41.37-44.56,59.85-69.44,2.39,1.5,4.81,2.97,7.38,4.26,49.42,25.09,111.5,2.05,138.67-51.46,27.17-53.51,9.13-117.23-40.29-142.31-2.56-1.3-5.17-2.39-7.8-3.44,9.18-29.61,16.1-59.45,20.75-89.3,2.83,0,5.68-.06,8.56-.31Z"/><path class="cls-33" d="M2456.14,1145.81c49.42,25.09,111.5,2.05,138.67-51.45,27.17-53.51,9.13-117.23-40.29-142.31-2.56-1.3-5.17-2.39-7.79-3.44,9.18-29.61,16.1-59.45,20.75-89.3,2.83,0,5.68-.05,8.56-.31,56.38-5.03,101.13-56.83,99.95-115.72-1.18-58.88-47.84-102.55-104.22-97.52-2.95,.26-5.84,.73-8.72,1.24-5.89-29.18-13.96-57.69-24.14-85.28,2.59-1.52,5.17-3.08,7.69-4.85,48.23-33.79,63.66-100.49,34.44-148.97-29.21-48.48-92-60.39-140.23-26.6-2.47,1.73-4.8,3.6-7.09,5.5-19.05-21.06-39.95-40.58-62.56-58.39,1.59-2.61,3.15-5.25,4.55-8.02,27.17-53.51,9.13-117.22-40.29-142.31-49.42-25.09-111.5-2.05-138.67,51.45-1.41,2.77-2.62,5.59-3.79,8.41-27.72-7.74-55.81-13.09-84.05-16.05,.18-2.98,.31-5.96,.25-8.97-1.18-58.88-47.84-102.55-104.22-97.52-56.38,5.03-101.13,56.84-99.95,115.72,.06,3.08,.32,6.09,.62,9.07-28.28,8.06-56.06,18.37-83.09,30.83-1.28-2.63-2.62-5.24-4.14-7.77-29.21-48.48-92-60.39-140.23-26.59-48.24,33.8-63.66,100.49-34.45,148.97,1.5,2.48,3.14,4.81,4.8,7.1-21.36,21.36-41.37,44.56-59.85,69.44-2.39-1.5-4.81-2.96-7.37-4.26-49.42-25.09-111.5-2.05-138.67,51.45-27.17,53.51-9.13,117.22,40.29,142.32,2.56,1.3,5.17,2.39,7.79,3.44-9.18,29.61-16.1,59.45-20.75,89.3-2.83,0-5.67,.06-8.56,.31-56.38,5.03-101.13,56.83-99.95,115.72,1.18,58.88,47.84,102.54,104.22,97.52,2.95-.26,5.84-.73,8.72-1.24,5.89,29.18,13.96,57.69,24.14,85.28-2.59,1.52-5.17,3.09-7.69,4.85-48.23,33.79-63.66,100.49-34.44,148.97,29.21,48.48,92,60.39,140.23,26.6,2.47-1.73,4.8-3.6,7.1-5.5,19.05,21.06,39.95,40.58,62.55,58.39-1.59,2.61-3.15,5.25-4.55,8.02-27.17,53.51-9.13,117.22,40.29,142.31,49.42,25.09,111.5,2.05,138.67-51.46,1.41-2.77,2.62-5.59,3.79-8.41,27.72,7.74,55.81,13.09,84.05,16.05-.18,2.98-.31,5.96-.25,8.97,1.18,58.88,47.84,102.54,104.22,97.52,56.38-5.02,101.13-56.83,99.95-115.72-.06-3.08-.32-6.09-.62-9.08,28.28-8.06,56.06-18.37,83.09-30.83,1.28,2.62,2.62,5.24,4.15,7.77,29.21,48.48,92,60.39,140.23,26.6,48.24-33.8,63.66-100.49,34.45-148.98-1.5-2.48-3.14-4.8-4.8-7.1,21.36-21.36,41.37-44.56,59.85-69.44,2.39,1.5,4.81,2.96,7.38,4.26Zm-616.03,7.82c-179.42-91.1-244.91-322.43-146.27-516.71,98.64-194.28,324.05-277.92,503.47-186.82,179.42,91.1,244.91,322.43,146.27,516.71-98.64,194.28-324.05,277.92-503.47,186.82Z"/></g><g><g><path class="cls-46" d="M916.01,2361.69c-20.04,47.52-57.38,113.51-97.16,189.52h847.53c-129.46-239.35-298.8-485.87-166.85-953.13,61.92-219.28,253.33-616.74,117.99-843.73-154.19-258.6-363.21-107.03-451.46-311.75C1028.14,122.64,711.19-67.95,430.67,141.61c-276.86,206.83-180.37,802.08,310.11,1397.53,303.49,467.04,279.87,574.42,175.24,822.55Z"/><g class="cls-38"><g class="cls-19"><g><path class="cls-56" d="M1257.02,2502.1c-9.79-109.89-24.6-213.04-40.27-322.25l-5.22-36.41c-10.79-52.12-20.01-103.81-28.93-153.79-20.14-112.86-39.16-219.47-74.82-330.4-1.33-6.59-2.3-13.03-3.32-19.86-3.66-24.38-7.44-49.59-25.1-71.66l-.47-.95C934.75,973.61,665.84,400.23,279.63-137.41l3.99-2.87C670.08,397.72,939.22,971.5,1083.53,1565.09c18.19,23.01,22.22,49.86,25.78,73.57,1.02,6.77,1.98,13.16,3.22,19.36,35.69,110.98,54.74,217.74,74.91,330.77,8.91,49.95,18.13,101.6,28.93,153.8l5.24,36.56c15.69,109.27,30.5,212.49,40.3,322.51l-4.9,.43Z"/><path class="cls-56" d="M1174.2,1969.59c-46.52-283.66,54.59-643.24,147.59-894.95,100.72-272.59,213.89-480.89,215.02-482.96l4.32,2.36c-1.13,2.07-114.16,210.11-214.75,482.37-92.79,251.13-193.66,609.81-147.32,892.39l-4.85,.79Z"/><path class="cls-56" d="M804.18,761.11c-66.13-298.25-66.47-626.58-66.58-734.47-.02-20.64-.04-34.27-.5-36.85l4.84-.87c.52,2.89,.55,13.65,.57,37.72,.11,107.76,.45,435.68,66.46,733.41l-4.8,1.06Z"/><path class="cls-56" d="M982.45,1227.54c-139.36-245.02-704.62-398.32-710.32-399.84l1.27-4.75c5.71,1.52,572.96,155.37,713.32,402.16l-4.27,2.43Z"/></g></g></g></g><g><path class="cls-7" d="M770.34,1415.63c4.57,389.38,192.37,261.08,365.55,299.5,199.87,289.18,218.69,557.48-79.72,789.18l-332.51-49.76c-123.37-5.73-268.14-43.43-259.97-207.71,9.24-185.8,53.18-303.8-156.54-395.05C97.45,1760.55,7.37,1594.06,92.29,1404.68c89.37-199.29-120.25-467.93,32.94-601.45,266.93-232.66,640.36,206.94,645.11,612.4Z"/><g class="cls-28"><g class="cls-19"><g><path class="cls-56" d="M852.89,2112.45c-138.82-151.87-259.1-320.64-357.49-501.62-99.24-182.54-174.88-375.07-224.82-572.25-28.64-113.07-48.85-228.26-60.08-342.39l5-.49c11.21,113.87,31.38,228.82,59.96,341.65,49.84,196.77,125.32,388.91,224.36,571.08,98.2,180.62,218.24,349.05,356.78,500.63l-3.71,3.39Z"/><path class="cls-56" d="M495.01,2326.31l-2.28-4.48c61.76-31.46,134.6-55.99,216.52-72.92,39.03-8.07,77.81-13.39,115.25-15.82l.33,5.02c-37.21,2.42-75.76,7.71-114.56,15.73-81.48,16.83-153.9,41.22-215.26,72.47Z"/><path class="cls-56" d="M560.13,1721.93C388.43,1555.84,22.94,1571.02,19.27,1571.21l-.24-5.03c3.7-.16,371.32-15.48,544.59,152.13l-3.5,3.61Z"/><path class="cls-56" d="M348.41,1288.46c-51.39-264.97,147.19-571.17,149.21-574.23l4.2,2.76c-2,3.05-199.47,307.57-148.47,570.51l-4.94,.96Z"/></g></g></g></g></g><g><path class="cls-45" d="M1971.01,2749.79c-1,.66-19.2,25.29-27.43,41.38l-22.64-12.16s12.76-4.54,19.18-29.22c6.41-24.68,30.89,0,30.89,0Z"/><path class="cls-54" d="M1911.5,2805.91s14.19,4.8,20.1,5.23l.6,.04c3.34,.24,6.58-1.22,8.58-3.91,3.49-4.68,8.53-11.77,8.63-13.75,.15-3.03-8.05-9.26-15.35-11.95-7.3-2.69-9.01-6.31-22.55-17.12-13.54-10.82-36.41-23.66-47.12-13.77-10.71,9.89-.82,34.51,47.12,55.23Z"/><path class="cls-37" d="M1872.22,2752.24c11.76,4.68,15.31,17.92,35.72,31.35,11.58,7.62,25.86,14.62,36.05,19.25,2.75-3.89,5.34-7.9,5.41-9.32,.15-3.03-8.05-9.25-15.35-11.95-7.3-2.7-9.01-6.31-22.55-17.12-13.54-10.81-36.41-23.66-47.12-13.77-2.73,2.52-4.11,6-3.88,10.12,2.12-5.71,5.74-10.94,11.72-8.56Z"/><g><path class="cls-17" d="M1775.79,1218.71l.68,46.22c.2,13.56,11.57,23.5,25.39,22.21l25.11-2.35c3.48,21.81,9.32,42.64,17.3,62.24l-20.63,13.79c-11.85,7.92-15.72,23.31-8.65,34.37l24.1,37.68c7.06,11.04,38.81,16.26,50.63,8.33l3.07-15.81c14.28,16.16,30.43,30.57,48.12,42.97l-10.69,19.8c-6.68,12.38-2.39,26.92,9.58,32.47l40.74,18.89c11.93,5.53,49.75,4.64,56.39-7.72l-12.52-23.66c20.97,6.03,42.98,9.75,65.75,10.95l.3,20.48c.2,13.44,11.36,23.2,24.93,21.8l46.15-4.74c13.52-1.39,24.3-13.37,24.1-26.77l-.3-20.42c22.51-5.77,44.14-13.88,64.61-24.05l10.62,16.79c6.89,10.89,46.12,14.75,57.64,6.89l14.92-28.16c11.49-7.84,15.24-23,8.38-33.88l-10.98-17.42c16.86-15.66,32.12-32.96,45.5-51.59l19.27,9.13c11.64,5.52,45.39,6.98,51.87-5.19l3.02-48.32c6.47-12.15,2.31-26.49-9.3-32.03l-20.25-9.67c7.11-20.69,12.14-42.17,14.86-64.17l24.18-2.26c13.27-1.24,23.87-13.01,23.67-26.29l-.67-45.25c-.2-13.28-11.11-23.06-24.38-21.86l-25.6,2.33c-3.94-20.84-10.08-40.73-18.17-59.45l22.79-15.3c11.41-7.67,15.14-22.73,8.32-33.65l2.27-45.11c-6.83-10.95-47.16-5.78-58.6,1.86l-23.99,16.03c-13.6-14.89-28.82-28.24-45.41-39.84l13.98-25.99c6.52-12.11,2.33-26.54-9.36-32.24l-18.12-23.67c-11.72-5.72-48.32,3.69-54.87,15.82l-14.38,26.63c-19.39-5.61-39.71-9.27-60.73-10.76l-.44-29.66c-.2-13.4-11.31-23.36-24.83-22.25l-46.17,3.78c-13.57,1.11-24.41,12.9-24.21,26.34l.44,29.75c-21.07,5.01-41.41,12.1-60.82,21l7.66-31.78c-7-11.1-45.17-6.39-56.9,1.33l-40.07,26.35c-11.77,7.74-15.62,23.03-8.59,34.14l15.07,23.82c-16.6,14.59-31.77,30.75-45.26,48.2l.28-15.75c-12.02-5.74-52.61,3.34-59.33,15.66l-22.92,42.01c-6.73,12.34-2.41,26.97,9.64,32.69l24.01,11.38c-7.78,20.48-13.52,41.8-16.96,63.69l-26.58,2.41c-13.82,1.26-24.86,13.26-24.66,26.82Zm171.74,11.96c-1.51-101.68,80.73-191.36,183.12-200.26,101.77-8.85,185.02,65.55,186.51,166.11,1.49,100.57-79.34,190.12-181.08,200.07-102.37,10.02-187.04-64.24-188.54-165.92Z"/><path class="cls-41" d="M1806.76,1216.8l.68,46.22c.2,13.56,11.57,23.5,25.39,22.21l25.11-2.35c3.48,21.81,9.32,42.64,17.3,62.24l-20.63,13.79c-11.85,7.92-15.72,23.31-8.65,34.38l24.1,37.68c7.06,11.04,22.37,13.56,34.18,5.62l19.52-13.11c14.28,16.16,30.43,30.57,48.12,42.97l-10.69,19.8c-6.68,12.38-2.39,26.92,9.58,32.47l40.74,18.89c11.93,5.53,26.99,0,33.64-12.36l10.24-19.02c20.97,6.03,42.98,9.75,65.75,10.95l.3,20.48c.2,13.44,11.36,23.2,24.93,21.8l46.15-4.74c13.52-1.39,24.3-13.37,24.1-26.77l-.3-20.42c22.51-5.77,44.14-13.88,64.61-24.04l10.62,16.79c6.89,10.89,21.82,13.34,33.34,5.48l39.22-26.75c11.49-7.84,15.24-23,8.38-33.88l-10.98-17.42c16.86-15.66,32.12-32.96,45.5-51.59l19.27,9.13c11.64,5.52,26.33,.12,32.81-12.05l22.08-41.46c6.47-12.15,2.31-26.49-9.3-32.03l-20.25-9.67c7.11-20.69,12.14-42.17,14.86-64.17l24.18-2.26c13.27-1.24,23.87-13.01,23.67-26.29l-.67-45.25c-.2-13.28-11.11-23.06-24.39-21.86l-25.6,2.33c-3.94-20.84-10.08-40.73-18.17-59.45l22.79-15.3c11.41-7.67,15.14-22.73,8.32-33.65l-23.25-37.27c-6.83-10.95-21.63-13.62-33.08-5.98l-23.99,16.03c-13.6-14.89-28.82-28.24-45.41-39.85l13.99-25.99c6.52-12.11,2.33-26.54-9.36-32.24l-39.9-19.46c-11.72-5.71-26.54-.52-33.09,11.61l-14.38,26.63c-19.39-5.61-39.71-9.27-60.73-10.76l-.44-29.66c-.2-13.4-11.31-23.36-24.83-22.26l-46.17,3.78c-13.57,1.11-24.41,12.9-24.21,26.34l.44,29.75c-21.07,5.01-41.41,12.1-60.82,21l-15.34-24.33c-7-11.1-22.18-13.84-33.91-6.13l-40.07,26.35c-11.77,7.74-15.62,23.03-8.59,34.14l15.07,23.82c-16.6,14.59-31.77,30.75-45.26,48.2l-25.13-11.99c-12.02-5.73-27.21-.41-33.92,11.91l-22.92,42.01c-6.73,12.34-2.41,26.98,9.64,32.69l24.01,11.38c-7.78,20.48-13.52,41.8-16.96,63.69l-26.58,2.41c-13.82,1.25-24.86,13.26-24.66,26.82Zm171.74,11.96c-1.51-101.68,80.73-191.36,183.12-200.26,101.77-8.85,185.02,65.55,186.51,166.11,1.49,100.57-79.34,190.12-181.08,200.07-102.37,10.02-187.04-64.24-188.54-165.92Z"/></g><path class="cls-55" d="M2105.73,2084.28c-36.36,73.16-73.42,161.1-104.05,262.99-45.63,151.78-63.11,288.32-68.7,396.68,12.99,5.36,25.98,10.73,38.97,16.09,25.52-16.27,62.97-44.91,90.59-91.4,45.26-76.2,13.31-114.83,50.1-206.48,35.66-88.85,80.86-90.33,120.01-186.93,23.36-57.63,28.7-109.96,29.73-144.07-52.22-15.63-104.43-31.25-156.65-46.88Z"/><path class="cls-2" d="M2177.1,2105.63c14.08,36.41,12.95,63.79,7.53,83.84-18.07,66.75-89.37,73.99-106.34,148.64-11.39,50.1,17.46,61.18,2.29,113.2-16.1,55.21-51.51,52.78-70.89,109.77-15.23,44.79,1,62.92-5.72,125.78-2.32,21.75-6.64,41.55-11.82,59.2,22.79-17.12,49.42-42.11,70.4-77.42,45.26-76.2,13.31-114.83,50.1-206.48,35.66-88.85,80.86-90.33,120.01-186.93,23.36-57.63,28.7-109.96,29.73-144.07-28.43-8.51-56.85-17.01-85.28-25.52Z"/><path class="cls-29" d="M2677.28,2620.54s9.62,3.61,13.88,17.05c4.27,13.43-2.72,69.28-8.79,83-6.07,13.72-23.97,10.45-29.19,0-5.22-10.45,2.2-84.36,2.2-84.36l21.9-15.69Z"/><path class="cls-26" d="M2111.44,2117.44c42.29,57.35,71.5,107.06,90.33,141.78,39.78,73.37,48.89,108.73,95.78,176.91,43.43,63.14,72.08,85.84,83.79,94.56,28.22,21.01,51.52,30.43,111.47,53.11,52.39,19.81,107.87,40.33,166.3,61.34,10.33,1.16,14.66-3.3,17.5-12.66-.96-44.63-14.39-71.87-25.53-88-23.77-34.42-48.45-34.59-122.03-86.72-39.24-27.8-59.19-42.16-75.73-64.9-7.96-10.94-20.98-31.26-41.62-107.96-8.46-31.43-18.63-73.94-27.2-125.33-91.02-14.04-182.04-28.09-273.06-42.13Z"/><path class="cls-57" d="M1865.14,1450.34s7.24-14.91-9.77-28.31c-17.01-13.4-49.51-31.81-46.94-57.54,0,0,17.56,29.54,28.91,26.88,11.35-2.66,18.99,3.85,18.99,3.85,0,0,26.54,15.11,25.77,44.07l-.77,28.96-16.18-17.92Z"/><path class="cls-58" d="M2379.69,1463.97s-12.8-7.05-16.52-16c-3.72-8.95-3.77-22.88,8.89-30.2,12.67-7.32,15.43-14.76,19.99-20.7,4.57-5.95,15.05-8.02,15.05-8.02,0,0-18.8,34.68-21.06,40.37-2.26,5.69-11.38,6.47-.03,22.75l-6.33,11.82Z"/><path class="cls-15" d="M1857.03,1443.64c9.96-1.6,19.91-3.2,29.87-4.8,8.54,12.74,20.46,32.94,29.32,59.57,20.01,60.15,4.66,93.84,16.56,130.21,9.75,29.79,39.59,66.92,131.21,94.33-.66,58.18-1.33,116.37-1.99,174.55-37.56-5.58-98.03-20.47-155.8-64.78-33.47-25.67-69.73-53.48-83.18-101.19-16.97-60.21,8.17-131.58,18.01-159.51,5.63-15.99,16.56-43.09,18.39-81.81,.92-19.51-.76-35.7-2.39-46.57Z"/><path class="cls-11" d="M2057.04,1720.81c31.52,6.19,75.11,10.97,126.14,4.95,88.79-10.47,153.14-48.06,186.46-71.1,36.38,79.39,37.14,138.23,30.74,177.78-4.72,29.14-11.9,38.91-12.54,71.52-1.09,54.9,18.54,63.23,27.77,134.58,7.6,58.74-3.32,71.54,13.82,95.99,12.3,17.55,28.64,26.24,38.35,53.67,3.22,9.08,11.22,31.68,2.71,39.01-13.63,11.73-47.47-34.82-110.63-41.16-33.68-3.38-38.83,8.37-73.75,1.72-38.11-7.27-35.47-21.94-71.18-29.16-35.4-7.16-46.14,5.61-100.34-.86-22.8-2.72-34.2-4.08-41.31-10.4-23-20.45-3.99-61.13,.14-125.09,4.08-63.09-11.58-67.29-18.01-161.22-2.27-33.18-3.64-81.18,1.62-140.21Z"/><path class="cls-30" d="M2363.28,1462.25c7.15-8,14.29-16.01,21.44-24.01,30.08,16.22,76.06,45.8,117.76,96.39,31.2,37.86,58.74,71.28,61.71,119.77,4.25,69.51-44.97,121.54-67.88,145.76-45.16,47.74-97.24,67.69-127.02,76.3-57.69-128.04-49.12-178.05-28.7-199.4,11.37-11.89,26.7-15.2,40.76-37.25,19.56-30.68,16.09-65.39,13.89-87.39-4.04-40.47-19.88-71.38-31.95-90.16Z"/><g><path class="cls-9" d="M2190.07,1659.03c-1.64,8.72-2.65,27.53,8.87,42.47,10.09,13.08,25.52,17.04,31.7,18.69,14.94,3.98,23.02,.75,23.82,3.32,1.78,5.69-34.87,30.94-77.28,29.36-24.93-.93-50.04-11.06-49.78-19.07,.29-8.99,32.28-7.97,40.22-26.58,5.07-11.89-1.92-26.54-9.51-37.95,6.88-8.01,25.06-2.22,31.95-10.24Z"/><g><path class="cls-12" d="M2159.33,1651.24c-2.59-7.22,.29-16.95,7.34-21.07,6.07-3.55,13.19-1.64,17.45-.5,12.36,3.31,25.91,13.84,27.78,26.24,1.11,7.36-9.8,17.53-11.6,19.42-2.04,2.13-4.5,2.18-7.14,3.37-3.66,1.65-9.42,4.29-18.86,8.77,.15-2.35,.18-5.32-.21-8.7-.15-1.3-.79-6.41-2.73-11.19-3.87-9.57-9.57-9.48-12.03-16.33Z"/><path class="cls-53" d="M2186.39,1685.3s-11.83,9.1-27.13,2.04c-13.67-6.31-6.04-36.65,4.92-39.47,3.66-.94,9.9,.5,14.33,3.66,2.62,1.87,3.22,3.37,7.56,6.35,4,2.75,5.38,2.77,6.35,4.32,1.22,1.94,1.38,5.6-4.19,13.2,3.51-1.51,7.04-1.25,8.98,.65,.31,.3,1.07,1.29,1.31,2.44,.86,4.15-3.84,7.2-12.12,6.8Z"/></g></g><path class="cls-3" d="M2371,2116.29c-26.8-5.18-36.88,20.45-62.89,16.01-36.16-6.18-32.38-58.41-74.32-83.47-48.05-28.7-96.11,14.1-128.06-10.29-18.29-13.96-30.53-49.33-6.86-141.78,.4-7.21,1.51-41.42-24.01-70.89-28.99-33.48-69.35-34.29-75.47-34.3-64.95,3.99-126.34-26.73-158.94-80.04-11.54-18.88-17.88-38.01-21.02-55.92-3.24,24.68-3.37,51.24,3.59,75.93,13.45,47.71,49.72,75.53,83.18,101.19,56.17,43.08,114.82,58.33,152.55,64.27,7.27,60.42,18.15,71.42,14.67,125.26-4.14,63.96-23.14,104.65-.14,125.09,7.11,6.32,18.51,7.68,41.31,10.4,54.19,6.47,64.94-6.3,100.34,.86,35.71,7.22,33.07,21.89,71.18,29.16,34.92,6.66,40.07-5.1,73.75-1.72,63.15,6.35,97,52.9,110.63,41.16,4.87-4.19,4.32-13.39,2.37-22.19-16.9-5.68-29.01-13.52-37.82-21.26-30.1-26.46-34.08-61.67-64.03-67.46Z"/></g><g><path class="cls-34" d="M1608.25,2472.79c49.57,25.17,111.85,2.06,139.1-51.62,27.25-53.68,9.16-117.59-40.41-142.76-2.57-1.3-5.19-2.4-7.82-3.45,9.21-29.7,16.15-59.63,20.81-89.58,2.84,0,5.69-.06,8.59-.31,56.56-5.04,101.44-57.01,100.26-116.08-1.18-59.07-47.99-102.87-104.55-97.83-2.96,.27-5.86,.73-8.75,1.24-5.91-29.27-14-57.87-24.21-85.54,2.6-1.52,5.19-3.1,7.72-4.87,48.39-33.9,63.86-100.81,34.55-149.44-29.3-48.64-92.29-60.58-140.67-26.68-2.48,1.74-4.81,3.61-7.12,5.52-19.11-21.13-40.07-40.71-62.75-58.57,1.59-2.61,3.16-5.26,4.57-8.04,27.25-53.68,62.86-112.31,12.9-136.7-115.57-56.42-165.17-8.12-192.42,45.55-1.41,2.78-2.63,5.6-3.8,8.43-27.81-7.76-55.98-13.13-84.32-16.1,.18-2.98,.31-5.97,.26-9-1.19-59.07,16.34-91.03-40.43-92.14-123.8-2.41-165.57,51.33-164.38,110.39,.06,3.09,.32,6.11,.63,9.1-28.37,8.09-56.23,18.43-83.35,30.93-1.29-2.63-2.63-5.25-4.16-7.8-29.3-48.63-92.29-60.58-140.67-26.68-48.39,33.9-63.86,100.81-34.55,149.44,1.5,2.49,3.15,4.82,4.82,7.12-21.43,21.43-41.5,44.7-60.04,69.66-2.4-1.5-4.83-2.97-7.4-4.28-49.57-25.17-111.85-2.06-139.1,51.62-27.25,53.68-9.16,117.59,40.41,142.76,2.57,1.3,5.19,2.4,7.82,3.45-9.21,29.7-16.15,59.63-20.81,89.58-2.84,0-5.69,.06-8.59,.31-56.56,5.05-101.44,57.01-100.26,116.08,1.18,59.07,47.99,102.87,104.55,97.82,2.95-.26,5.86-.73,8.75-1.24,5.91,29.27,14,57.87,24.21,85.54-2.6,1.52-5.19,3.09-7.72,4.87-48.39,33.9-63.86,100.81-34.55,149.44,29.3,48.64,126.32,71.23,174.71,37.33,2.48-1.74-29.22-14.26-26.92-16.17,19.11,21.13,40.07,40.71,62.75,58.57-1.59,2.61-3.16,5.26-4.57,8.04-27.25,53.68-9.16,117.59,40.41,142.76,49.57,25.17,111.85,2.06,139.1-51.62,1.41-2.78,2.63-5.6,3.8-8.43,27.81,7.76,55.98,13.13,84.32,16.1-.18,2.98-.31,5.97-.25,9,1.19,59.07,47.99,102.87,104.55,97.82,56.56-5.04,101.45-57.01,100.26-116.08-.06-3.09-.32-6.11-.63-9.1,28.37-8.09,56.23-18.43,83.35-30.93,1.29,2.63,2.63,5.25,4.16,7.79,29.3,48.63,92.28,60.58,140.67,26.68,48.39-33.9,63.86-100.81,34.55-149.44-1.5-2.49-3.15-4.82-4.82-7.12,21.43-21.43,41.5-44.7,60.04-69.66,2.4,1.5,4.83,2.97,7.4,4.28Zm-617.96,7.84c-179.98-91.38-245.68-323.45-146.73-518.33,98.95-194.89,325.06-278.79,505.05-187.41,179.98,91.38,245.68,323.45,146.73,518.33-98.95,194.89-325.07,278.79-505.05,187.41Z"/><path class="cls-43" d="M1728.52,2185.07c56.56-5.04,101.44-57.01,100.26-116.08-1.18-59.07-47.99-102.87-104.55-97.83-2.96,.26-5.86,.73-8.75,1.24-5.91-29.27-14-57.87-24.21-85.54,2.6-1.52,5.19-3.1,7.72-4.87,48.39-33.9,108.25-115.81,74.11-161.18-64.79-86.11-131.84-48.84-180.23-14.94-2.48,1.74-4.81,3.61-7.12,5.52-19.11-21.13-40.07-40.7-62.75-58.57,1.59-2.61,3.16-5.26,4.57-8.04,14.83-29.21,16.14-61.42,6.35-88.8-46.74,82.26-92.84,164.86-138.12,247.91,143.59,105.22,189.3,312.56,99.55,489.34-76.05,149.8-227.24,233.91-374.86,223.37-6.58,17.08-13.05,34.25-20.1,51.16-19.14,45.9-40.87,90.85-62.64,135.74,13.69,2.58,27.44,4.61,41.23,6.06-.18,2.99-.31,5.98-.25,9,1.19,59.07,37.05,109.26,139.55,103.82,56.7-3.01,66.45-63.01,65.26-122.08-.06-3.09-.32-6.1-.62-9.1,28.37-8.09,56.23-18.43,83.35-30.93,1.29,2.64,2.63,5.25,4.16,7.79,29.3,48.64,130.96,69.3,179.35,35.4,48.39-33.9,25.18-109.53-4.12-158.16-1.5-2.49-3.15-4.82-4.82-7.12,21.43-21.43,41.5-44.7,60.04-69.66,2.4,1.51,4.83,2.98,7.4,4.28,49.57,25.17,111.85,2.06,139.1-51.62,27.25-53.67,9.16-117.59-40.41-142.76-2.57-1.3-5.19-2.4-7.82-3.45,9.21-29.7,16.15-59.64,20.81-89.58,2.84,0,5.69-.06,8.59-.31Z"/><path class="cls-52" d="M1661.56,2478.85c49.57,25.17,111.85,2.06,139.1-51.62,27.25-53.68,9.16-117.59-40.41-142.76-2.57-1.3-5.19-2.4-7.82-3.45,9.21-29.7,16.15-59.63,20.81-89.58,2.84,0,5.69-.05,8.59-.31,56.56-5.04,101.44-57.01,100.26-116.08-1.18-59.07-47.99-102.87-104.55-97.83-2.96,.27-5.86,.73-8.75,1.24-5.91-29.27-14-57.87-24.21-85.54,2.6-1.52,5.19-3.1,7.72-4.87,48.39-33.9,63.86-100.81,34.55-149.44-29.3-48.63-92.29-60.58-140.67-26.68-2.48,1.74-4.81,3.61-7.12,5.52-19.11-21.13-40.07-40.71-62.75-58.57,1.59-2.61,3.15-5.26,4.57-8.04,27.25-53.68,9.16-117.59-40.41-142.76-49.57-25.17-111.85-2.06-139.1,51.62-1.41,2.78-2.63,5.6-3.8,8.43-27.81-7.76-55.98-13.13-84.32-16.1,.18-2.98,.31-5.97,.25-9-1.19-59.07-47.99-102.87-104.55-97.82-56.56,5.04-101.44,57.01-100.26,116.08,.06,3.09,.32,6.11,.63,9.1-28.37,8.09-56.23,18.43-83.35,30.93-1.29-2.63-2.63-5.25-4.16-7.8-29.3-48.63-92.29-60.58-140.67-26.68-48.39,33.9-63.86,100.81-34.55,149.44,1.5,2.49,3.15,4.82,4.82,7.12-21.43,21.43-41.5,44.7-60.04,69.66-2.4-1.5-4.83-2.97-7.4-4.28-49.57-25.17-111.85-2.06-139.1,51.62-27.25,53.68-9.16,117.59,40.41,142.76,2.57,1.3,5.19,2.4,7.82,3.45-9.21,29.7-16.15,59.63-20.81,89.58-2.84,0-5.69,.06-8.59,.31-56.56,5.04-101.44,57.01-100.26,116.08,1.18,59.07,47.99,102.87,104.55,97.82,2.95-.26,5.86-.73,8.74-1.24,5.91,29.27,14,57.87,24.21,85.54-2.6,1.52-5.19,3.09-7.72,4.87-48.39,33.9-63.86,100.81-34.55,149.44,29.3,48.64,92.28,60.58,140.67,26.68,2.48-1.74,4.81-3.61,7.12-5.52,19.11,21.13,40.07,40.71,62.75,58.58-1.59,2.61-3.16,5.26-4.57,8.04-27.25,53.68-9.16,117.59,40.41,142.76,49.57,25.17,111.85,2.06,139.1-51.62,1.41-2.78,2.63-5.6,3.8-8.43,27.81,7.76,55.99,13.13,84.32,16.09-.18,2.98-.31,5.97-.25,9,1.19,59.07,47.99,102.87,104.55,97.82,56.56-5.04,101.44-57.01,100.26-116.08-.06-3.09-.32-6.1-.63-9.1,28.37-8.09,56.23-18.43,83.35-30.93,1.29,2.63,2.63,5.25,4.16,7.79,29.3,48.63,92.28,60.58,140.67,26.68,48.39-33.9,63.86-100.81,34.56-149.44-1.5-2.49-3.15-4.82-4.82-7.12,21.43-21.43,41.5-44.7,60.04-69.66,2.4,1.5,4.83,2.97,7.4,4.28Zm-617.96,7.84c-179.98-91.38-245.68-323.44-146.73-518.33,98.95-194.89,325.06-278.79,505.05-187.41,179.98,91.38,245.68,323.45,146.73,518.33-98.95,194.89-325.06,278.79-505.05,187.41Z"/></g><g><g><path class="cls-35" d="M286.16,954l-2.42,73.75c-.71,21.64,16,38.37,37.3,37.39l38.71-1.79c3.7,35.05,11.11,68.72,21.87,100.6l-32.7,20.38c-18.78,11.7-25.88,35.94-15.85,54.14l34.16,61.96c10.01,18.16,58.35,28.96,77.08,17.23l5.9-24.97c20.7,26.87,44.4,51.11,70.63,72.27l-17.89,30.74c-11.18,19.22-5.69,42.74,12.26,52.52l61.1,33.3c17.9,9.75,76,11.27,87.13-7.91l-17.44-38.71c31.73,11.25,65.24,18.9,100.09,22.58l-1.07,32.68c-.7,21.44,15.7,37.87,36.62,36.71l71.19-3.96c20.85-1.16,38.3-19.43,39-40.81l1.07-32.58c34.98-7.44,68.78-18.7,100.97-33.3l15.04,27.6c9.76,17.91,69.67,27.12,87.94,15.49l25.01-43.74c18.22-11.6,25.11-35.49,15.4-53.37l-15.55-28.63c27.05-23.66,51.78-50.06,73.7-78.72l28.88,16.07c17.45,9.71,69.14,14.67,80-4.23l8.26-76.81c10.84-18.87,5.54-42.05-11.86-51.79l-30.36-16.99c12.47-32.43,21.8-66.29,27.61-101.16l37.28-1.73c20.47-.95,37.61-18.89,38.3-40.07l2.37-72.21c.69-21.19-15.32-37.64-35.78-36.75l-39.47,1.71c-4.49-33.53-12.41-65.72-23.42-96.22l36.12-22.62c18.09-11.34,24.94-35.06,15.3-53.01l6.87-71.76c-9.65-17.99-71.94-12.9-90.08-1.6l-38.01,23.69c-19.75-24.8-42.11-47.28-66.7-67.07l23.41-40.35c10.91-18.8,5.57-42.14-11.94-52.14l-26.04-39.15c-17.56-10.03-74.43,2.12-85.39,20.95l-24.06,41.35c-29.34-10.46-60.25-17.88-92.39-21.89l1.55-47.34c.7-21.38-15.61-38.13-36.44-37.42l-71.14,2.42c-20.91,.71-38.43,18.67-39.14,40.11l-1.56,47.47c-32.71,6.34-64.47,16.06-94.92,28.75l14.14-50.08c-9.9-18.24-68.84-13.71-87.43-2.32l-63.47,38.89c-18.65,11.43-25.7,35.51-15.74,53.78l21.34,39.15c-26.57,21.98-51.07,46.55-73.08,73.32l1.61-25.09c-18.01-10.08-81,1.23-92.23,20.34l-38.32,65.21c-11.25,19.15-5.72,42.82,12.34,52.88l36,20.02c-13.48,32.05-23.89,65.6-30.81,100.24l-40.98,1.78c-21.3,.92-39.15,19.21-39.86,40.85Zm181.2,36.12c6.84-208.65,177.8-384.3,380.73-392.28,201.7-7.94,358.83,152.95,352.06,359.32-6.76,206.36-174.92,381.88-376.69,392.1-203,10.28-362.94-150.48-356.1-359.13Z"/><path class="cls-8" d="M333.83,953.38l-2.42,73.75c-.71,21.64,16,38.37,37.3,37.39l38.71-1.79c3.7,35.05,11.11,68.72,21.87,100.6l-32.7,20.38c-18.78,11.7-25.88,35.94-15.85,54.14l34.16,61.96c10.01,18.16,33.31,23.36,52.04,11.63l30.94-19.38c20.7,26.88,44.4,51.11,70.63,72.27l-17.89,30.74c-11.18,19.22-5.69,42.74,12.26,52.52l61.1,33.3c17.9,9.75,41.42,2.1,52.55-17.08l17.14-29.54c31.72,11.25,65.24,18.9,100.09,22.58l-1.07,32.68c-.7,21.44,15.7,37.87,36.62,36.71l71.19-3.96c20.85-1.16,38.3-19.43,39-40.81l1.07-32.58c34.98-7.44,68.78-18.69,100.97-33.3l15.04,27.6c9.76,17.91,32.49,22.98,50.76,11.35l62.19-39.6c18.22-11.6,25.11-35.49,15.4-53.37l-15.55-28.63c27.05-23.66,51.78-50.06,73.7-78.72l28.88,16.07c17.45,9.71,40.4,2.24,51.26-16.66l37-64.38c10.84-18.87,5.54-42.05-11.86-51.79l-30.36-16.99c12.47-32.43,21.8-66.29,27.61-101.16l37.28-1.73c20.47-.95,37.61-18.89,38.3-40.07l2.37-72.21c.69-21.19-15.32-37.64-35.78-36.75l-39.47,1.71c-4.49-33.53-12.41-65.72-23.42-96.22l36.12-22.62c18.09-11.33,24.94-35.06,15.3-53.01l-32.88-61.25c-9.65-17.99-32.18-23.41-50.32-12.11l-38.01,23.69c-19.75-24.8-42.11-47.28-66.7-67.07l23.41-40.35c10.91-18.8,5.57-42.14-11.94-52.14l-59.78-34.13c-17.56-10.03-40.69-2.9-51.65,15.94l-24.06,41.35c-29.34-10.46-60.25-17.88-92.39-21.89l1.55-47.34c.7-21.38-15.61-38.13-36.44-37.42l-71.14,2.42c-20.91,.71-38.43,18.67-39.14,40.11l-1.56,47.47c-32.71,6.34-64.47,16.06-94.92,28.75l-21.71-39.99c-9.9-18.24-33-23.8-51.58-12.41l-63.47,38.89c-18.65,11.43-25.7,35.51-15.74,53.78l21.34,39.15c-26.57,21.98-51.07,46.55-73.08,73.32l-37.67-21.08c-18.01-10.08-41.73-2.77-52.96,16.34l-38.32,65.21c-11.25,19.15-5.72,42.83,12.34,52.88l36,20.02c-13.48,32.05-23.89,65.6-30.81,100.24l-40.98,1.78c-21.3,.92-39.15,19.21-39.86,40.85Zm165.66,36.82c7.13-217.5,185.34-400.6,396.88-408.93,210.25-8.27,374.05,159.44,367,374.56-7.05,215.12-182.34,398.08-392.67,408.73-211.61,10.71-378.33-156.87-371.2-374.37Z"/></g><g class="cls-23"><g><path class="cls-42" d="M1325.24,1112.08l30.1-7.97s14.16-27.44,34.08-23.02c19.92,4.43,37.62,20.76,54,15.25,16.38-5.51,32.31-14.24,40.72-12.75,8.41,1.49-18.59,19.19-18.59,19.19,0,0,27-18.59,37.18-15.93,10.18,2.66-38.07,26.12-49.57,33.2-11.51,7.08-54.89,.97-70.82,1.81-15.93,.85-59.75,15.01-59.75,15.01l2.66-24.79Z"/><path class="cls-36" d="M1337.05,1100.47c-1.77,13.13-3.54,26.27-5.31,39.4-22.72,23.24-58.97,55.73-109.91,83.76-54.82,30.17-179.78,98.95-281.16,44.37-77.32-41.62-103.05-134.48-112.65-169.85-8.88-32.71-17.02-61.77-8.86-93.83,17.86-70.12-23.69-112.58,86.07-125.56,92.71,50.51,83.43,154.02,122.81,192.73,30.97,30.44,86.57,33.09,110.23,34.23,35.17,1.7,49.4-5.65,96.62-8.68,43.66-2.81,79.34,.4,102.14,3.42Z"/><g class="cls-5"><path class="cls-59" d="M899.82,1126.48c31.24,12.21,58.48-6.06,97.17,16.79,48.93,28.89,43.43,80.57,80.27,90.84,30.07,8.38,55.21-20.06,99.44-48.66,34.3-22.18,84.99-47.61,157.27-62.14-.74,5.52-1.49,11.05-2.23,16.57-22.72,23.24-58.97,55.73-109.91,83.76-54.82,30.17-179.78,98.95-281.16,44.37-77.32-41.62-103.05-134.48-112.65-169.85-8.88-32.71-17.02-61.77-8.86-93.83,2.26-8.87,5.63-17.42,10-25.63,12.84,101.87,42.61,136.81,70.65,147.77Z"/></g><path class="cls-47" d="M539.09,1350.34c-.69-33.84-2.51-220.57,87.9-354.85,20.72-30.78,57.39-85.24,127.78-121.27,27.44-14.05,52.19-21.29,69.18-25.23,20.08,2.98,40.15,5.97,60.23,8.95,19.22,17.51,45.32,44.97,68.37,83.83,14.59,24.6,38.75,65.32,44.34,117.89,6.52,61.26-17.83,85.4-37.83,180.8-10.85,51.74-14.27,95.13-15.46,123.71-69.45,5.97-138.9,11.94-208.35,17.91-1.1-32.92-3.98-69.53-9.77-109.06-5.98-40.91-14.05-77.96-22.79-110.69-9.34,37.19-17.56,80.63-21.97,129.41-3.06,33.76-3.85,65.13-3.26,93.6-8.44,3.33-55.94,21.13-101.73-3.26-17.88-9.52-29.6-22.34-36.62-31.74Z"/><path class="cls-14" d="M865.87,785.39c59.28-8.03,88.92-12.04,108.88-28.13,43.63-35.15,53.15-99.38,45.23-144.6-11.11-63.46-59.12-104.09-89.51-129.8-39.04-33.04-47.99-24.56-62.78-45.52-40.89-57.91,25.84-124.92,11.08-216.73-16.28-101.29-120.23-161.05-147.1-175.12-143.18-74.98-286.66,.9-301.23,8.93-134.96,74.33-188.26,231.04-170.46,350.95,5.09,34.29,18.1,122,77.79,150.6,57.48,27.54,109.44-23.11,190.66,13.08,11.35,5.06,45.74,20.38,72.43,55.22,30.14,39.35,22.02,66.45,55.12,106.86,26.84,32.77,58.69,47.31,65.11,50.14,40.36,17.79,75.72,13.48,144.77,4.13Z"/><g class="cls-5"><path class="cls-50" d="M400.95,72.86c-92.35,119.27-106.35,174.03-88.85,197.62,24.49,33.01,104.79-2.88,145.2,45.2,36.35,43.24-6.11,99.07,27.86,137.81,42.93,48.97,131.85-16.15,191.9,28.09,71.47,52.66,2.43,186.85,72.56,260.92,21.24,22.43,57.56,41.73,123.55,41.91-2.39,.32-4.81,.65-7.3,.99-69.04,9.35-104.41,13.67-144.77-4.13-6.42-2.83-38.27-17.37-65.11-50.14-33.1-40.41-24.98-67.51-55.12-106.86-26.69-34.84-61.08-50.16-72.43-55.22-81.22-36.18-133.18,14.47-190.66-13.08-59.69-28.6-72.71-116.32-77.79-150.6-16.43-110.74,27.78-252.88,140.96-332.52Z"/></g><path class="cls-51" d="M874.22,758.4s1.69,43.49,0,72.69c-1.24,21.37,17.25,33.55,17.25,33.55,0,0,10.15,17.39-44.74,20.3-54.88,2.91-108.29,0-108.29,0,0,0,53.66-35.69,65.92-45.18,12.26-9.48,18.84-80.4,10.99-125.31l58.88,43.95Z"/><path class="cls-31" d="M957.84,701.16s-11.33,72.03-32.69,106.66c-21.37,34.63-57.83,39.7-70.99,19.87-13.16-19.84-18.81-72.91-18.81-72.91,0,0-9.67,7.44-17.85-10.92-8.17-18.36,14.74-79.35,32.72-47.06,0,0,5.02-17.96,25.36-36,20.35-18.05,98.03-3.43,82.26,40.37Z"/><g class="cls-5"><path class="cls-25" d="M656.28,1263.9c24.21-37.99-12.7-70.93,2.98-131.06,13.38-51.31,56.96-91.37,72.98-84.89,22.13,8.95-21.35,101.47,22.34,144.47,29.01,28.54,66.81,6.12,105.74,31.28,25.67,16.59,51.47,53.67,53.48,143.05-59.52,5.12-119.05,10.23-178.57,15.35-1.1-32.92-3.98-69.53-9.77-109.06-5.98-40.91-14.05-77.96-22.79-110.69-9.34,37.19-17.56,80.63-21.97,129.41-3.06,33.76-3.85,65.13-3.26,93.6-8.44,3.33-55.94,21.13-101.73-3.26-2.56-1.36-4.97-2.8-7.28-4.27,1.17-19.72,6.23-42.24,20.83-61.78,23.73-31.76,49.51-24.64,67.02-52.13Z"/></g><g><path class="cls-21" d="M1529.29,891.87c0-50.55-43.03-91.52-96.12-91.52s-96.12,40.98-96.12,91.52c0,30.68,15.85,57.83,40.18,74.43,10.32,7.05,16.58,18.66,16.58,31.15v7c0,15.22,12.34,27.55,27.55,27.55h23.62c15.22,0,27.55-12.34,27.55-27.55v-7c0-12.5,6.26-24.11,16.58-31.15,24.33-16.61,40.18-43.76,40.18-74.43Z"/><path class="cls-48" d="M1454.49,1072.82c0,6.23-9.55,11.29-21.32,11.29s-21.32-5.05-21.32-11.29,9.55-11.29,21.32-11.29,21.32,5.05,21.32,11.29Z"/><path class="cls-39" d="M1404.84,1052.65v11.53c0,3.9,2.22,7.47,5.74,9.15,4.89,2.33,13.01,4.89,24.82,4.59,9.58-.25,15.83-1.81,19.8-3.45,3.84-1.59,6.3-5.38,6.3-9.53v-6.38l-56.66-5.9Z"/><path class="cls-4" d="M1404.84,1062.75c.86,.84,1.86,1.55,2.99,2.09,5.48,2.61,41.4,8.46,50.06,5.2,1.12-.42,2.14-.99,3.02-1.67,.38-1.09,.59-2.25,.59-3.44v-6.38l-56.66-5.9v10.1Z"/><path class="cls-16" d="M1407.35,1044.81c-3.19-.33-5.97,2.17-5.97,5.38v.33c0,4.38,2.49,8.38,6.44,10.27,5.48,2.61,41.4,8.46,50.06,5.2,4.36-1.64,7.06-5.38,7.06-10.04v-.26c0-2.77-2.09-5.09-4.85-5.38l-52.75-5.49Z"/><path class="cls-1" d="M1460.1,1050.3l-52.75-5.49c-2.08-.22-3.98,.78-5.05,2.38,1.06,2.5,2.99,4.59,5.53,5.79,5.48,2.61,42.93,9.22,50.06,5.86,2.78-1.31,4.95-3.52,6.12-6.2-.87-1.27-2.27-2.17-3.91-2.34Z"/><path class="cls-49" d="M1405.29,1026.13c-2.16,0-3.9,1.75-3.9,3.9v9.03c0,4.38,2.49,8.38,6.44,10.27,5.48,2.61,42.93,9.22,50.06,5.86,4.21-1.99,7.06-6.04,7.06-10.7v-14.46c0-2.16-1.75-3.9-3.9-3.9h-55.76Z"/><path class="cls-27" d="M1464.16,1028.94c0,4.05-13.88,7.33-31,7.33s-31-3.28-31-7.33,13.88-7.33,31-7.33,31,3.28,31,7.33Z"/><path class="cls-13" d="M1529.29,891.87c0-50.55-43.03-91.52-96.12-91.52s-96.12,40.98-96.12,91.52c0,30.68,15.85,57.83,40.18,74.43,10.32,7.05,16.58,18.66,16.58,31.15v7c0,15.22,12.34,27.55,27.55,27.55h23.62c15.22,0,27.55-12.34,27.55-27.55v-7c0-12.5,6.26-24.11,16.58-31.15,24.33-16.61,40.18-43.76,40.18-74.43Z"/><path class="cls-20" d="M1455.85,1023.16c0,2.96-10.15,5.36-22.68,5.36s-22.68-2.4-22.68-5.36,10.15-5.36,22.68-5.36,22.68,2.4,22.68,5.36Z"/><g><path class="cls-32" d="M1427.26,1026.44c-.65,0-1.21-.48-1.3-1.14l-16.69-129.76c-.09-.72,.41-1.37,1.13-1.47,.72-.1,1.37,.41,1.47,1.13l16.69,129.76c.09,.72-.42,1.37-1.13,1.47-.06,0-.11,.01-.17,.01Z"/><path class="cls-44" d="M1437.62,1026.44c-.06,0-.11,0-.17-.01-.72-.09-1.23-.75-1.13-1.47l16.69-129.76c.09-.72,.75-1.23,1.47-1.13,.72,.09,1.23,.75,1.13,1.47l-16.69,129.76c-.09,.66-.65,1.14-1.3,1.14Z"/><path class="cls-10" d="M1451.21,895.43c-.43,0-.84-.21-1.1-.59l-4.6-6.99c-.05-.07-.12-.11-.19-.1-.11,0-.16,.08-.18,.11l-3.04,5.09c-.5,.84-1.39,1.36-2.36,1.39-.97,.03-1.89-.45-2.43-1.27l-4.17-6.26c-.05-.07-.11-.1-.18-.1-.09,.02-.13,.03-.17,.1l-3.67,5.3c-.53,.77-1.4,1.22-2.32,1.23h0c-.92,0-1.79-.46-2.33-1.22l-5.29-7.57c-.05-.07-.11-.09-.19-.1-.08,0-.13,.04-.18,.11l-4.83,8.33c-.36,.63-1.16,.84-1.79,.48-.63-.36-.84-1.16-.48-1.79l4.83-8.33c.49-.85,1.36-1.38,2.33-1.42,.96-.05,1.89,.41,2.45,1.22l5.29,7.57c.05,.07,.11,.1,.18,.1h0c.07,0,.13-.03,.17-.1l3.67-5.3c.54-.78,1.42-1.24,2.35-1.23,.94,0,1.81,.48,2.34,1.27l4.17,6.26c.05,.07,.12,.13,.19,.1,.11,0,.16-.08,.18-.11l3.04-5.09c.51-.85,1.39-1.36,2.37-1.39,.97-.02,1.89,.46,2.43,1.28l4.6,6.99c.4,.6,.23,1.42-.37,1.82-.22,.15-.47,.22-.72,.22Z"/></g><path class="cls-6" d="M1434.91,964.06c2.06-35.28,61.53-43.53,61.27-75.04-.16-19.4-23.79-33.81-28.83-36.7-37.18-21.27-82.95,3.29-92.4-14.09-2.35-4.33-1.25-9.04-.62-11.72,.95-4.05,3.1-7.83,6.29-11.29-26.23,16.34-43.57,44.56-43.57,76.64s15.85,57.83,40.18,74.43c10.32,7.05,16.58,18.66,16.58,31.15v7c0,15.22,12.34,27.55,27.55,27.55h23.62c15.22,0,27.55-12.34,27.55-27.55v-5.6c-3.25,2.49-6.98,4.23-11.08,4.19-14.2-.12-27.57-21.44-26.54-38.99Z"/><ellipse class="cls-18" cx="1434.7" cy="895.43" rx="82.71" ry="79.77"/></g></g></g></g></g></g></g></g></svg>