<?xml version="1.0" encoding="UTF-8"?><svg id="Layer_2" xmlns="http://www.w3.org/2000/svg" xmlns:xlink="http://www.w3.org/1999/xlink" viewBox="0 0 2761.47 2769.31"><defs><style>.cls-1{fill:url(#linear-gradient-2);}.cls-2{fill:url(#linear-gradient-51);}.cls-3{fill:url(#linear-gradient-17);}.cls-4{fill:url(#linear-gradient-43);}.cls-5{fill:url(#linear-gradient-15);}.cls-6{fill:url(#linear-gradient-18);}.cls-7{fill:url(#linear-gradient-40);}.cls-8{fill:url(#linear-gradient-52);}.cls-9{fill:url(#linear-gradient-28);}.cls-10{fill:url(#linear-gradient-14);}.cls-11{fill:url(#linear-gradient-36);}.cls-12{fill:url(#linear-gradient-20);}.cls-13{fill:url(#linear-gradient-6);}.cls-14{fill:url(#New_Gradient_Swatch_1-3);}.cls-15{fill:#fff;opacity:.56;}.cls-16{fill:url(#linear-gradient-53);}.cls-17{fill:url(#New_Gradient_Swatch_1-5);}.cls-18{fill:url(#linear-gradient-35);}.cls-19{fill:url(#linear-gradient-48);}.cls-20{fill:url(#linear-gradient-32);}.cls-21{fill:url(#linear-gradient-11);}.cls-22{fill:url(#linear-gradient-50);}.cls-23{fill:url(#linear-gradient-39);}.cls-24{fill:url(#linear-gradient-10);}.cls-25{fill:url(#linear-gradient-49);}.cls-26{fill:url(#linear-gradient-37);}.cls-27{fill:url(#New_Gradient_Swatch_1-7);}.cls-28{fill:url(#linear-gradient-16);}.cls-29{fill:url(#linear-gradient-31);}.cls-30{fill:url(#New_Gradient_Swatch_1-6);}.cls-31{fill:url(#linear-gradient-41);}.cls-32{fill:url(#linear-gradient-21);}.cls-33{fill:url(#linear-gradient-25);}.cls-34{fill:url(#linear-gradient-5);}.cls-35{fill:url(#linear-gradient-54);}.cls-36{fill:url(#linear-gradient-45);}.cls-37{fill:url(#linear-gradient-55);}.cls-38{fill:url(#linear-gradient-34);}.cls-39{fill:url(#linear-gradient-7);}.cls-40{fill:url(#New_Gradient_Swatch_1);}.cls-41{fill:url(#New_Gradient_Swatch_1-2);}.cls-42{fill:url(#linear-gradient-24);}.cls-43{fill:url(#linear-gradient-9);}.cls-44{fill:url(#linear-gradient-22);}.cls-45{fill:url(#linear-gradient-42);}.cls-46{fill:url(#linear-gradient-3);}.cls-47{fill:url(#linear-gradient-27);}.cls-48{fill:url(#linear-gradient-33);}.cls-49{fill:url(#linear-gradient-38);}.cls-50{fill:url(#linear-gradient-29);}.cls-51{fill:url(#linear-gradient-30);}.cls-52{fill:url(#New_Gradient_Swatch_1-4);}.cls-53{fill:url(#linear-gradient-23);}.cls-54{fill:url(#linear-gradient-19);}.cls-55{fill:url(#linear-gradient-4);}.cls-56{fill:url(#linear-gradient-8);}.cls-57{fill:url(#linear-gradient-44);}.cls-58{fill:url(#linear-gradient);opacity:.3;}.cls-59{fill:url(#linear-gradient-47);}.cls-60{fill:url(#linear-gradient-46);}.cls-61{fill:url(#linear-gradient-12);}.cls-62{fill:url(#linear-gradient-13);}.cls-63{fill:url(#linear-gradient-26);}</style><linearGradient id="linear-gradient" x1="3009.1" y1="3135.26" x2="1096.22" y2="1098.97" gradientTransform="matrix(1, 0, 0, 1, 0, 0)" gradientUnits="userSpaceOnUse"><stop offset="0" stop-color="#b37cff"/><stop offset="1" stop-color="#f895e7"/></linearGradient><linearGradient id="linear-gradient-2" x1="917.29" y1="-1320.6" x2="30.64" y2="1697.99" gradientTransform="translate(832.47 36.75) rotate(20.97)" xlink:href="#linear-gradient"/><linearGradient id="linear-gradient-3" x1="1347.82" y1="-1194.14" x2="461.17" y2="1824.44" gradientTransform="translate(832.47 36.75) rotate(20.97)" xlink:href="#linear-gradient"/><linearGradient id="linear-gradient-4" x1="1702.43" y1="-1089.99" x2="815.78" y2="1928.61" gradientTransform="translate(832.47 36.75) rotate(20.97)" xlink:href="#linear-gradient"/><linearGradient id="linear-gradient-5" x1="1413.13" y1="-1174.96" x2="526.48" y2="1843.64" gradientTransform="translate(832.47 36.75) rotate(20.97)" xlink:href="#linear-gradient"/><linearGradient id="linear-gradient-6" x1="970.31" y1="-1305.03" x2="83.66" y2="1713.56" gradientTransform="translate(832.47 36.75) rotate(20.97)" xlink:href="#linear-gradient"/><linearGradient id="linear-gradient-7" x1="417.02" y1="-54.99" x2="1874.73" y2="2516.75" gradientTransform="translate(832.47 36.75) rotate(20.97)" gradientUnits="userSpaceOnUse"><stop offset="0" stop-color="#ce1567"/><stop offset="1" stop-color="#7a1dbc"/></linearGradient><linearGradient id="linear-gradient-8" x1="120.19" y1="3404.63" x2="19.71" y2="5112.81" gradientTransform="translate(-519.68 4214.99) rotate(-135.11)" xlink:href="#linear-gradient"/><linearGradient id="linear-gradient-9" x1="322.56" y1="3416.52" x2="222.07" y2="5124.72" gradientTransform="translate(-519.68 4214.99) rotate(-135.11)" xlink:href="#linear-gradient"/><linearGradient id="linear-gradient-10" x1="600.38" y1="3432.85" x2="499.9" y2="5141.06" gradientTransform="translate(-519.68 4214.99) rotate(-135.11)" xlink:href="#linear-gradient"/><linearGradient id="linear-gradient-11" x1="285.23" y1="3414.34" x2="184.75" y2="5122.51" gradientTransform="translate(-519.68 4214.99) rotate(-135.11)" xlink:href="#linear-gradient"/><linearGradient id="linear-gradient-12" x1="8.82" y1="5143.62" x2="870.13" y2="3822.94" gradientTransform="translate(-519.68 4214.99) rotate(-135.11)" gradientUnits="userSpaceOnUse"><stop offset="0" stop-color="#a737d5"/><stop offset="1" stop-color="#ef497a"/></linearGradient><linearGradient id="linear-gradient-13" x1="-43.48" y1="141.13" x2="-154.04" y2="2020.6" gradientTransform="translate(678.92 83.42) rotate(16.64)" xlink:href="#linear-gradient"/><linearGradient id="linear-gradient-14" x1="179.18" y1="154.22" x2="68.62" y2="2033.7" gradientTransform="translate(678.92 83.42) rotate(16.64)" xlink:href="#linear-gradient"/><linearGradient id="linear-gradient-15" x1="484.86" y1="172.2" x2="374.3" y2="2051.68" gradientTransform="translate(678.92 83.42) rotate(16.64)" xlink:href="#linear-gradient"/><linearGradient id="linear-gradient-16" x1="138.11" y1="151.82" x2="27.55" y2="2031.28" gradientTransform="translate(678.92 83.42) rotate(16.64)" xlink:href="#linear-gradient"/><linearGradient id="linear-gradient-17" x1="684.49" y1="698.46" x2="113.83" y2="1651.16" gradientTransform="translate(678.92 83.42) rotate(16.64)" xlink:href="#linear-gradient-12"/><linearGradient id="linear-gradient-18" x1="2575.7" y1="258.48" x2="1065.75" y2="2956.7" gradientTransform="translate(-230.02 45.13) rotate(-5.1)" xlink:href="#linear-gradient"/><linearGradient id="linear-gradient-19" x1="2900.56" y1="440.24" x2="1390.57" y2="3138.53" gradientTransform="translate(-230.02 45.13) rotate(-5.1)" xlink:href="#linear-gradient"/><linearGradient id="linear-gradient-20" x1="3266.33" y1="644.95" x2="1756.35" y2="3343.21" gradientTransform="translate(-230.02 45.13) rotate(-5.1)" xlink:href="#linear-gradient"/><linearGradient id="linear-gradient-21" x1="3133.05" y1="570.39" x2="1623.09" y2="3268.61" gradientTransform="translate(-230.02 45.13) rotate(-5.1)" xlink:href="#linear-gradient"/><linearGradient id="linear-gradient-22" x1="2796.32" y1="381.89" x2="1286.33" y2="3080.17" gradientTransform="translate(-230.02 45.13) rotate(-5.1)" xlink:href="#linear-gradient"/><linearGradient id="linear-gradient-23" x1="1379.73" y1="2332.32" x2="2436.71" y2="1839.93" gradientTransform="translate(-230.02 45.13) rotate(-5.1)" xlink:href="#linear-gradient-7"/><linearGradient id="linear-gradient-24" x1="1811.9" y1="250.93" x2="1904.75" y2="483.83" gradientTransform="matrix(1, 0, 0, 1, 0, 0)" gradientUnits="userSpaceOnUse"><stop offset="0" stop-color="#2b3582"/><stop offset="1" stop-color="#150e42"/></linearGradient><linearGradient id="linear-gradient-25" x1="1268.83" y1="186.83" x2="1440.35" y2="577.08" gradientTransform="translate(404.8 66.69) rotate(5.69)" gradientUnits="userSpaceOnUse"><stop offset="0" stop-color="#f9b776"/><stop offset="1" stop-color="#f47960"/></linearGradient><linearGradient id="linear-gradient-26" x1="2575.27" y1="1057.86" x2="2023.99" y2="2037.55" gradientTransform="matrix(1, 0, 0, 1, 0, 0)" gradientUnits="userSpaceOnUse"><stop offset="0" stop-color="#53d8ff"/><stop offset="1" stop-color="#3840f7"/></linearGradient><linearGradient id="linear-gradient-27" x1="1818.63" y1="2052.42" x2="1931.93" y2="728.28" gradientTransform="matrix(1, 0, 0, 1, 0, 0)" xlink:href="#linear-gradient-25"/><linearGradient id="linear-gradient-28" x1="2324.56" y1="916.79" x2="1773.28" y2="1896.47" xlink:href="#linear-gradient-26"/><linearGradient id="linear-gradient-29" x1="2046.53" y1="2072.12" x2="2159.86" y2="747.64" gradientTransform="matrix(1, 0, 0, 1, 0, 0)" xlink:href="#linear-gradient-25"/><linearGradient id="linear-gradient-30" x1="1785.39" y1="571.2" x2="2176.35" y2="1928.71" gradientTransform="matrix(1, 0, 0, 1, 0, 0)" gradientUnits="userSpaceOnUse"><stop offset="0" stop-color="#fdf53f"/><stop offset="1" stop-color="#d93c65"/></linearGradient><linearGradient id="linear-gradient-31" x1="1993.7" y1="833.8" x2="1670.73" y2="1833.48" xlink:href="#linear-gradient-24"/><linearGradient id="linear-gradient-32" x1="1806.21" y1="747.22" x2="1827.49" y2="591.52" gradientTransform="matrix(1, 0, 0, 1, 0, 0)" xlink:href="#linear-gradient-25"/><linearGradient id="linear-gradient-33" x1="1752.49" y1="546.48" x2="1938.18" y2="216.02" gradientTransform="matrix(1, 0, 0, 1, 0, 0)" xlink:href="#linear-gradient-25"/><linearGradient id="linear-gradient-34" x1="1792.42" y1="258.7" x2="1885.27" y2="491.59" xlink:href="#linear-gradient-24"/><linearGradient id="linear-gradient-35" x1="1792.02" y1="568.69" x2="1977.71" y2="238.23" gradientTransform="matrix(1, 0, 0, 1, 0, 0)" xlink:href="#linear-gradient-25"/><linearGradient id="linear-gradient-36" x1="1222.7" y1="173.9" x2="1341.16" y2="443.44" xlink:href="#linear-gradient-25"/><linearGradient id="linear-gradient-37" x1="4569.36" y1="2223.74" x2="4838.99" y2="2223.74" gradientTransform="translate(5794.41 -2526.63) rotate(116.55)" xlink:href="#linear-gradient-25"/><linearGradient id="linear-gradient-38" x1="1570.18" y1="2615.06" x2="3353.71" y2="-95.11" xlink:href="#linear-gradient-24"/><linearGradient id="linear-gradient-39" x1="1762.27" y1="2741.47" x2="3545.8" y2="31.3" xlink:href="#linear-gradient-24"/><linearGradient id="linear-gradient-40" x1="2054.35" y1="2933.69" x2="3837.88" y2="223.51" xlink:href="#linear-gradient-24"/><linearGradient id="linear-gradient-41" x1="1830.46" y1="2786.35" x2="3613.99" y2="76.18" xlink:href="#linear-gradient-24"/><linearGradient id="linear-gradient-42" x1="1503.78" y1="2571.36" x2="3287.3" y2="-138.8" xlink:href="#linear-gradient-24"/><linearGradient id="linear-gradient-43" x1="1662.38" y1="2675.74" x2="3445.92" y2="-34.44" xlink:href="#linear-gradient-24"/><linearGradient id="linear-gradient-44" x1="1815.13" y1="2776.26" x2="3598.66" y2="66.09" xlink:href="#linear-gradient-24"/><linearGradient id="linear-gradient-45" x1="1965.68" y1="2875.34" x2="3749.21" y2="165.16" xlink:href="#linear-gradient-24"/><linearGradient id="linear-gradient-46" x1="2119.48" y1="2976.55" x2="3903" y2="266.39" xlink:href="#linear-gradient-24"/><linearGradient id="linear-gradient-47" x1="2270.96" y1="3076.23" x2="4054.49" y2="366.06" xlink:href="#linear-gradient-24"/><linearGradient id="New_Gradient_Swatch_1" x1="781.51" y1="2661.2" x2="765.46" y2="2779.57" gradientTransform="matrix(1, 0, 0, 1, 0, 0)" gradientUnits="userSpaceOnUse"><stop offset="0" stop-color="#2b3582"/><stop offset="1" stop-color="#150e42"/></linearGradient><linearGradient id="New_Gradient_Swatch_1-2" x1="775.45" y1="2750.54" x2="738.34" y2="2986.27" xlink:href="#New_Gradient_Swatch_1"/><linearGradient id="linear-gradient-48" x1="710.92" y1="2683.48" x2="774.63" y2="2683.48" gradientTransform="matrix(1, 0, 0, 1, 0, 0)" xlink:href="#linear-gradient-25"/><linearGradient id="New_Gradient_Swatch_1-3" x1="30.49" y1="2692.53" x2="-93.32" y2="2796.09" xlink:href="#New_Gradient_Swatch_1"/><linearGradient id="New_Gradient_Swatch_1-4" x1="1.17" y1="2669.83" x2="109.62" y2="2669.83" xlink:href="#New_Gradient_Swatch_1"/><linearGradient id="linear-gradient-49" x1="27.42" y1="2598.03" x2="98.25" y2="2598.03" gradientTransform="matrix(1, 0, 0, 1, 0, 0)" xlink:href="#linear-gradient-25"/><linearGradient id="New_Gradient_Swatch_1-5" x1="606.44" y1="2241.38" x2="95.73" y2="2694.41" xlink:href="#New_Gradient_Swatch_1"/><linearGradient id="New_Gradient_Swatch_1-6" x1="887.11" y1="2254.86" x2="577.99" y2="2529.06" xlink:href="#New_Gradient_Swatch_1"/><linearGradient id="linear-gradient-50" x1="938.49" y1="1902.83" x2="1043.64" y2="1847.66" gradientTransform="matrix(1, 0, 0, 1, 0, 0)" xlink:href="#linear-gradient-25"/><linearGradient id="linear-gradient-51" x1="1111.25" y1="1825.28" x2="1113.33" y2="2009.55" gradientTransform="matrix(1, 0, 0, 1, 0, 0)" xlink:href="#linear-gradient-25"/><linearGradient id="New_Gradient_Swatch_1-7" x1="5079.92" y1="5165.86" x2="5220.48" y2="5346.82" gradientTransform="translate(4383.58 -4734.93) rotate(70.65)" xlink:href="#New_Gradient_Swatch_1"/><linearGradient id="linear-gradient-52" x1="5169.72" y1="5234.45" x2="5014.5" y2="5353.22" gradientTransform="translate(4383.58 -4734.93) rotate(70.65)" xlink:href="#linear-gradient-25"/><linearGradient id="linear-gradient-53" x1="1633.95" y1="3787.39" x2="1820.45" y2="3787.39" gradientTransform="translate(3976.81 5043.54) rotate(-59.51) scale(.81 -1)" xlink:href="#linear-gradient-25"/><linearGradient id="linear-gradient-54" x1="1156.23" y1="1915.47" x2="341.11" y2="2599.87" xlink:href="#linear-gradient-26"/><linearGradient id="linear-gradient-55" x1="1247.19" y1="1447.11" x2="832.08" y2="2207.61" xlink:href="#linear-gradient-26"/></defs><g id="Illustration"><g><path class="cls-58" d="M2434.76,2318.31c-70.62,72.79-133.8,115.58-182.18,147.88-471.8,315.03-1011.13,224.23-1177.87,193.19-269.02-50.07-496.12-85.39-691.23-261.67C-59.87,1997.15-38.31,1161.57,300.47,643.96,340.64,582.58,678.9,81.17,1219.39,10.52c13.22-1.73,23.08-2.71,31.72-3.63,83.61-8.85,601.74-55.58,1024.23,298.38,60.48,50.67,157.8,142.06,248.05,281.44,330,509.66,331.04,1299-88.64,1731.59Z"/><g><g><path class="cls-1" d="M716.36,528.57c-7.5-2.87-11.77-11.01-9.65-18.93,4.64-17.34,10.1-34.73,16.23-51.69,2.98-8.25,12.09-12.53,20.34-9.54l.29,.11c8.06,3.09,12.2,12.08,9.25,20.23-5.83,16.12-11.01,32.64-15.42,49.11-2.27,8.48-10.98,13.51-19.46,11.24-.55-.14-1.08-.32-1.59-.52Zm50.48-128.88c-.58-.22-1.15-.48-1.72-.78-7.77-4.08-10.76-13.69-6.68-21.45,8.38-15.95,17.53-31.71,27.19-46.82,4.72-7.39,14.51-9.55,21.94-4.84,7.39,4.73,9.55,14.55,4.83,21.94-9.18,14.37-17.87,29.33-25.83,44.5-3.78,7.2-12.32,10.29-19.73,7.45Zm77.6-114.56c-1.65-.63-3.23-1.56-4.65-2.77-6.66-5.71-7.44-15.74-1.73-22.4,11.7-13.66,24.13-26.99,36.97-39.6,6.26-6.15,16.32-6.05,22.47,.19,6.15,6.26,6.06,16.32-.2,22.47-12.19,11.98-24,24.63-35.11,37.6-4.49,5.24-11.66,6.84-17.75,4.51Zm101.29-94.35c-2.73-1.05-5.2-2.86-7.07-5.38-5.22-7.05-3.73-17,3.32-22.22,14.47-10.71,29.57-20.92,44.89-30.34,7.47-4.59,17.25-2.26,21.86,5.21,4.6,7.47,2.27,17.26-5.21,21.86-14.55,8.95-28.9,18.65-42.64,28.83-4.53,3.35-10.25,3.93-15.15,2.06Zm119.78-69.39c-3.83-1.47-7.09-4.4-8.86-8.45-3.53-8.04,.13-17.41,8.17-20.93,16.44-7.21,33.43-13.82,50.48-19.64,8.3-2.84,17.33,1.59,20.17,9.9,2.83,8.3-1.6,17.33-9.91,20.17-16.21,5.53-32.35,11.81-47.97,18.66-3.99,1.75-8.3,1.73-12.07,.29Zm132.14-41.16c-4.96-1.9-8.85-6.24-9.93-11.83-1.66-8.62,3.98-16.95,12.59-18.61,17.66-3.4,35.68-6.09,53.57-7.98,8.73-.92,16.55,5.4,17.47,14.13,.92,8.72-5.4,16.55-14.13,17.47-17,1.8-34.12,4.35-50.9,7.59-3.02,.58-6,.27-8.68-.76Zm557.18,172.98c-2.05-.79-3.97-2.01-5.62-3.68-11.98-12.15-24.66-23.95-37.68-35.05-6.67-5.69-7.47-15.72-1.78-22.39,5.69-6.68,15.72-7.47,22.4-1.78,13.71,11.69,27.06,24.11,39.69,36.91,6.16,6.25,6.09,16.31-.16,22.47-4.58,4.52-11.21,5.69-16.85,3.53Zm-419.29-183.83c-6.15-2.36-10.43-8.42-10.19-15.38,.3-8.77,7.65-15.64,16.42-15.34,17.97,.61,36.14,2,54,4.15,8.7,1.09,14.93,8.96,13.88,17.67-1.05,8.71-8.96,14.92-17.68,13.88-16.96-2.04-34.21-3.37-51.27-3.95-1.81-.06-3.55-.42-5.15-1.04Zm311.62,96.87c-.98-.38-1.94-.85-2.86-1.43-14.41-9.17-29.41-17.83-44.57-25.77-7.78-4.07-10.78-13.67-6.72-21.44,4.07-7.77,13.68-10.82,21.44-6.72,15.96,8.35,31.74,17.46,46.9,27.11,7.4,4.71,9.59,14.53,4.88,21.93-4.12,6.48-12.17,8.96-19.07,6.32Zm-174.77-76.64c-7.49-2.87-11.76-10.99-9.65-18.91,2.25-8.48,10.95-13.53,19.44-11.28,17.36,4.61,34.76,10.04,51.71,16.13,.11,.03,.21,.08,.32,.12,8.05,3.08,12.19,12.05,9.26,20.2-2.97,8.26-12.07,12.55-20.32,9.58-16.1-5.78-32.62-10.93-49.12-15.31-.55-.15-1.1-.33-1.62-.53Z"/><path class="cls-46" d="M1825.65,339.41c-2.92-1.12-5.55-3.11-7.44-5.89-4.6-6.78-9.43-13.56-14.34-20.19-5.23-7.05-3.75-17,3.3-22.22,7.05-5.23,17.01-3.76,22.22,3.31,5.16,6.96,10.24,14.1,15.09,21.23,4.93,7.25,3.05,17.14-4.2,22.07-4.47,3.04-9.94,3.49-14.64,1.7Z"/></g><g><path class="cls-55" d="M1920.01,814.51c-7.16-2.74-11.47-10.35-9.85-18.1,1.69-8.01,3.23-16.2,4.59-24.33,1.45-8.66,9.64-14.5,18.29-13.05,8.69,1.46,14.5,9.64,13.05,18.29-1.43,8.56-3.06,17.18-4.83,25.62-1.8,8.59-10.23,14.08-18.82,12.28-.84-.18-1.66-.42-2.44-.72Z"/><path class="cls-34" d="M1093.53,1265.81c-6.83-2.62-13.63-5.36-20.42-8.22-8.08-3.42-11.87-12.74-8.46-20.82,3.41-8.08,12.78-11.88,20.82-8.46,15.67,6.61,31.56,12.58,47.44,17.78,8.34,2.75,12.88,11.71,10.15,20.04-2.74,8.34-11.71,12.89-20.05,10.15-9.82-3.22-19.74-6.74-29.48-10.48Zm-95.28-46.06c-.83-.32-1.64-.71-2.44-1.18-15.25-9.04-30.28-18.83-44.68-29.09-7.14-5.09-8.81-15.01-3.72-22.15,5.09-7.15,15.04-8.83,22.16-3.72,13.68,9.75,27.96,19.04,42.45,27.64,7.55,4.47,10.04,14.22,5.56,21.76-4.01,6.76-12.24,9.46-19.33,6.74Zm205.82,77.02c-6.99-2.68-11.32-10.03-9.93-17.67,1.57-8.64,9.84-14.36,18.48-12.79,16.51,3,33.38,5.34,50.14,6.94,8.73,.85,15.14,8.59,14.31,17.33-.84,8.74-8.59,15.14-17.33,14.31-17.65-1.68-35.41-4.15-52.8-7.31-.99-.18-1.95-.45-2.86-.8Zm-314.64-158.98c-1.88-.72-3.66-1.82-5.21-3.29-12.88-12.16-25.39-25.01-37.19-38.21-5.85-6.54-5.29-16.58,1.25-22.43,6.54-5.85,16.58-5.3,22.43,1.25,11.2,12.53,23.08,24.74,35.32,36.28,6.38,6.02,6.67,16.08,.65,22.46-4.55,4.82-11.41,6.17-17.24,3.93Zm450.44,168.35c-5.74-2.2-9.92-7.64-10.19-14.17-.37-8.77,6.44-16.17,15.21-16.54,16.76-.7,33.73-2.14,50.44-4.25,8.7-1.1,16.66,5.05,17.76,13.76,1.1,8.7-5.06,16.65-13.76,17.76-17.59,2.23-35.45,3.74-53.1,4.48-2.23,.09-4.38-.28-6.35-1.03Zm134.57-20.66c-4.59-1.76-8.3-5.61-9.67-10.72-2.28-8.48,2.75-17.19,11.22-19.47,16.25-4.37,32.51-9.47,48.32-15.16,8.25-2.99,17.35,1.29,20.33,9.56,2.97,8.26-1.31,17.36-9.56,20.33-16.64,5.99-33.74,11.36-50.85,15.95-3.36,.9-6.77,.66-9.79-.5Zm126.86-49.51c-3.49-1.34-6.52-3.9-8.39-7.47-4.07-7.77-1.06-17.37,6.72-21.44,14.93-7.81,29.68-16.32,43.87-25.32,7.41-4.7,17.22-2.51,21.93,4.91,4.7,7.41,2.51,17.22-4.91,21.93-14.93,9.47-30.46,18.44-46.16,26.65-4.2,2.2-8.94,2.33-13.05,.75Zm113.04-75.99c-2.42-.93-4.64-2.46-6.43-4.57-5.67-6.7-4.83-16.72,1.87-22.39,12.85-10.87,25.38-22.42,37.24-34.31,6.2-6.21,16.26-6.22,22.47-.04,6.22,6.2,6.23,16.26,.03,22.47-12.49,12.53-25.69,24.69-39.22,36.13-4.59,3.88-10.73,4.71-15.96,2.7Zm93.64-98.99c-1.36-.52-2.67-1.24-3.89-2.16-7-5.28-8.4-15.25-3.12-22.25,10.11-13.41,19.78-27.42,28.75-41.66,4.68-7.43,14.51-9.64,21.91-4.98,7.43,4.67,9.65,14.49,4.98,21.91-9.44,14.99-19.62,29.75-30.27,43.86-4.36,5.78-11.92,7.75-18.37,5.28Zm69.55-117.06c-.3-.12-.61-.25-.91-.38-7.99-3.63-11.52-13.05-7.88-21.04,5.13-11.27,9.97-22.84,14.39-34.38,1.6-4.18,3.15-8.37,4.65-12.56,2.96-8.26,12.06-12.56,20.32-9.59,8.42,2.83,12.55,12.06,9.6,20.31-1.58,4.41-3.21,8.81-4.9,13.21-4.65,12.14-9.75,24.31-15.14,36.17-3.49,7.69-12.35,11.25-20.13,8.26Z"/><path class="cls-13" d="M801.12,1033.55c-2.95-1.13-5.59-3.15-7.49-5.96-4.8-7.14-9.54-14.51-14.09-21.91-4.6-7.48-2.26-17.26,5.22-21.85,7.48-4.59,17.26-2.27,21.85,5.22,4.32,7.03,8.83,14.04,13.38,20.81,4.9,7.27,2.97,17.15-4.31,22.05-4.46,3-9.9,3.44-14.57,1.65Z"/></g><g><path class="cls-39" d="M887.07,869.14c.99,3.01,3.78,5.06,6.95,5.1l90.37,1.22c22.01,36.01,49.92,68.77,83.23,96.65l-12.14,89.5c-.43,3.14,1.19,6.2,4.02,7.63l96.8,48.79c2.83,1.43,6.25,.9,8.52-1.31l64.72-63c42.22,10.19,85.16,13.14,127.2,9.41l54.74,71.92c1.92,2.52,5.22,3.55,8.23,2.55l102.95-33.95c3.01-.99,5.06-3.78,5.1-6.95l1.22-90.37c36.01-22.01,68.77-49.92,96.65-83.23l89.5,12.14c3.14,.43,6.2-1.19,7.63-4.02l48.79-96.81c1.43-2.83,.9-6.25-1.31-8.52l-63-64.72c10.19-42.22,13.14-85.16,9.41-127.2l71.92-54.74c2.52-1.92,3.55-5.23,2.55-8.23l-33.95-102.95c-.99-3.01-3.78-5.06-6.95-5.1l-90.37-1.22c-22.01-36.01-49.92-68.78-83.23-96.65l12.14-89.5c.43-3.14-1.19-6.2-4.02-7.63l-96.81-48.79c-2.83-1.43-6.25-.9-8.52,1.31l-64.72,63c-42.22-10.19-85.16-13.14-127.2-9.41l-54.74-71.91c-1.92-2.52-5.23-3.55-8.23-2.56l-102.95,33.95c-3.01,.99-5.06,3.78-5.1,6.95l-1.22,90.37c-36.01,22.01-68.77,49.92-96.65,83.23l-89.5-12.14c-3.14-.43-6.2,1.19-7.63,4.02l-48.79,96.8c-1.43,2.83-.9,6.25,1.31,8.52l63,64.72c-10.19,42.22-13.14,85.16-9.41,127.2l-71.91,54.74c-2.52,1.92-3.55,5.22-2.56,8.23l33.95,102.95Z"/><path class="cls-15" d="M1283.07,770.34c-49.6-19.01-79.2-72.12-67.29-125.47,13.09-58.65,71.44-95.7,130.09-82.62,28.41,6.33,52.65,23.36,68.25,47.93,15.61,24.57,20.71,53.75,14.37,82.15-13.09,58.65-71.44,95.7-130.09,82.62-5.29-1.18-10.41-2.73-15.32-4.61Zm69.12-179.7c-3.83-1.47-7.79-2.66-11.87-3.58-44.96-10.04-89.7,18.38-99.74,63.34-10.03,44.96,18.37,89.72,63.34,99.74,44.96,10.04,89.7-18.38,99.74-63.34,4.86-21.78,.95-44.15-11.01-62.99-9.73-15.31-23.83-26.8-40.46-33.18Z"/><path class="cls-15" d="M1228.84,918.1c-8.52-3.26-16.92-6.98-25.18-11.14h0c-2.6-1.31-5.18-2.66-7.73-4.05-12.6-6.87-24.64-14.73-35.93-23.46-.15-.12-.31-.24-.46-.36-.43-.34-.87-.68-1.3-1.02-.85-.66-1.68-1.34-2.52-2.01-2.2-1.77-2.9-4.71-1.95-7.21,.23-.61,.57-1.19,1-1.73,2.2-2.73,6.2-3.15,8.93-.95,14.05,11.35,29.42,21.25,45.68,29.44,80.76,40.72,173.11,34.32,245.62-8.8,40.33-23.98,74.52-59.32,97.16-104.24,3.97-7.88,7.52-15.9,10.63-24.02,20.95-54.69,22.44-114.41,3.85-170.78-21.35-64.74-66.63-117.3-127.51-147.98-125.73-63.36-279.45-12.63-342.79,113.04-3.91,7.75-7.4,15.67-10.49,23.72-13.36,34.88-18.94,72.3-16.2,109.59,.07,.96-.08,1.89-.4,2.74-.85,2.23-2.93,3.88-5.47,4.06-3.5,.25-6.55-2.36-6.8-5.88-2.87-39.15,2.98-78.44,17.01-115.06,3.23-8.45,6.91-16.76,11-24.89,66.5-131.94,227.97-185.14,359.86-118.67,63.91,32.21,111.45,87.38,133.86,155.35,19.52,59.17,17.95,121.87-4.04,179.28-3.27,8.53-6.99,16.95-11.15,25.21-32.22,63.91-87.39,111.45-155.35,133.87-59.18,19.52-121.9,17.94-179.32-4.06Z"/></g></g><g><g><path class="cls-56" d="M2699.48,908.56c2.89,2.88,3.67,7.41,1.62,11.18-3.82,7.03-7.91,14.04-12.15,20.83-2.76,4.41-8.56,5.76-12.99,3.01-4.43-2.74-5.76-8.57-3.01-12.99,4.04-6.47,7.94-13.16,11.59-19.86,2.48-4.57,8.21-6.26,12.78-3.78,.81,.44,1.53,.99,2.15,1.61Z"/><path class="cls-43" d="M2659.14,968.81c3.38,3.37,3.73,8.83,.66,12.61-8.68,10.7-18.02,21.07-27.74,30.83-2.05,2.05-4.12,4.09-6.22,6.12-3.76,3.61-9.78,3.16-13.33-.25-3.61-3.75-3.49-9.72,.25-13.33,2.01-1.93,4-3.88,5.95-5.84,9.27-9.31,18.17-19.2,26.46-29.4,3.28-4.05,9.21-4.66,13.26-1.38,.25,.21,.49,.43,.72,.65Zm-70.53,67.86c.32,.31,.62,.66,.89,1.02,3.13,4.17,2.29,10.08-1.88,13.2-13.35,10.04-27.45,19.33-41.88,27.62-4.52,2.6-10.28,1.01-12.87-3.48-2.59-4.52-1.04-10.27,3.48-12.87,13.77-7.91,27.22-16.78,39.95-26.35,3.79-2.85,9.04-2.41,12.3,.85Zm-84.88,48.73c.85,.84,1.55,1.87,2.04,3.03,2.01,4.8-.25,10.32-5.05,12.34-15.38,6.44-31.34,12-47.42,16.49-5.02,1.41-10.21-1.51-11.61-6.54-1.4-5.01,1.53-10.21,6.54-11.61,15.34-4.29,30.55-9.58,45.21-15.72,3.63-1.52,7.67-.59,10.3,2.02Zm-94.26,26.37c1.38,1.38,2.35,3.19,2.67,5.27,.77,5.15-2.78,9.95-7.92,10.73-16.52,2.48-33.34,3.96-50,4.38-5.2,.13-9.52-3.99-9.66-9.18-.14-5.2,3.97-9.53,9.18-9.67,15.87-.4,31.92-1.81,47.67-4.18,3.07-.46,6.02,.61,8.06,2.65Zm-97.84,2.55c1.93,1.92,3.02,4.67,2.73,7.59-.5,5.18-5.11,8.97-10.29,8.47-16.61-1.62-33.27-4.27-49.53-7.89-5.09-1.12-8.29-6.17-7.15-11.25,1.13-5.08,6.17-8.29,11.25-7.15,15.52,3.45,31.41,5.99,47.26,7.52,2.26,.22,4.25,1.22,5.74,2.7Zm-95.48-21.27c2.5,2.49,3.49,6.3,2.23,9.85-1.75,4.9-7.14,7.46-12.04,5.71-15.72-5.6-31.23-12.24-46.11-19.73-4.65-2.36-6.52-8.01-4.18-12.66,2.34-4.65,8.01-6.52,12.66-4.18,14.19,7.14,28.97,13.47,43.96,18.81,1.36,.48,2.53,1.25,3.49,2.2Zm-87.36-43.96c3.13,3.12,3.72,8.11,1.17,11.91-2.9,4.32-8.75,5.48-13.08,2.59-13.82-9.26-27.23-19.5-39.88-30.45-3.89-3.48-4.36-9.37-.95-13.3,3.41-3.93,9.36-4.36,13.3-.96,12.06,10.45,24.85,20.23,38.03,29.05,.52,.35,.99,.74,1.41,1.16Zm-104.52-102.44c.38,.38,.75,.81,1.07,1.27,7.89,11.25,16.53,22.27,25.7,32.75,1.38,1.59,2.75,3.14,4.14,4.67,3.49,3.87,3.19,9.82-.67,13.31-3.86,3.51-9.96,3.28-13.32-.66-1.47-1.64-2.94-3.28-4.38-4.95-9.57-10.95-18.63-22.5-26.9-34.3-2.99-4.26-1.96-10.14,2.31-13.13,3.8-2.66,8.88-2.14,12.06,1.03Z"/></g><g><path class="cls-24" d="M2626.77,432.89c3.65,3.63,3.7,9.54,.11,13.24-3.62,3.73-9.59,3.83-13.33,.2-11.24-10.92-23.25-21.24-35.69-30.68-4.09-3.17-4.96-9.06-1.81-13.21,3.15-4.15,9.06-4.95,13.21-1.81,13.04,9.91,25.63,20.73,37.41,32.17l.09,.09Zm32.52,35.61c.24,.24,.47,.49,.68,.76,10.32,12.75,19.98,26.27,28.69,40.16,2.76,4.41,1.43,10.23-2.98,12.99-4.41,2.77-10.24,1.41-13-2.97-8.31-13.26-17.52-26.15-27.37-38.33-3.28-4.04-2.65-9.98,1.4-13.25,3.79-3.06,9.21-2.72,12.57,.64Zm-109.18-93.8c2.96,2.95,3.69,7.63,1.49,11.41-2.61,4.49-8.38,6.02-12.88,3.41-13.56-7.87-27.71-14.99-42.07-21.15-4.78-2.08-7-7.6-4.94-12.38,2.05-4.78,7.6-7,12.38-4.95,15.05,6.46,29.88,13.92,44.09,22.18,.72,.42,1.36,.92,1.92,1.47Zm160.29,175.41c.76,.76,1.4,1.66,1.89,2.68,6.96,14.87,13.07,30.33,18.15,45.93,1.62,4.95-1.09,10.27-6.04,11.89-4.94,1.6-10.26-1.1-11.88-6.04-4.85-14.88-10.67-29.61-17.31-43.79-2.2-4.71-.17-10.33,4.55-12.53,3.68-1.72,7.92-.85,10.65,1.86Zm-248.74-213.34c2.36,2.36,3.4,5.9,2.4,9.32-1.46,5-6.69,7.87-11.69,6.42-15.01-4.38-30.45-7.89-45.9-10.41-5.15-.84-8.62-5.69-7.78-10.83,.84-5.14,5.69-8.62,10.83-7.78,16.19,2.66,32.38,6.33,48.13,10.92,1.57,.46,2.93,1.29,4.01,2.37Zm-94.97-15.6c1.81,1.8,2.88,4.33,2.77,7.07-.22,5.2-4.61,9.24-9.81,9.03-15.67-.65-31.51-.36-47.08,.86-5.2,.41-9.73-3.47-10.14-8.66-.41-5.19,3.46-9.72,8.65-10.13,16.33-1.29,32.94-1.59,49.35-.91,2.45,.1,4.65,1.13,6.26,2.74Zm-95.98,7.6c1.27,1.27,2.2,2.91,2.58,4.8,1.04,5.1-2.26,10.08-7.37,11.11-15.37,3.1-30.67,7.19-45.5,12.13-4.93,1.64-10.28-1.03-11.92-5.96-1.65-4.94,1.02-10.28,5.96-11.92,15.54-5.18,31.6-9.46,47.71-12.73,3.21-.65,6.37,.42,8.53,2.57Z"/><path class="cls-21" d="M2740.37,642.09c1.29,1.28,2.22,2.95,2.59,4.87,1.54,7.92,2.86,15.92,3.91,23.78,.69,5.16-2.93,9.91-8.09,10.6-5.15,.68-9.9-2.93-10.6-8.09-1-7.5-2.26-15.13-3.73-22.69-1-5.11,2.34-10.06,7.45-11.05,3.19-.62,6.32,.45,8.46,2.58Z"/></g><g><path class="cls-61" d="M2648.87,722.82c.2-2.03-.9-3.96-2.75-4.81l-52.78-24.28c-3.54-26.9-11.4-53.42-23.7-78.49l30.46-49.42c1.07-1.73,.92-3.95-.37-5.53l-44.15-53.91c-1.29-1.58-3.44-2.16-5.35-1.45l-54.45,20.14c-22.15-16.99-46.61-29.92-72.28-38.69l-13.41-56.52c-.47-1.98-2.15-3.45-4.17-3.65l-69.34-6.89c-2.03-.2-3.96,.91-4.81,2.76l-24.28,52.77c-26.9,3.54-53.42,11.4-78.49,23.7l-49.42-30.47c-1.73-1.07-3.95-.92-5.53,.37l-53.91,44.16c-1.58,1.29-2.16,3.44-1.45,5.35l20.14,54.45c-16.99,22.15-29.92,46.61-38.69,72.28l-56.52,13.41c-1.98,.47-3.45,2.15-3.65,4.17l-6.89,69.34c-.2,2.03,.91,3.96,2.75,4.81l52.78,24.28c3.54,26.9,11.4,53.42,23.7,78.49l-30.47,49.42c-1.07,1.73-.92,3.95,.37,5.53l44.16,53.91c1.29,1.58,3.44,2.16,5.35,1.45l54.45-20.14c22.15,16.99,46.61,29.92,72.28,38.69l13.41,56.52c.47,1.98,2.15,3.45,4.17,3.65l69.34,6.89c2.03,.2,3.96-.9,4.81-2.75l24.28-52.77c26.9-3.54,53.42-11.4,78.49-23.7l49.42,30.47c1.73,1.07,3.95,.92,5.53-.37l53.9-44.15c1.58-1.29,2.16-3.44,1.45-5.35l-20.14-54.45c16.99-22.15,29.92-46.61,38.69-72.28l56.52-13.41c1.98-.47,3.45-2.15,3.65-4.17l6.89-69.34Z"/><path class="cls-15" d="M2391.42,676.81c10.77,10.73,17.8,24.58,20.08,39.89,2.81,18.84-1.88,37.64-13.22,52.95-23.38,31.59-68.11,38.27-99.72,14.89-31.6-23.48-38.28-68.14-14.89-99.73,11.33-15.31,27.95-25.29,46.78-28.1,18.84-2.81,37.64,1.88,52.95,13.22,2.86,2.12,5.54,4.43,8.01,6.89Zm-87.48,87.55c1.8,1.79,3.74,3.47,5.84,5.02,23.25,17.2,56.15,12.29,73.36-10.96,8.33-11.26,11.79-25.09,9.72-38.94-2.07-13.86-9.42-26.07-20.67-34.42h0c-11.26-8.33-25.09-11.79-38.94-9.72-13.86,2.07-26.08,9.41-34.42,20.67-15.65,21.14-13,50.29,5.12,68.34Z"/><path class="cls-15" d="M2464.73,601.3c4.23,4.21,8.27,8.67,12.13,13.37,7.66,9.35,14.38,19.49,19.98,30.16,.25,.48,.5,.96,.74,1.44,1.91,3.73,1.11,8.13-1.7,10.95-.68,.68-1.48,1.28-2.39,1.74-4.63,2.38-10.3,.53-12.68-4.09-5.13-10.01-11.37-19.52-18.54-28.25h0c-.39-.48-.79-.96-1.19-1.43-17.14-20.52-38.75-35.99-62.97-45.57-13.15-5.2-27.08-8.66-41.49-10.22-.12-.01-.23-.03-.35-.04-.36-.03-.72-.08-1.07-.11-42.19-4.19-83.48,8.29-116.27,35.15-4.25,3.47-8.28,7.14-12.1,10.97-25.7,25.8-41.61,59.38-45.26,96.11-4.19,42.19,8.3,83.48,35.16,116.27,26.86,32.76,64.89,53.16,107.07,57.37,42.18,4.19,83.48-8.29,116.27-35.15,4.18-3.41,8.16-7.04,11.94-10.83,16.4-16.46,29-36.32,36.85-58.21,.49-1.35,1.24-2.52,2.19-3.47,2.49-2.5,6.31-3.5,9.86-2.22,4.89,1.77,7.45,7.15,5.69,12.06-8.78,24.49-22.89,46.71-41.22,65.13-4.24,4.25-8.69,8.3-13.36,12.12-36.7,30.06-82.89,44.02-130.09,39.33-47.19-4.7-89.74-27.44-119.79-64.17-30.06-36.69-44.03-82.88-39.33-130.09,4.08-41.09,21.88-78.65,50.64-107.52,4.27-4.28,8.78-8.39,13.53-12.27,71.04-58.18,174.05-52,237.75,11.47Z"/></g></g><g><g><path class="cls-62" d="M145.17,1460.43c-4.3-1.28-7.42-5.27-7.4-9.99,.04-8.8,.35-17.73,.92-26.52,.37-5.71,5.3-10.04,11.02-9.68,5.73,.35,10.05,5.31,9.68,11.02-.54,8.38-.84,16.88-.88,25.29-.02,5.72-4.69,10.34-10.42,10.32-1.02,0-2-.16-2.92-.44Z"/><path class="cls-10" d="M152.88,1381.03c-5.04-1.5-8.21-6.61-7.21-11.88,2.84-14.89,6.48-29.81,10.82-44.32,.91-3.06,1.86-6.11,2.85-9.17,1.76-5.46,7.83-8.16,13.05-6.7,5.45,1.76,8.45,7.6,6.7,13.05-.94,2.92-1.85,5.84-2.72,8.76-4.14,13.85-7.61,28.07-10.33,42.27-1.07,5.63-6.5,9.31-12.13,8.25-.35-.07-.7-.16-1.03-.26Zm33.01-102.5c-.47-.14-.94-.31-1.4-.52-5.2-2.41-7.46-8.57-5.06-13.77,7.71-16.68,16.53-33.03,26.2-48.58,3.02-4.87,9.44-6.33,14.28-3.33,4.87,3.03,6.36,9.41,3.33,14.28-9.23,14.84-17.64,30.44-24.99,46.34-2.19,4.74-7.5,7.04-12.37,5.59Zm56.88-91.43c-1.26-.38-2.47-1-3.56-1.88-4.45-3.6-5.13-10.14-1.53-14.59,11.55-14.25,24.12-27.95,37.37-40.68,4.13-3.98,10.68-3.85,14.66,.29,3.97,4.12,3.84,10.69-.28,14.66-12.63,12.14-24.61,25.19-35.63,38.79-2.73,3.36-7.13,4.57-11.03,3.41Zm77.62-74.66c-2.06-.61-3.94-1.87-5.33-3.72-3.43-4.59-2.49-11.09,2.09-14.52,14.72-11.01,30.25-21.2,46.17-30.29,4.98-2.84,11.31-1.09,14.14,3.87,2.84,4.97,1.11,11.3-3.86,14.15-15.17,8.66-29.99,18.38-44.02,28.88-2.74,2.05-6.15,2.54-9.19,1.63Zm93.49-53.43c-2.87-.86-5.35-2.95-6.6-5.94-2.21-5.28,.28-11.35,5.56-13.57,16.94-7.08,34.47-13.2,52.11-18.16,5.52-1.56,11.24,1.66,12.79,7.17,1.55,5.52-1.66,11.25-7.17,12.79-16.84,4.74-33.56,10.56-49.72,17.33-2.3,.96-4.75,1.03-6.97,.37Zm103.61-29.12c-3.72-1.11-6.66-4.29-7.29-8.38-.86-5.66,3.03-10.94,8.69-11.81,18.15-2.76,36.64-4.41,54.96-4.9,5.74-.13,10.49,4.37,10.65,10.09,.16,5.72-4.37,10.49-10.09,10.64-17.47,.47-35.09,2.04-52.4,4.67-1.57,.24-3.1,.11-4.53-.32Zm107.56-2.9c-4.66-1.39-7.83-5.92-7.34-10.94,.56-5.7,5.63-9.87,11.33-9.32,18.21,1.77,36.55,4.72,54.51,8.74,5.58,1.35,9.11,6.81,7.85,12.4-1.25,5.59-6.8,9.1-12.39,7.85-17.13-3.85-34.62-6.66-51.98-8.35-.68-.07-1.34-.2-1.97-.39Zm154.65,44.84c-.57-.17-1.15-.4-1.7-.68-13.51-6.8-27.62-12.97-41.96-18.35-2.17-.83-4.31-1.61-6.45-2.37-5.4-1.93-8.21-7.86-6.29-13.25,1.92-5.41,7.94-8.37,13.25-6.29,2.28,.82,4.56,1.65,6.83,2.52,14.98,5.63,29.78,12.1,43.94,19.23,5.12,2.58,7.18,8.8,4.6,13.92-2.29,4.56-7.49,6.69-12.22,5.28Z"/></g><g><path class="cls-5" d="M463.4,1883.55c-5.42-1.62-8.55-7.31-7-12.78,1.57-5.5,7.31-8.7,12.81-7.13,16.58,4.72,33.6,8.47,50.57,11.15,5.61,.94,9.53,6.2,8.63,11.86-.89,5.66-6.21,9.52-11.86,8.63-17.79-2.81-35.63-6.74-53.02-11.69l-.14-.04Zm-50.06-17.57c-.36-.11-.71-.23-1.06-.38-16.65-6.98-33.04-15.05-48.72-23.98-4.98-2.84-6.72-9.16-3.88-14.14,2.83-4.99,9.19-6.69,14.14-3.89,14.96,8.52,30.61,16.22,46.49,22.89,5.28,2.21,7.76,8.29,5.55,13.57-2.07,4.94-7.51,7.43-12.52,5.93Zm154.67,34.03c-4.41-1.32-7.55-5.47-7.39-10.28,.19-5.71,4.98-10.2,10.71-10.01,17.25,.57,34.66,.09,51.78-1.42,5.72-.48,10.74,3.72,11.24,9.43,.51,5.7-3.72,10.74-9.42,11.24-17.95,1.58-36.21,2.08-54.28,1.47-.92-.03-1.8-.18-2.63-.43Zm-246.71-86.5c-1.13-.34-2.22-.87-3.23-1.62-14.49-10.79-28.46-22.58-41.51-35.06-4.14-3.96-4.29-10.52-.34-14.67,3.95-4.13,10.52-4.28,14.66-.33,12.45,11.89,25.77,23.13,39.58,33.42,4.59,3.42,5.54,9.92,2.12,14.51-2.67,3.59-7.23,4.95-11.29,3.74Zm352.19,77.19c-3.52-1.05-6.37-3.94-7.18-7.78-1.19-5.61,2.38-11.11,7.98-12.31,16.83-3.57,33.62-8.22,49.91-13.82,5.43-1.87,11.32,1.03,13.18,6.44,1.86,5.42-1.03,11.32-6.44,13.18-17.08,5.86-34.68,10.73-52.33,14.49-1.76,.37-3.51,.27-5.12-.21Zm100.16-34.35c-2.69-.8-5.05-2.69-6.37-5.41-2.5-5.15-.35-11.36,4.81-13.86,15.52-7.53,30.73-16.06,45.18-25.36,4.82-3.1,11.24-1.7,14.33,3.11,3.1,4.82,1.71,11.23-3.11,14.32-15.15,9.75-31.09,18.7-47.36,26.59-2.43,1.18-5.09,1.32-7.49,.61Zm89.06-57.36c-1.89-.57-3.64-1.67-5-3.31-3.66-4.4-3.06-10.94,1.35-14.61,13.27-11.01,25.98-22.94,37.77-35.45,3.93-4.15,10.49-4.36,14.66-.43,4.17,3.93,4.36,10.49,.43,14.66-12.36,13.11-25.69,25.63-39.61,37.19-2.78,2.3-6.39,2.91-9.6,1.95Z"/><path class="cls-28" d="M244.35,1739.98c-1.92-.57-3.69-1.7-5.05-3.37-5.62-6.87-11.06-13.94-16.18-21.01-3.35-4.64-2.32-11.13,2.32-14.49,4.64-3.34,11.12-2.31,14.49,2.32,4.88,6.74,10.07,13.48,15.43,20.04,3.63,4.43,2.97,10.97-1.46,14.59-2.77,2.26-6.36,2.86-9.54,1.91Z"/></g><g><path class="cls-3" d="M290.96,1614.08c.86,2.07,2.94,3.36,5.17,3.22l63.79-3.96c17.44,24.22,38.87,45.83,63.85,63.72l-3.78,63.76c-.13,2.24,1.17,4.31,3.24,5.17l70.87,29.24c2.07,.85,4.46,.3,5.94-1.38l42.28-47.88c30.32,4.93,60.76,4.72,90.2-.16l42.44,47.79c1.49,1.67,3.87,2.22,5.94,1.36l70.79-29.44c2.07-.86,3.36-2.94,3.22-5.17l-3.96-63.79c24.22-17.44,45.83-38.88,63.72-63.85l63.76,3.78c2.24,.13,4.31-1.17,5.17-3.24l29.24-70.87c.86-2.07,.3-4.46-1.38-5.94l-47.88-42.28c4.93-30.32,4.72-60.76-.16-90.2l47.79-42.44c1.67-1.49,2.22-3.87,1.36-5.94l-29.44-70.79c-.86-2.07-2.94-3.36-5.17-3.22l-63.79,3.96c-17.44-24.22-38.87-45.83-63.85-63.72l3.78-63.76c.13-2.24-1.17-4.31-3.24-5.17l-70.87-29.24c-2.07-.85-4.45-.3-5.94,1.38l-42.28,47.88c-30.32-4.93-60.76-4.72-90.2,.15l-42.44-47.79c-1.49-1.68-3.88-2.22-5.94-1.36l-70.79,29.44c-2.07,.86-3.36,2.94-3.23,5.17l3.96,63.79c-24.22,17.44-45.83,38.88-63.72,63.85l-63.76-3.78c-2.23-.13-4.31,1.17-5.16,3.24l-29.24,70.87c-.85,2.07-.3,4.46,1.38,5.94l47.88,42.28c-4.93,30.32-4.72,60.75,.15,90.2l-47.79,42.44c-1.68,1.49-2.22,3.87-1.36,5.94l29.44,70.79Z"/><path class="cls-15" d="M564.44,1524.57c-16.03-4.79-30.05-14.55-40.24-28.2-12.53-16.79-17.78-37.46-14.77-58.19,6.2-42.79,46.08-72.57,88.89-66.37,42.85,6.29,72.58,46.1,66.37,88.9-3.01,20.74-13.91,39.07-30.7,51.6-16.79,12.54-37.46,17.79-58.2,14.77-3.87-.57-7.67-1.4-11.35-2.51Zm39.18-130.41c-2.67-.8-5.43-1.41-8.28-1.83-31.49-4.56-60.82,17.34-65.39,48.83-2.21,15.25,1.64,30.46,10.87,42.8,9.23,12.35,22.71,20.36,37.96,22.59h0c15.25,2.21,30.46-1.65,42.81-10.87,12.35-9.23,20.37-22.7,22.59-37.96,4.15-28.64-13.6-55.51-40.55-63.56Z"/><path class="cls-15" d="M532.71,1635.93c-6.29-1.88-12.53-4.09-18.72-6.64-12.3-5.07-24.09-11.39-35.08-18.82-.49-.34-.98-.67-1.47-1.01-3.8-2.61-5.31-7.3-4.06-11.5,.3-1.02,.77-2.01,1.41-2.93,3.25-4.72,9.7-5.87,14.42-2.65,10.19,7.03,21.19,12.99,32.68,17.73h0c.63,.26,1.27,.52,1.9,.77,27.3,10.96,56.3,14.7,84.76,11.36,15.45-1.81,30.75-5.72,45.54-11.71,.12-.05,.24-.1,.36-.15,.37-.15,.73-.3,1.1-.45,43.07-17.91,76.58-51.52,94.37-94.63,2.31-5.58,4.31-11.23,6.01-16.93,11.47-38.39,9.4-79.22-6.19-116.72-17.91-43.07-51.52-76.58-94.63-94.36-43.09-17.76-90.58-17.72-133.65,.18-43.07,17.91-76.58,51.52-94.37,94.63-2.27,5.48-4.24,11.07-5.93,16.72-7.31,24.49-9.19,50.31-5.39,75.6,.23,1.56,.11,3.09-.32,4.5-1.11,3.73-4.29,6.68-8.4,7.29-5.67,.83-10.94-3.05-11.79-8.73-4.24-28.31-2.15-57.19,6.03-84.59,1.89-6.33,4.1-12.57,6.63-18.71,19.91-48.24,57.4-85.84,105.59-105.88,48.18-20.03,101.27-20.15,149.52-.2,48.24,19.9,85.84,57.39,105.87,105.58,17.45,41.95,19.76,87.62,6.93,130.57-1.91,6.38-4.14,12.7-6.72,18.94-38.54,93.39-141.59,141.05-236.39,112.72Z"/></g></g><g><g><path class="cls-6" d="M1286.92,2077.76c-7.8,.7-15.02-4.6-16.56-12.45-3.36-17.17-6.03-34.74-7.93-52.22-.92-8.51,5.22-16.15,13.72-17.07,.1,0,.2-.02,.3-.03,8.38-.75,15.86,5.35,16.77,13.75,1.8,16.61,4.33,33.3,7.53,49.61,1.65,8.39-3.83,16.53-12.22,18.18-.54,.11-1.08,.18-1.62,.23Zm-11-134.47c-.6,.05-1.22,.07-1.84,.06-8.55-.25-15.28-7.38-15.04-15.93,.51-17.56,1.77-35.28,3.75-52.65,.97-8.5,8.61-14.58,17.14-13.63,8.5,.97,14.6,8.65,13.63,17.14-1.88,16.51-3.08,33.34-3.56,50.03-.23,7.93-6.38,14.29-14.09,14.98Zm18.88-133.55c-1.72,.15-3.49,.02-5.26-.44-8.28-2.15-13.26-10.59-11.11-18.87,4.39-16.97,9.57-33.97,15.41-50.51,2.85-8.07,11.7-12.29,19.76-9.45,8.06,2.85,12.3,11.69,9.45,19.76-5.54,15.71-10.47,31.84-14.64,47.96-1.68,6.52-7.28,10.99-13.62,11.55Zm48.28-126c-2.84,.25-5.78-.27-8.5-1.68-7.59-3.94-10.55-13.29-6.61-20.88,8.09-15.57,16.94-30.98,26.31-45.8,4.58-7.22,14.14-9.37,21.37-4.8,7.23,4.57,9.38,14.14,4.8,21.37-8.91,14.07-17.32,28.71-24.99,43.51-2.53,4.87-7.29,7.84-12.39,8.29Zm75.17-112.07c-3.98,.36-8.09-.82-11.38-3.61-6.53-5.53-7.34-15.3-1.81-21.83,11.31-13.36,23.35-26.42,35.79-38.82,6.05-6.04,15.86-6.03,21.9,.03,6.04,6.06,6.02,15.86-.03,21.9-11.82,11.78-23.27,24.2-34.02,36.89-2.74,3.24-6.53,5.07-10.44,5.42Zm98.08-92.64c-5.16,.46-10.42-1.67-13.76-6.11-5.14-6.84-3.77-16.54,3.06-21.69,14-10.54,28.64-20.62,43.49-29.94,7.25-4.55,16.8-2.36,21.35,4.89,4.55,7.24,2.36,16.8-4.89,21.35-14.11,8.86-28.02,18.43-41.32,28.44-2.4,1.81-5.14,2.8-7.92,3.05Zm561.98-87.17c-2.14,.19-4.34-.06-6.5-.82-15.7-5.51-31.85-10.41-48.01-14.56-8.28-2.13-13.28-10.57-11.15-18.85,2.12-8.29,10.56-13.28,18.85-11.15,17.01,4.37,34.03,9.52,50.56,15.32,8.07,2.83,12.32,11.67,9.48,19.74-2.07,5.92-7.38,9.78-13.24,10.3Zm-445.89,18.61c-6.4,.57-12.74-2.91-15.51-9.1-3.5-7.81,0-16.97,7.8-20.47,16-7.17,32.51-13.72,49.06-19.49,8.09-2.77,16.91,1.45,19.72,9.53,2.81,8.08-1.46,16.91-9.53,19.72-15.72,5.47-31.4,11.7-46.59,18.5-1.61,.72-3.29,1.15-4.95,1.3Zm314.36-48.65c-1.02,.09-2.06,.09-3.12-.03-16.55-1.86-33.39-3.02-50.07-3.47-8.55-.23-15.3-7.35-15.07-15.9,.23-8.55,7.34-15.33,15.9-15.07,17.55,.47,35.27,1.7,52.68,3.65,8.5,.95,14.62,8.62,13.67,17.12-.83,7.44-6.82,13.06-14,13.7Zm-185.86,7.74c-7.78,.69-15-4.58-16.55-12.42-1.66-8.39,3.8-16.54,12.19-18.2,17.18-3.4,34.74-6.1,52.19-8.02,.11-.02,.22-.03,.33-.04,8.37-.75,15.84,5.33,16.76,13.72,.94,8.5-5.19,16.16-13.69,17.09-16.57,1.83-33.25,4.4-49.57,7.63-.55,.1-1.1,.18-1.65,.23Z"/><path class="cls-54" d="M2177.26,1437c-3.04,.27-6.19-.35-9.04-1.97-6.93-3.96-14.07-7.84-21.2-11.54-7.59-3.93-10.56-13.28-6.63-20.87,3.93-7.6,13.28-10.57,20.88-6.62,7.5,3.89,15,7.97,22.3,12.13,7.43,4.24,10.01,13.7,5.78,21.13-2.61,4.58-7.21,7.32-12.09,7.75Z"/></g><g><path class="cls-12" d="M2463.38,1812.61c-7.45,.66-14.48-4.15-16.37-11.63-1.96-7.74-4.11-15.57-6.4-23.27-2.44-8.2,2.23-16.82,10.43-19.26,8.23-2.45,16.82,2.23,19.26,10.43,2.41,8.11,4.68,16.35,6.74,24.5,2.1,8.29-2.92,16.71-11.22,18.81-.81,.21-1.63,.34-2.44,.41Z"/><path class="cls-32" d="M1932.96,2561.79c-7.1,.63-14.23,1.15-21.4,1.55-8.54,.47-15.85-6.07-16.32-14.61-.47-8.54,6.11-15.88,14.61-16.32,16.55-.92,33.03-2.5,49.16-4.74,8.48-1.16,16.29,4.73,17.47,13.21,1.18,8.48-4.74,16.3-13.21,17.47-9.98,1.39-20.17,2.55-30.3,3.45Zm-103.16,.48c-.86,.08-1.74,.08-2.64,.01-17.22-1.38-34.58-3.52-51.59-6.34-8.44-1.4-14.14-9.37-12.75-17.81,1.4-8.44,9.39-14.17,17.81-12.75,16.15,2.68,32.64,4.7,49.01,6.02,8.52,.68,14.88,8.15,14.19,16.67-.62,7.64-6.66,13.53-14.04,14.18Zm213.21-20.72c-7.27,.65-14.21-3.94-16.26-11.22-2.32-8.24,2.47-16.79,10.7-19.12,15.75-4.44,31.52-9.62,46.88-15.4,8.01-3,16.94,1.04,19.95,9.04,3.01,8.01-1.04,16.94-9.05,19.95-16.17,6.08-32.79,11.54-49.37,16.22-.95,.27-1.9,.44-2.85,.52Zm-343.61-4.45c-1.96,.17-3.98-.03-5.97-.65-16.48-5.13-32.95-11.03-48.93-17.53-7.92-3.22-11.73-12.25-8.51-20.18,3.22-7.93,12.25-11.74,20.18-8.51,15.18,6.17,30.81,11.77,46.46,16.64,8.17,2.54,12.73,11.22,10.18,19.39-1.92,6.17-7.35,10.29-13.42,10.83Zm466.53-45.52c-5.97,.53-11.96-2.44-15-8.05-4.08-7.52-1.29-16.92,6.23-21,14.38-7.79,28.62-16.32,42.34-25.33,7.15-4.7,16.75-2.71,21.45,4.45,4.69,7.15,2.7,16.75-4.45,21.44-14.44,9.49-29.44,18.46-44.58,26.67-1.91,1.04-3.96,1.63-6,1.82Zm108.99-75.73c-4.77,.43-9.67-1.36-13.06-5.24-5.62-6.45-4.96-16.23,1.49-21.85,12.36-10.78,24.41-22.22,35.82-33.97,5.95-6.15,15.75-6.3,21.9-.34,6.14,5.96,6.29,15.76,.34,21.9-12,12.37-24.68,24.4-37.69,35.75-2.56,2.23-5.65,3.47-8.79,3.75Zm89.89-97.69c-3.63,.32-7.38-.62-10.55-2.95-6.89-5.06-8.37-14.76-3.3-21.65,9.73-13.23,19-27,27.57-40.96,4.47-7.29,14-9.58,21.3-5.1,7.29,4.48,9.57,14.01,5.1,21.3-9.01,14.68-18.77,29.19-29.01,43.11-2.74,3.72-6.83,5.87-11.11,6.25Zm66.44-114.96c-2.51,.22-5.11-.16-7.59-1.25-7.83-3.44-11.39-12.57-7.95-20.4,6.6-15.03,12.62-30.5,17.92-46,2.76-8.09,11.58-12.42,19.66-9.66,8.1,2.76,12.42,11.57,9.65,19.66-5.57,16.33-11.92,32.62-18.86,48.44-2.36,5.36-7.38,8.72-12.82,9.2Zm39.59-126.79c-1.41,.13-2.87,.06-4.33-.23-8.4-1.63-13.89-9.75-12.26-18.15,3.11-16.07,5.58-32.48,7.33-48.79,.91-8.51,8.57-14.65,17.05-13.74,8.5,.91,14.66,8.55,13.75,17.06-1.84,17.17-4.44,34.45-7.72,51.37-1.34,6.93-7.12,11.89-13.82,12.49Zm10.77-132.3c-.32,.03-.64,.04-.96,.06-8.55,.24-15.68-6.5-15.91-15.05-.34-12.07-1.05-24.27-2.13-36.27-.39-4.34-.83-8.68-1.3-12.99-.94-8.5,5.18-16.16,13.68-17.1,8.59-1.12,16.16,5.18,17.1,13.68,.51,4.54,.96,9.09,1.37,13.66,1.13,12.62,1.88,25.46,2.23,38.16,.23,8.23-6,15.14-14.09,15.86Z"/><path class="cls-44" d="M1577.43,2483.65c-3.07,.27-6.24-.36-9.11-2.01-7.26-4.19-14.57-8.62-21.73-13.15-7.23-4.58-9.37-14.15-4.79-21.37,4.58-7.22,14.14-9.38,21.37-4.79,6.8,4.31,13.74,8.51,20.64,12.49,7.41,4.27,9.95,13.74,5.67,21.15-2.62,4.54-7.2,7.25-12.05,7.68Z"/></g><g><path class="cls-53" d="M1582.28,2302.87c2.16,2.21,5.48,2.81,8.27,1.49l79.65-37.64c34.7,22.11,73.17,38.84,114.28,48.99l27.7,83.57c.97,2.93,3.7,4.92,6.78,4.96l105.67,1.26c3.09,.04,5.86-1.89,6.9-4.8l29.69-82.88c41.34-9.16,80.2-24.97,115.41-46.25l78.73,39.53c2.76,1.39,6.09,.87,8.3-1.29l75.61-73.82c2.21-2.16,2.81-5.48,1.49-8.27l-37.64-79.65c22.11-34.7,38.84-73.17,48.99-114.28l83.57-27.71c2.93-.97,4.92-3.7,4.96-6.78l1.26-105.67c.04-3.09-1.89-5.86-4.8-6.9l-82.88-29.69c-9.16-41.34-24.97-80.2-46.24-115.41l39.53-78.73c1.38-2.76,.87-6.09-1.29-8.3l-73.82-75.61c-2.16-2.21-5.48-2.81-8.27-1.49l-79.65,37.64c-34.7-22.11-73.17-38.84-114.28-48.99l-27.7-83.57c-.97-2.93-3.7-4.92-6.78-4.96l-105.67-1.26c-3.09-.04-5.86,1.89-6.9,4.8l-29.69,82.88c-41.34,9.16-80.2,24.97-115.41,46.24l-78.73-39.53c-2.76-1.39-6.1-.87-8.3,1.29l-75.61,73.82c-2.21,2.16-2.81,5.48-1.49,8.27l37.64,79.65c-22.11,34.7-38.84,73.17-48.99,114.28l-83.57,27.7c-2.93,.97-4.92,3.7-4.96,6.78l-1.26,105.66c-.04,3.09,1.89,5.86,4.8,6.9l82.88,29.69c9.16,41.34,24.97,80.2,46.24,115.41l-39.53,78.73c-1.39,2.76-.87,6.09,1.29,8.3l73.82,75.61Z"/><path class="cls-15" d="M1886.72,2046.74c-51.57,4.6-100.24-29.23-112.66-81.04-13.66-56.96,21.57-114.4,78.53-128.06,27.59-6.62,56.11-2.09,80.29,12.74,24.19,14.83,41.15,38.19,47.77,65.78,13.66,56.96-21.57,114.4-78.53,128.06-5.14,1.23-10.28,2.07-15.39,2.52Zm-16.44-186.96c-3.98,.36-7.96,1-11.92,1.95-43.67,10.47-70.68,54.52-60.21,98.18,10.47,43.67,54.51,70.7,98.19,60.21,43.67-10.47,70.68-54.52,60.21-98.18-5.07-21.16-18.08-39.07-36.62-50.44-15.07-9.24-32.34-13.26-49.64-11.72Z"/><path class="cls-15" d="M1902.52,2199.36c-8.86,.79-17.81,1.14-26.82,1.03h0c-2.84-.03-5.67-.11-8.51-.24-13.98-.62-27.89-2.35-41.51-5.16-.19-.04-.37-.08-.56-.11-.53-.11-1.05-.22-1.58-.34-1.02-.22-2.05-.45-3.07-.68-2.68-.61-4.56-2.88-4.8-5.48-.06-.63-.01-1.29,.13-1.94,.76-3.34,4.08-5.41,7.42-4.66,17.16,3.92,34.86,6.01,52.61,6.21,88.15,1.07,166.29-44.1,211.31-112.91,25.05-38.27,39.85-83.86,40.43-132.89,.1-8.6-.23-17.14-.98-25.59-5.08-56.86-29.36-109.8-69.78-151.19-46.42-47.55-108.59-74.17-175.04-74.97-137.23-1.63-250.11,108.63-251.75,245.8-.1,8.46,.23,16.89,.98,25.26,3.24,36.27,14.39,71.42,32.75,102.91,.47,.81,.74,1.69,.82,2.57,.21,2.31-.91,4.65-3.05,5.9-2.96,1.72-6.75,.74-8.47-2.23-19.28-33.05-30.98-69.96-34.39-108.04-.79-8.78-1.13-17.63-1.03-26.51,1.72-144.01,120.32-259.76,264.28-258.05,69.76,.83,135.02,28.78,183.75,78.7,42.43,43.45,67.92,99.03,73.25,158.72,.79,8.87,1.14,17.83,1.03,26.86-.84,69.76-28.78,135.02-78.7,183.76-43.47,42.44-99.06,67.92-158.76,73.25Z"/></g></g><g><g><path class="cls-42" d="M1866.95,376.21s31.3,15.22,37.05,32.71c4.62,14.03,39.23,15.84,42.65,43.44,1.77,14.25,12.31,25.66,26.5,27.84,35.35,5.42,89.82,23.77,98.54,85.15,6.65,46.84-17.23,64.61-42.29,70.76-18.41,4.52-30.64,22.42-26.92,41,3.57,17.83-1.75,38.43-32.63,54.73-69.2,36.51-138.31-86.51-138.31-86.51l-14.16-214.8,49.57-54.31Z"/><path class="cls-33" d="M1582.28,248.68s64.53,250.37,207.98,340.91c0,0-58.42,76.98-85.14,79.34,0,0-140.71-222.49-140.3-393.24l17.45-27Z"/><path class="cls-63" d="M2151.39,1723.08l4.48,36.81c.85,6.98,6.35,12.51,13.34,13.3,11.8,1.35,30.74,2.73,49.27,.77,8.13-.86,13.41-9.1,10.94-16.89-4.52-14.21-12.78-35.54-24.69-48.1h-40.84c-7.55,0-13.4,6.6-12.49,14.1Z"/><path class="cls-47" d="M1831.55,1291.84l-6.89,40.55s23.08,233.8,27.19,327.32c.64,14.66-3.15,29.15-10.85,41.65l-40.14,65.18,102-60.19,2.03-12.45-16.7-22.96,21.87-261.91c1.28-15.39-1.89-30.82-9.14-44.45l-21.1-39.64-48.28-33.1Z"/><path class="cls-9" d="M1794.14,1775.98h32.55c6.09,0,11.84-2.8,15.55-7.63,10.15-13.19,31.17-38.91,41.23-39.58,13.53-.9,11.8,47.21,11.8,47.21h7.59l9.61-59.79c2.42-15.04-5.06-29.94-18.57-36.99h0s-3.09,22.88-19.87,33c-16.77,10.12-68.26,46.36-68.26,46.36,0,0-6.31-.9-13.23,.35-10.27,1.86-8.84,17.07,1.6,17.07Z"/><path class="cls-50" d="M1971.26,1311.1s135.22,256.5,156.72,315.06c21.49,58.56,29.02,107.42,29.31,112.04,.45,7.23,9.44,14.16,34.23,14.16,12.79,0,19.05-5.13,22.12-10.09,2.62-4.23,2.75-9.53,.55-13.99-7.82-15.83-32.64-66.42-41.84-89.36-10.98-27.39-34.59-151.54-47.53-194.71-12.95-43.16-27.59-89.99-83.97-133.12,0,0-38.71-37.91-69.58,0Z"/><path class="cls-51" d="M1885.84,890.81c-34.88-147.8,53.48-231.4,53.48-231.4-55.76-53.52-157.34-77.87-157.34-77.87,0,0-96.94,70.87-85.44,126.34,6.74,32.51,68.14,194.74,68.14,194.74,0,0,56.77,26.87,121.16-11.8Z"/><path class="cls-29" d="M1963.17,963.98c-14.19-42.76-77.34-73.17-77.34-73.17-64.39,38.67-121.16,11.8-121.16,11.8,0,0-12.73,48.67-3.94,93.89,8.79,45.23,63.92,335.88,63.92,335.88,86.87,17.6,220.48-17.71,220.48-17.71-55.33-98.24-67.76-307.93-81.96-350.69Z"/><path class="cls-20" d="M1845.35,483.86l28.36,127.38c2.71,11.22-7.51,9.38-18.86,7.25-18.58-3.5-42.52-10.72-50.53-25.17-.81-1.47-1.22-3.13-1.45-4.8l-12.18-88.33c-.97-7.01,2.82-13.81,9.29-16.68l23.51-10.42c9.05-4.01,19.53,1.15,21.86,10.78Z"/><g><path class="cls-48" d="M1812.08,362.58s-33.59,14.18-56.42,62.72c-22.84,48.53-5.78,70.94,15.64,74.02,21.42,3.08,53.46,2.61,87.34-28.74,33.89-31.35-2.9-124.8-46.56-107.99Z"/><path class="cls-38" d="M1835.85,444.66s25.34-71.01-37.61-71.85l-14.81,10.35s-23.1-39.37,14.81-58.16c37.91-18.79,82.28-3.27,98.42,47.81,16.13,51.08,18.89,85.27-7.95,109.71-26.84,24.44-37.9-3.27-37.9-3.27,0,0,14.62-22.86,8.67-35.09-5.95-12.23-19.68,2.53-19.68,2.53l-3.94-2.03Z"/><path class="cls-18" d="M1842.92,452.57s12.81-36.58,29.9-22.01c17.09,14.57-13.89,33.79-26.02,40.01l-3.88-18Z"/></g><path class="cls-11" d="M1569.4,291.8c-1.78,4.16,13.22,12.27,24.19-4.39,1.16-8.39,9.88-43.97,5.53-51.33-23.17-39.22-51.24-44.41-51.24-44.41-6.22,9-13.46,16.41-17.62,27.64-3.15,8.5-2.69,17.97,.93,26.36,3.63,8.42,8.64,19.38,13.54,28.06,9.28,16.43,24.67,18.08,24.67,18.08Z"/><path class="cls-26" d="M1955,698.76s-259.4,316.75-453.21-43.91c0,0-3.72-9.22-1.39-22.53,1.17-6.72-3.27-30.56-5.71-42.74-.79-3.92,2-7.62,5.97-8h0c3.11-.3,6.17,1.01,8.1,3.47l35.4,45.08c2.64,8.93-1.61,18.44-10.02,22.43h0c-5.36,2.55-7.06,9.36-3.45,14.08,147.39,193.2,393.91-18.8,398.42-16.31,16.01,8.83,34.5,18.6,25.9,48.43Z"/></g><g><path class="cls-49" d="M1799.74,2753.95c5.61,0,10.16-3.59,10.16-8.03v-959.36c0-4.43-4.55-8.03-10.16-8.03s-10.16,3.59-10.16,8.03v959.36c0,4.43,4.55,8.03,10.16,8.03Z"/><path class="cls-23" d="M2075.01,2753.95c5.61,0,10.16-3.59,10.16-8.03v-959.36c0-4.43-4.55-8.03-10.16-8.03s-10.16,3.59-10.16,8.03v959.36c0,4.43,4.55,8.03,10.16,8.03Z"/><path class="cls-7" d="M2751.32,2760.03c1.33,0,2.67-.21,3.97-.64,5.16-1.73,7.57-6.45,5.37-10.53l-519.44-965.45c-2.19-4.08-8.17-5.98-13.32-4.25-5.16,1.73-7.57,6.45-5.37,10.53l519.44,965.45c1.64,3.05,5.4,4.89,9.35,4.89Z"/><path class="cls-31" d="M2430.46,2760.03c1.33,0,2.67-.21,3.97-.64,5.16-1.73,7.57-6.45,5.37-10.53l-519.44-965.45c-2.2-4.08-8.17-5.98-13.32-4.25-5.16,1.73-7.57,6.45-5.37,10.53l519.44,965.45c1.64,3.05,5.4,4.89,9.35,4.89Z"/><path class="cls-45" d="M1783.97,1795.39h475.82c7.91,0,14.32-5.06,14.32-11.31h0c0-6.25-6.41-11.31-14.32-11.31h-475.82c-7.91,0-14.32,5.06-14.32,11.31h0c0,6.25,6.41,11.31,14.32,11.31Z"/><path class="cls-4" d="M1989.49,1942.21h321.8c5.61,0,10.16-3.59,10.16-8.03s-4.55-8.03-10.16-8.03h-321.8c-5.61,0-10.16,3.59-10.16,8.03s4.55,8.03,10.16,8.03Z"/><rect class="cls-57" x="2088.23" y="2108.75" width="321.8" height="16.05"/><rect class="cls-36" x="2183.82" y="2291.34" width="321.8" height="16.05"/><path class="cls-60" d="M2284.07,2489.98h321.81c5.61,0,10.16-3.59,10.16-8.03s-4.55-8.03-10.16-8.03h-321.81c-5.61,0-10.16,3.59-10.16,8.03s4.55,8.03,10.16,8.03Z"/><path class="cls-59" d="M2380.98,2672.57h321.8c5.61,0,10.16-3.59,10.16-8.03s-4.55-8.03-10.16-8.03h-321.8c-5.61,0-10.16,3.59-10.16,8.03s4.55,8.03,10.16,8.03Z"/></g></g><g><g><path class="cls-40" d="M850.14,2744.94c-32.11-27.95-101.1-50.34-101.1-50.34l-41.51,.91c-10.53,11.85-15.3,34.82-17.33,49.22,7.82,4.68,22.46,8.78,49.32,10.06,49.73,2.37,89.86-4.9,110.62-9.85Z"/><path class="cls-41" d="M850.14,2744.94c-20.76,4.95-60.89,12.22-110.62,9.85-26.86-1.28-41.5-5.38-49.32-10.06-.16,1.16-.32,2.28-.44,3.31-.74,5.9,2.91,11.45,8.6,13.2,37.92,11.62,121.31,7.88,153.83,5.87,6.95-.43,10.58-8.59,6.13-13.94-2.31-2.78-5.08-5.52-8.18-8.22Z"/></g><path class="cls-19" d="M726.97,2659.67l-16.05,33.01c0,6.36,4.43,11.83,10.64,13.18,6.43,1.39,14.97,2.28,23.25,.23,5.18-1.28,8.97-5.74,9.6-11.04l20.22-35.38h-47.66Z"/><g><path class="cls-14" d="M40.99,2665.8c-12.08-26.89-8.62-38.99-32.54-36.31-2.88,.32-5.26,.88-7.28,1.6-1.51,4.44-1.61,9.35,.01,14.01,6.05,17.4,10.66,51.14,33.85,80.4,4.87,6.15,12.33,9.72,20.17,9.85l26.37,.44c-25.01-19.99-30.56-47.67-40.58-69.99Z"/><path class="cls-52" d="M83.24,2695.91c-20.24-14.25-19.77-76.46-19.77-76.46l-31.19-15.88-23.52,17.05c-3.64,2.7-6.21,6.39-7.59,10.47,2.02-.72,4.4-1.27,7.28-1.6,23.92-2.68,20.46,9.42,32.54,36.31,10.02,22.31,15.57,50,40.58,69.99l18.12,.3c8.14,.14,12.85-9.16,7.91-15.64-6.19-8.13-14.66-17.71-24.36-24.54Z"/></g><path class="cls-25" d="M63.66,2574.27l-34.88,29.3c-2.38,3.7-1.57,8.6,1.89,11.32,6.04,4.75,16.49,10.05,29.3,4.56l38.28-20.73-34.59-24.44Z"/><path class="cls-17" d="M40.52,2588.71l28.62,21.35c4.2,3.89,14.56,4.29,19.2,.94,47.46-34.21,497.58-241.11,586.78-273.43l-68.09-142.94S28.51,2577.66,40.52,2588.71Z"/><path class="cls-30" d="M954.86,2311.08c-53.1-28.49-200.97-53.13-200.97-53.13l-172-46.57s-47.23,140.88,35.52,166.3c82.75,25.42,202.36,13.39,252.51,6.74,0,0-67.04,48.15-147.3,281.39,0,0,27.01,.58,48.99,5.71,0,0,179.13-222.95,197.9-280.46,12.38-37.93,29.72-56.17-14.66-79.98Z"/><path class="cls-22" d="M1057.8,1846.56c-37.2-2.62-150.25,21.95-150.25,21.95l58.05,47.73s45.75-11.13,76.24-17.09c0,0,75.26-48.41,15.95-52.59Z"/><g><path class="cls-2" d="M1190.68,1880.34s-49.85,46.29-80.13,58.86-47.99,26.26-66.75-7.27c-18.76-33.53-11.54-69.87,13.5-96.97,0,0,38.44-42.19,59.87-43.28,21.43-1.09,73.52,88.66,73.52,88.66Z"/><path class="cls-27" d="M1083.7,1839.39l1.59,4.52s31.62-32.01,44.07-18.01c12.44,13.99,48.39,74.1,76.27,80,26.88,5.69,51.27-16.37,52.96-37.15,.11-1.31-.9-2.47-2.2-2.66l-3.34-.5c-2.29-.34-3-3.29-1.11-4.64,1.79-1.27,1.28-4.11-.86-4.58-8.37-1.86-23.61-9.52-40.25-38.56-23.61-41.21-51.68-64.08-82.38-54.1-1.95,.63-3.73-1.06-3.31-3.06,.84-3.95-.06-9.48-8.35-14.39-14.42-8.53-39.08,5.69-51.47,39.85-.59,1.62-2.56,2.3-3.93,1.25-4.82-3.71-14.79-8.26-18.19,13.8-3.48,22.57,1.57,33.42,4.15,37.29,.69,1.04,2,1.44,3.15,.96l26.4-11.15c1.37-.58,2.93,.12,3.43,1.52l3.38,9.62Z"/><path class="cls-8" d="M1078.44,1842.49s34.16-22.98,17.7-36.13c-16.46-13.15-39.05,23.54-35.7,37.58l18-1.46Z"/></g><path class="cls-16" d="M1389.57,1988.73s28.04,9.96,33.22-6.73-9.28-61.18-.11-67.32c9.18-6.14,25.02-36.85,20-50.88l-11.49,10.92s7.83-25.75-.77-36.72l-21.75,55.93s-28.83,66.54-19.11,94.8Z"/><path class="cls-35" d="M882.71,1877.64s50-55.17,159.29,30.94c75.32,59.34,346.75,47.28,346.75,47.28,0,0-.14,15.37,5.18,33.94,0,0-227.77,61.57-398.75,19.77,0,0-188.91,214.15-203.46,256.09,0,0-122.77,18.34-209.82-54.27,0,0,23.35-72.41,98.95-156.37,98.16-109.02,201.88-177.37,201.88-177.37Z"/><path class="cls-37" d="M908.96,1987.98c-.91-.34-1.42-1.32-1.16-2.27,.28-1,1.32-1.58,2.32-1.3,.65,.18,65.04,18.27,75.2,20.78,1,.26,1.62,1.27,1.38,2.28s-1.27,1.62-2.28,1.38c-10.21-2.53-74.66-20.63-75.31-20.81-.05-.01-.1-.03-.15-.05Z"/></g></g></g></svg>