<svg width="24" height="25" viewBox="0 0 24 25" fill="none" xmlns="http://www.w3.org/2000/svg">
<path d="M22.6 24.125C19.7333 24.125 16.9391 23.4917 14.2173 22.225C11.4947 20.9583 9.08356 19.2694 6.984 17.1583C4.88356 15.0472 3.19467 12.6303 1.91733 9.90767C0.639111 7.18589 0 4.39167 0 1.525V0.825C0 0.580556 0.0222222 0.347222 0.0666666 0.125H7.86667L9.1 6.825L5.3 10.6583C6.23333 12.2583 7.40578 13.7583 8.81733 15.1583C10.228 16.5583 11.7778 17.7694 13.4667 18.7917L17.3333 14.925L24 16.2583V24.0583C23.7778 24.0806 23.5444 24.0974 23.3 24.109C23.0556 24.1197 22.8222 24.125 22.6 24.125Z" fill="#1C6758"/>
</svg>
