<svg width="24" height="25" viewBox="0 0 24 25" fill="none" xmlns="http://www.w3.org/2000/svg">
<path fill-rule="evenodd" clip-rule="evenodd" d="M19.7324 18.2844C19.632 18.2868 19.5316 18.288 19.4312 18.2881C12.0534 18.2881 6.07226 12.3069 6.07226 4.92912C6.07226 4.82832 6.07226 4.72752 6.0759 4.62794C5.00951 5.48173 4.13516 6.55082 3.50992 7.76541C2.88468 8.98001 2.5226 10.3128 2.44732 11.6768C2.37204 13.0408 2.58526 14.4053 3.07305 15.6814C3.56084 16.9574 4.31224 18.1162 5.2782 19.0822C6.24416 20.0481 7.40297 20.7995 8.67899 21.2873C9.95501 21.7751 11.3195 21.9883 12.6835 21.913C14.0476 21.8378 15.3803 21.4757 16.5949 20.8504C17.8095 20.2252 18.8786 19.3508 19.7324 18.2844ZM21.2116 15.7147C19.2531 16.0386 17.2432 15.8231 15.3979 15.0911C13.5526 14.3592 11.9415 13.1385 10.7375 11.5601C9.53352 9.98171 8.78214 8.10522 8.56402 6.13207C8.3459 4.15891 8.66928 2.16361 9.49944 0.360352C6.80388 0.961659 4.39381 2.46387 2.66685 4.61915C0.939889 6.77443 -0.000791437 9.45401 4.99625e-07 12.2158C4.99625e-07 18.9232 5.4371 24.3604 12.1445 24.3604C14.9063 24.3609 17.5858 23.4202 19.741 21.6932C21.8962 19.9663 23.3985 17.5564 24 14.8609C23.1133 15.2699 22.1753 15.5571 21.2116 15.7147Z" fill="black"/>
</svg>
