<svg width="25" height="24" viewBox="0 0 25 24" fill="none" xmlns="http://www.w3.org/2000/svg">
<path d="M15.2375 23.9684C14.8702 24.0501 14.549 23.9733 14.2739 23.7383C13.998 23.504 13.8601 23.1828 13.8601 22.7747C13.8601 22.489 13.9572 22.229 14.1515 21.9947C14.3449 21.7596 14.5845 21.6013 14.8702 21.5197C15.3803 21.3972 15.8754 21.2389 16.3554 21.0446C16.8345 20.8511 17.2986 20.6116 17.7475 20.3259C18.0128 20.1626 18.3038 20.0965 18.6205 20.1275C18.9364 20.1577 19.1964 20.2749 19.4004 20.4789C19.6861 20.7646 19.8139 21.0911 19.7837 21.4584C19.7526 21.8258 19.5739 22.1115 19.2474 22.3155C18.6148 22.7236 17.9671 23.0604 17.3043 23.3256C16.6407 23.5909 15.9517 23.8052 15.2375 23.9684ZM21.1452 18.7342C20.9411 18.5301 20.8236 18.275 20.7926 17.9689C20.7624 17.6628 20.8289 17.3874 20.9921 17.1425C21.2574 16.6935 21.4921 16.2344 21.6962 15.765C21.9002 15.2957 22.0635 14.7957 22.1859 14.2652C22.2675 13.9795 22.4308 13.7346 22.6757 13.5305C22.9205 13.3265 23.1858 13.2244 23.4715 13.2244C23.8796 13.2244 24.2013 13.3673 24.4363 13.653C24.6706 13.9387 24.7367 14.2652 24.6347 14.6325C24.4714 15.3671 24.2519 16.0662 23.976 16.7299C23.7009 17.3927 23.3593 18.02 22.9512 18.6117C22.7471 18.9178 22.4667 19.086 22.11 19.1162C21.7525 19.1472 21.4309 19.0199 21.1452 18.7342ZM23.4409 10.7757C23.1552 10.7757 22.8952 10.6736 22.661 10.4696C22.4259 10.2655 22.2675 10.0206 22.1859 9.73492C22.0635 9.20435 21.9002 8.69909 21.6962 8.21913C21.4921 7.73998 21.2574 7.28614 20.9921 6.85761C20.8289 6.61273 20.7624 6.33724 20.7926 6.03114C20.8236 5.72505 20.9411 5.46997 21.1452 5.2659C21.4309 4.98021 21.7525 4.84757 22.11 4.86798C22.4667 4.88838 22.7471 5.05163 22.9512 5.35773C23.3593 5.94952 23.7062 6.58702 23.9919 7.27023C24.2776 7.95425 24.502 8.65338 24.6653 9.36761C24.7469 9.73492 24.6653 10.0614 24.4204 10.3471C24.1755 10.6328 23.849 10.7757 23.4409 10.7757ZM10.0645 23.9378C7.26877 23.2848 4.96773 21.8564 3.16135 19.6525C1.35579 17.4486 0.453003 14.8978 0.453003 12C0.453003 9.08191 1.35089 6.5107 3.14666 4.28639C4.94243 2.06208 7.23816 0.643833 10.0338 0.031638C10.4012 -0.049988 10.7228 0.0263323 10.9987 0.260599C11.2737 0.495681 11.4113 0.807084 11.4113 1.19481C11.4113 1.4805 11.3141 1.74048 11.1199 1.97474C10.9264 2.20983 10.6869 2.36818 10.4012 2.44981C8.21767 2.98037 6.4219 4.13334 5.01385 5.90871C3.6058 7.68407 2.90178 9.71451 2.90178 12C2.90178 14.2856 3.6058 16.3009 5.01385 18.0461C6.4219 19.7904 8.21767 20.9483 10.4012 21.5197C10.6869 21.6013 10.9264 21.7645 11.1199 22.0094C11.3141 22.2543 11.4113 22.5196 11.4113 22.8053C11.4113 23.193 11.2786 23.4991 11.0134 23.7236C10.7481 23.948 10.4318 24.0195 10.0645 23.9378ZM17.8393 3.70481C17.37 3.41911 16.8904 3.16893 16.4007 2.95425C15.9109 2.74039 15.411 2.57225 14.9008 2.44981C14.6151 2.36818 14.3702 2.20983 14.1662 1.97474C13.9621 1.74048 13.8601 1.4805 13.8601 1.19481C13.8601 0.807084 13.998 0.495681 14.2739 0.260599C14.549 0.0263323 14.8702 -0.049988 15.2375 0.031638C15.9517 0.19489 16.6455 0.409158 17.319 0.674442C17.9924 0.939727 18.6454 1.27643 19.278 1.68456C19.6045 1.88863 19.7832 2.17432 19.8143 2.54164C19.8445 2.90895 19.7167 3.23546 19.431 3.52115C19.227 3.72521 18.9772 3.84765 18.6817 3.88846C18.3854 3.92928 18.1046 3.86806 17.8393 3.70481ZM12.6663 17.6934C12.503 17.6934 12.35 17.6677 12.2071 17.6163C12.0643 17.5657 11.9317 17.4894 11.8092 17.3874C10.4624 16.1426 9.45226 14.9794 8.77885 13.8978C8.10543 12.8163 7.76873 11.8164 7.76873 10.8981C7.76873 9.3676 8.26379 8.14852 9.25391 7.24084C10.2432 6.33234 11.3807 5.8781 12.6663 5.8781C13.9519 5.8781 15.0898 6.33234 16.0799 7.24084C17.0692 8.14852 17.5638 9.3676 17.5638 10.8981C17.5638 11.8164 17.2271 12.8163 16.5537 13.8978C15.8803 14.9794 14.8702 16.1426 13.5234 17.3874C13.4009 17.4894 13.2683 17.5657 13.1254 17.6163C12.9826 17.6677 12.8295 17.6934 12.6663 17.6934ZM12.6663 12C13.0336 12 13.345 11.8727 13.6005 11.618C13.8552 11.3625 13.9825 11.0511 13.9825 10.6838C13.9825 10.3369 13.8552 10.0308 13.6005 9.76553C13.345 9.50025 13.0336 9.36761 12.6663 9.36761C12.299 9.36761 11.9876 9.50025 11.7321 9.76553C11.4774 10.0308 11.3501 10.3369 11.3501 10.6838C11.3501 11.0511 11.4774 11.3625 11.7321 11.618C11.9876 11.8727 12.299 12 12.6663 12Z" fill="#1C6758"/>
</svg>
