<svg width="23" height="23" viewBox="0 0 23 23" fill="none" xmlns="http://www.w3.org/2000/svg">
<path d="M13.9204 7.53934C14.1036 7.53934 14.2792 7.46581 14.4088 7.33492C14.5383 7.20404 14.6111 7.02652 14.6111 6.84141C14.6111 6.65631 14.5383 6.47879 14.4088 6.34791C14.2792 6.21702 14.1036 6.14349 13.9204 6.14349C13.7372 6.14349 13.5615 6.21702 13.432 6.34791C13.3025 6.47879 13.2297 6.65631 13.2297 6.84141C13.2297 7.02652 13.3025 7.20404 13.432 7.33492C13.5615 7.46581 13.7372 7.53934 13.9204 7.53934ZM0.798471 4.74763C0.798471 3.63702 1.23509 2.57189 2.01228 1.78657C2.78947 1.00125 3.84356 0.560059 4.94267 0.560059H15.9925C17.0916 0.560059 18.1457 1.00125 18.9229 1.78657C19.7001 2.57189 20.1367 3.63702 20.1367 4.74763V8.93799C19.1486 8.98254 18.213 9.39994 17.5148 10.1077L14.3265 13.3294L11.9215 10.9369C11.5339 10.5511 11.0116 10.3349 10.4676 10.3349C9.92352 10.3349 9.40129 10.5511 9.01365 10.9369L1.56791 18.3447C1.06577 17.635 0.796655 16.7841 0.798471 15.9117V4.74484V4.74763ZM13.9204 8.9352C14.4699 8.9352 14.997 8.71461 15.3856 8.32195C15.7742 7.92928 15.9925 7.39672 15.9925 6.84141C15.9925 6.28611 15.7742 5.75355 15.3856 5.36088C14.997 4.96822 14.4699 4.74763 13.9204 4.74763C13.3708 4.74763 12.8438 4.96822 12.4552 5.36088C12.0666 5.75355 11.8483 6.28611 11.8483 6.84141C11.8483 7.39672 12.0666 7.92928 12.4552 8.32195C12.8438 8.71461 13.3708 8.9352 13.9204 8.9352ZM10.844 16.8483L13.3485 14.3162L10.9518 11.9307C10.8225 11.802 10.6483 11.7298 10.4669 11.7298C10.2854 11.7298 10.1112 11.802 9.98201 11.9307L2.54594 19.3288C3.22283 19.8145 4.0489 20.0993 4.94267 20.0993H9.39077L9.68087 18.9212C9.8758 18.1366 10.2778 17.4202 10.844 16.8483ZM11.8207 17.8352L18.4914 11.0932C18.7314 10.8509 19.0163 10.6587 19.3298 10.5276C19.6433 10.3965 19.9793 10.3291 20.3186 10.3292C20.6579 10.3294 20.9938 10.397 21.3073 10.5283C21.6207 10.6597 21.9054 10.8521 22.1452 11.0946C22.385 11.3371 22.5753 11.625 22.705 11.9418C22.8347 12.2586 22.9014 12.5981 22.9013 12.9409C22.9011 13.2837 22.8342 13.6232 22.7042 13.9399C22.5743 14.2566 22.3839 14.5443 22.1438 14.7866L15.4731 21.5258C15.0844 21.9188 14.5974 22.1976 14.064 22.3326L11.9947 22.8561C11.7889 22.9077 11.5734 22.9047 11.3691 22.8472C11.1648 22.7898 10.9786 22.68 10.8288 22.5284C10.6789 22.3768 10.5704 22.1886 10.5137 21.9821C10.4571 21.7757 10.4543 21.5579 10.5056 21.35L11.0222 19.259C11.1562 18.7202 11.4311 18.2274 11.8207 17.8352Z" fill="white"/>
</svg>
