<svg width="21" height="21" viewBox="0 0 21 21" fill="none" xmlns="http://www.w3.org/2000/svg">
<path d="M10.7664 0.026766C9.32922 -0.0789432 7.88632 0.129259 6.53583 0.637218C5.18534 1.14518 3.95893 1.94099 2.93997 2.97054C1.92101 4.00009 1.13339 5.23926 0.630661 6.60379C0.127929 7.96832 -0.0781308 9.42622 0.0264906 10.8784C0.388173 16.2484 5.02976 20.2987 10.3545 20.2987H14.0618C14.6143 20.2987 15.0664 19.8419 15.0664 19.2836C15.0664 18.7253 14.6143 18.2685 14.0618 18.2685H10.3746C6.62719 18.2685 3.19121 15.8119 2.25686 12.1473C0.759902 6.2596 6.18514 0.767803 12.0122 2.29048C15.6492 3.22439 18.0805 6.6961 18.0805 10.4825V11.5991C18.0805 12.4011 17.3671 13.1929 16.5735 13.1929C15.7798 13.1929 15.0664 12.4011 15.0664 11.5991V10.3302C15.0664 7.78227 13.2781 5.48811 10.7865 5.13281C9.99381 5.01371 9.18439 5.08768 8.42567 5.34854C7.66695 5.60941 6.98088 6.04964 6.42459 6.63257C5.8683 7.2155 5.45787 7.92427 5.22749 8.69987C4.9971 9.47547 4.95342 10.2955 5.10009 11.0916C5.2763 12.0508 5.72261 12.9384 6.38551 13.6478C7.04841 14.3572 7.89976 14.8583 8.83747 15.0911C10.6861 15.5276 12.4442 14.9287 13.5996 13.741C14.4938 14.9795 16.2821 15.6291 17.9197 14.9693C19.266 14.4313 20.0898 13.0406 20.0898 11.5788V10.4723C20.0898 5.08206 16.0812 0.392209 10.7664 0.026766V0.026766ZM10.0431 13.1929C8.37532 13.1929 7.02906 11.8326 7.02906 10.1475C7.02906 8.4624 8.37532 7.10214 10.0431 7.10214C11.7108 7.10214 13.0571 8.4624 13.0571 10.1475C13.0571 11.8326 11.7108 13.1929 10.0431 13.1929Z" fill="#595959"/>
</svg>
