<svg width="25" height="20" viewBox="0 0 25 20" fill="none" xmlns="http://www.w3.org/2000/svg">
<path d="M14.1673 7.63253H16.453V8.49768C17.2275 7.98021 18.1279 7.68279 19.0583 7.63717C19.9886 7.59155 20.9138 7.79944 21.7352 8.23864C22.5566 8.67785 23.2433 9.33188 23.7219 10.1309C24.2006 10.9299 24.4533 11.844 24.453 12.7754V19.0611H22.1673V12.7754C22.1673 11.1411 20.8244 9.91825 19.3101 9.91825C17.7959 9.91825 16.453 11.1411 16.453 12.7754V19.0611H14.1673V7.63253ZM11.8816 0.775391V3.06111H2.73872V8.77539H11.8816V11.0611H2.73872V16.7754H11.8816V19.0611H0.453003V0.775391H11.8816Z" fill="#1C6758"/>
</svg>
