<svg width="25" height="23" viewBox="0 0 25 23" fill="none" xmlns="http://www.w3.org/2000/svg">
<path d="M12.2524 4.04749C12.4908 4.04749 12.7239 4.11894 12.9222 4.25279C13.1204 4.38664 13.275 4.57689 13.3662 4.79947C13.4575 5.02206 13.4813 5.26699 13.4348 5.50328C13.3883 5.73958 13.2735 5.95663 13.1049 6.12699C12.9363 6.29735 12.7214 6.41337 12.4876 6.46037C12.2537 6.50738 12.0113 6.48325 11.791 6.39105C11.5707 6.29886 11.3824 6.14272 11.2499 5.9424C11.1175 5.74208 11.0468 5.50656 11.0468 5.26564C11.0468 4.94257 11.1738 4.63273 11.3999 4.40428C11.626 4.17583 11.9326 4.04749 12.2524 4.04749ZM5.01872 13.7926H19.486V17.4471H5.01872V13.7926ZM21.8972 4.04749H17.0748V0.393066H7.42993V4.04749H2.6075C1.96801 4.04749 1.35471 4.30417 0.902518 4.76107C0.450327 5.21796 0.196289 5.83764 0.196289 6.48378V19.8833C0.196289 20.5295 0.450327 21.1492 0.902518 21.6061C1.35471 22.063 1.96801 22.3196 2.6075 22.3196H21.8972C22.5367 22.3196 23.15 22.063 23.6022 21.6061C24.0544 21.1492 24.3084 20.5295 24.3084 19.8833V6.48378C24.3084 5.83764 24.0544 5.21796 23.6022 4.76107C23.15 4.30417 22.5367 4.04749 21.8972 4.04749ZM9.84115 2.82935H14.6636V8.92006H9.84115V2.82935ZM21.8972 19.8833H2.6075V8.92006H7.42993C7.42993 9.56621 7.68397 10.1859 8.13616 10.6428C8.58835 11.0997 9.20166 11.3563 9.84115 11.3563H14.6636C15.3031 11.3563 15.9164 11.0997 16.3686 10.6428C16.8208 10.1859 17.0748 9.56621 17.0748 8.92006H21.8972V19.8833Z" fill="#595959"/>
</svg>
