<svg width="27" height="25" viewBox="0 0 27 25" fill="none" xmlns="http://www.w3.org/2000/svg">
<path d="M2.66667 24.5312C1.93333 24.5312 1.30578 24.2704 0.784 23.7486C0.261333 23.2259 0 22.5979 0 21.8646V12.5312H2.66667V21.8646H14.6667V24.5312H2.66667ZM8 19.1979C7.26667 19.1979 6.63911 18.937 6.11733 18.4153C5.59467 17.8926 5.33333 17.2646 5.33333 16.5312V7.19792H8V16.5312H20V19.1979H8ZM13.3333 13.8646C12.6 13.8646 11.9724 13.6032 11.4507 13.0806C10.928 12.5588 10.6667 11.9313 10.6667 11.1979V3.19792C10.6667 2.46458 10.928 1.83658 11.4507 1.31392C11.9724 0.792139 12.6 0.53125 13.3333 0.53125H24C24.7333 0.53125 25.3613 0.792139 25.884 1.31392C26.4058 1.83658 26.6667 2.46458 26.6667 3.19792V11.1979C26.6667 11.9313 26.4058 12.5588 25.884 13.0806C25.3613 13.6032 24.7333 13.8646 24 13.8646H13.3333ZM13.3333 11.1979H24V5.86458H13.3333V11.1979Z" fill="#1C6758"/>
</svg>
