<svg width="24" height="25" viewBox="0 0 24 25" fill="none" xmlns="http://www.w3.org/2000/svg">
<path d="M11.9994 0.59375C18.6267 0.59375 23.9988 5.96588 23.9988 12.5931C23.9988 19.2204 18.6267 24.5925 11.9994 24.5925C10.0843 24.5952 8.19658 24.1376 6.49528 23.2582L1.90431 24.5385C1.64818 24.61 1.37764 24.6121 1.12042 24.5446C0.863205 24.4771 0.628557 24.3425 0.440519 24.1544C0.252482 23.9664 0.117816 23.7317 0.0503201 23.4745C-0.0171758 23.2173 -0.015075 22.9468 0.0564072 22.6906L1.33794 18.1033C0.45641 16.4005 -0.00248244 14.5106 1.00998e-05 12.5931C1.00998e-05 5.96588 5.37214 0.59375 11.9994 0.59375ZM11.9994 2.39366C9.29433 2.39366 6.70006 3.46825 4.78728 5.38102C2.87451 7.2938 1.79992 9.88807 1.79992 12.5931C1.79992 14.3571 2.2475 16.0526 3.08745 17.5573L3.26745 17.8813L1.93311 22.6618L6.71727 21.3275L7.04126 21.5075C8.40245 22.2643 9.91887 22.6993 11.4742 22.7792C13.0296 22.8591 14.5826 22.5817 16.0142 21.9684C17.4458 21.355 18.7179 20.422 19.733 19.2408C20.748 18.0596 21.4791 16.6617 21.8702 15.1541C22.2612 13.6466 22.3019 12.0695 21.9889 10.5439C21.676 9.01821 21.0179 7.58446 20.065 6.35258C19.1121 5.1207 17.8897 4.1234 16.4916 3.43716C15.0935 2.75091 13.5568 2.39396 11.9994 2.39366ZM11.9994 16.7929C12.3176 16.7929 12.6229 16.9194 12.8479 17.1444C13.0729 17.3694 13.1993 17.6746 13.1993 17.9929C13.1993 18.3111 13.0729 18.6163 12.8479 18.8414C12.6229 19.0664 12.3176 19.1928 11.9994 19.1928C11.6812 19.1928 11.376 19.0664 11.1509 18.8414C10.9259 18.6163 10.7995 18.3111 10.7995 17.9929C10.7995 17.6746 10.9259 17.3694 11.1509 17.1444C11.376 16.9194 11.6812 16.7929 11.9994 16.7929ZM11.9994 6.29346C12.8746 6.29346 13.7139 6.64112 14.3327 7.25996C14.9516 7.8788 15.2992 8.71813 15.2992 9.5933C15.2992 10.8052 14.9429 11.482 14.0381 12.424L13.8353 12.6291C13.089 13.3755 12.8994 13.6923 12.8994 14.3931C12.8994 14.6317 12.8045 14.8606 12.6358 15.0294C12.467 15.1982 12.2381 15.293 11.9994 15.293C11.7607 15.293 11.5318 15.1982 11.363 15.0294C11.1943 14.8606 11.0995 14.6317 11.0995 14.3931C11.0995 13.1811 11.4558 12.5044 12.3606 11.5624L12.5634 11.3572C13.3097 10.6108 13.4993 10.2941 13.4993 9.5933C13.4981 9.20965 13.3499 8.84106 13.0852 8.56333C12.8205 8.28561 12.4595 8.11987 12.0763 8.10019C11.6932 8.08052 11.3171 8.20842 11.0253 8.45757C10.7336 8.70673 10.5484 9.0582 10.5079 9.4397L10.4995 9.5933C10.4995 9.83198 10.4047 10.0609 10.2359 10.2297C10.0671 10.3984 9.83821 10.4933 9.59953 10.4933C9.36084 10.4933 9.13194 10.3984 8.96316 10.2297C8.79439 10.0609 8.69957 9.83198 8.69957 9.5933C8.69957 8.71813 9.04723 7.8788 9.66607 7.25996C10.2849 6.64112 11.1242 6.29346 11.9994 6.29346Z" fill="#1C6758"/>
</svg>
