<svg width="21" height="21" viewBox="0 0 21 21" fill="none" xmlns="http://www.w3.org/2000/svg">
<path d="M19.2348 0.318359H13.6792C13.3845 0.318359 13.1019 0.435422 12.8935 0.643796C12.6852 0.85217 12.5681 1.13479 12.5681 1.42947C12.5681 1.72416 12.6852 2.00677 12.8935 2.21514C13.1019 2.42352 13.3845 2.54058 13.6792 2.54058H15.3459V9.20725H9.84588C10.581 8.25114 10.9815 7.07995 10.9859 5.87392C10.9858 4.65099 10.5823 3.46226 9.83777 2.49206C9.09329 1.52187 8.04948 0.824429 6.86823 0.50791C5.68697 0.19139 4.43429 0.273476 3.30444 0.741438C2.1746 1.2094 1.23073 2.03709 0.619212 3.09614C0.54096 3.22262 0.4889 3.36353 0.466116 3.51051C0.443333 3.65749 0.45029 3.80755 0.486576 3.95179C0.522862 4.09602 0.587738 4.23151 0.677358 4.35021C0.766978 4.46891 0.879518 4.56842 1.00831 4.64282C1.13709 4.71722 1.27951 4.765 1.42711 4.78334C1.57471 4.80168 1.72448 4.7902 1.86756 4.74958C2.01064 4.70896 2.14411 4.64003 2.26006 4.54687C2.376 4.45371 2.47206 4.33822 2.54255 4.20725C2.83508 3.70056 3.25584 3.27979 3.76252 2.98723C4.2692 2.69467 4.84396 2.54063 5.42904 2.54058C6.01412 2.54054 6.5889 2.69449 7.09563 2.98697C7.60236 3.27945 8.02317 3.70016 8.31579 4.2068C8.60841 4.71345 8.76252 5.28819 8.76263 5.87327C8.76274 6.45835 8.60886 7.03315 8.31643 7.53992C8.02401 8.04668 7.60336 8.46754 7.09674 8.76022C6.59013 9.05289 6.0154 9.20707 5.43032 9.20725C5.13564 9.20725 4.85302 9.32431 4.64465 9.53269C4.43628 9.74106 4.31921 10.0237 4.31921 10.3184C4.31921 10.613 4.43628 10.8957 4.64465 11.104C4.85302 11.3124 5.13564 11.4295 5.43032 11.4295C6.0154 11.4297 6.59013 11.5838 7.09674 11.8765C7.60336 12.1692 8.02401 12.59 8.31643 13.0968C8.60886 13.6036 8.76274 14.1784 8.76263 14.7634C8.76252 15.3485 8.60841 15.9233 8.31579 16.4299C8.02317 16.9366 7.60236 17.3573 7.09563 17.6497C6.5889 17.9422 6.01412 18.0962 5.42904 18.0961C4.84396 18.0961 4.2692 17.9421 3.76252 17.6495C3.25584 17.3569 2.83508 16.9362 2.54255 16.4295C2.39056 16.1838 2.14887 16.007 1.86872 15.9365C1.58856 15.866 1.29198 15.9074 1.04183 16.0519C0.791693 16.1964 0.607667 16.4327 0.528771 16.7106C0.449876 16.9885 0.482315 17.2862 0.619212 17.5406C1.23073 18.5996 2.1746 19.4273 3.30444 19.8953C4.43429 20.3632 5.68697 20.4453 6.86823 20.1288C8.04948 19.8123 9.09329 19.1149 9.83777 18.1447C10.5823 17.1745 10.9858 15.9857 10.9859 14.7628C10.9815 13.5568 10.581 12.3856 9.84588 11.4295H15.3459V19.2072C15.3459 19.5019 15.4629 19.7845 15.6713 19.9929C15.8797 20.2013 16.1623 20.3184 16.457 20.3184C16.7517 20.3184 17.0343 20.2013 17.2427 19.9929C17.451 19.7845 17.5681 19.5019 17.5681 19.2072V2.54058H19.2348C19.5295 2.54058 19.8121 2.42352 20.0204 2.21514C20.2288 2.00677 20.3459 1.72416 20.3459 1.42947C20.3459 1.13479 20.2288 0.85217 20.0204 0.643796C19.8121 0.435422 19.5295 0.318359 19.2348 0.318359Z" fill="#1C6758"/>
</svg>
