<svg width="25" height="25" viewBox="0 0 25 25" fill="none" xmlns="http://www.w3.org/2000/svg">
<path d="M12.2524 8.06725C9.83019 8.06725 7.86834 10.0495 7.86834 12.4969C7.86834 14.9442 9.83019 16.9265 12.2524 16.9265C14.6745 16.9265 16.6364 14.9442 16.6364 12.4969C16.6364 10.0495 14.6745 8.06725 12.2524 8.06725ZM22.0507 11.3895C21.8024 9.14378 20.8058 7.05014 19.2244 5.45233C17.643 3.85452 15.5709 2.84752 13.3484 2.59668V0.31543H11.1564V2.59668C8.93379 2.84752 6.8617 3.85452 5.28033 5.45233C3.69896 7.05014 2.70232 9.14378 2.45406 11.3895H0.196289V13.6043H2.45406C2.70232 15.8499 3.69896 17.9436 5.28033 19.5414C6.8617 21.1392 8.93379 22.1462 11.1564 22.397V24.6783H13.3484V22.397C15.5709 22.1462 17.643 21.1392 19.2244 19.5414C20.8058 17.9436 21.8024 15.8499 22.0507 13.6043H24.3084V11.3895H22.0507ZM12.2524 20.2487C8.01082 20.2487 4.58032 16.7825 4.58032 12.4969C4.58032 8.21121 8.01082 4.74504 12.2524 4.74504C16.4939 4.74504 19.9244 8.21121 19.9244 12.4969C19.9244 16.7825 16.4939 20.2487 12.2524 20.2487Z" fill="#595959"/>
</svg>
