<svg width="27" height="24" viewBox="0 0 27 24" fill="none" xmlns="http://www.w3.org/2000/svg">
<path d="M7.96622 11.1338L7.14148 13.6905H8.79096L7.96622 11.1338Z" fill="#1C6758"/>
<path d="M23.8837 0H10.6879V4.12371H13.9868V5.7732H3.26518C1.86312 5.7732 0.790955 6.84536 0.790955 8.24742V17.3196C0.790955 18.7217 1.86312 19.7938 3.26518 19.7938H4.08992V24L9.2858 19.7938H14.8116V14.0206H23.8837C25.2858 14.0206 26.358 12.9485 26.358 11.5464V2.47423C26.358 1.07217 25.2858 0 23.8837 0ZM9.69817 16.4124L9.2858 15.0928H6.7291L6.23425 16.4124H4.25487L6.97652 9.07217H8.9559L11.6776 16.4124H9.69817ZM22.2343 9.89691V11.5464C21.1621 11.5464 20.0075 11.2165 19.0178 10.7217C18.0281 11.2165 16.8734 11.4639 15.7188 11.5464L15.6363 9.89691C16.2136 9.89691 16.791 9.81443 17.3683 9.64948C16.626 8.90722 16.1312 8 15.8837 7.01031H17.6157C17.8631 7.75258 18.358 8.3299 18.9353 8.82474C19.8425 8.08247 20.4198 7.01031 20.5023 5.7732H15.5538V4.12371H18.0281V2.47423H19.6776V4.12371H22.3992L22.4817 4.94845C22.5642 6.68041 21.9044 8.41237 20.6672 9.64948C21.2446 9.81443 21.7394 9.89691 22.2343 9.89691Z" fill="#1C6758"/>
</svg>
