<svg width="26" height="26" viewBox="0 0 26 26" fill="none" xmlns="http://www.w3.org/2000/svg">
<path d="M1 13H2.33333M13 1V2.33333M23.6667 13H25M13 23.6667V25M4.46667 4.46667L5.4 5.4M21.5333 4.46667L20.6 5.4M20.6 20.6L21.5333 21.5333M5.4 20.6L4.46667 21.5333M7.66667 13C7.66667 14.4145 8.22857 15.771 9.22876 16.7712C10.229 17.7714 11.5855 18.3333 13 18.3333C14.4145 18.3333 15.771 17.7714 16.7712 16.7712C17.7714 15.771 18.3333 14.4145 18.3333 13C18.3333 11.5855 17.7714 10.229 16.7712 9.22876C15.771 8.22857 14.4145 7.66667 13 7.66667C11.5855 7.66667 10.229 8.22857 9.22876 9.22876C8.22857 10.229 7.66667 11.5855 7.66667 13Z" stroke="#1C6758" stroke-width="2" stroke-linecap="round" stroke-linejoin="round"/>
</svg>
