<svg width="410" height="411" viewBox="0 0 410 411" fill="none" xmlns="http://www.w3.org/2000/svg">
<rect y="0.282837" width="409.96" height="409.96" fill="white"/>
<path fill-rule="evenodd" clip-rule="evenodd" d="M139.035 82.9056L190.925 187.738L111.723 331.81H102.49C90.1993 331.81 80.2354 321.846 80.2354 309.555V105.161C80.2354 92.8695 90.1992 82.9056 102.49 82.9056H139.035ZM296.137 82.9056L203.809 248.939H329.14V105.161C329.14 92.8695 319.176 82.9056 306.885 82.9056H296.137ZM329.14 287.007H185.361L162.768 331.81H306.885C319.176 331.81 329.14 321.846 329.14 309.555V287.007Z" fill="#1C6758"/>
<path fill-rule="evenodd" clip-rule="evenodd" d="M162.768 331.81H306.885C319.176 331.81 329.14 321.846 329.14 309.555V287.007H185.361L162.768 331.81ZM329.14 248.939V105.161C329.14 92.8694 319.176 82.9055 306.885 82.9055H296.137L203.809 248.939H329.14Z" fill="#3D8361"/>
<path d="M214.837 9.06775C247.959 9.06775 274.903 35.8936 274.903 68.8706C274.903 113.723 214.837 179.933 214.837 179.933C214.837 179.933 154.772 113.723 154.772 68.8706C154.772 35.8936 181.716 9.06775 214.837 9.06775ZM201.709 111.587L257.741 55.2868L245.728 43.2408L201.709 87.4949L183.947 69.6395L171.933 81.6855L201.709 111.587Z" fill="#D6CDA4"/>
<path d="M115.982 387.086C113.189 387.086 110.638 386.367 108.33 384.929C106.042 383.492 104.21 381.569 102.833 379.16C101.477 376.73 100.799 374.048 100.799 371.112C100.799 368.885 101.193 366.81 101.983 364.887C102.772 362.943 103.856 361.243 105.232 359.785C106.629 358.307 108.249 357.153 110.091 356.323C111.933 355.493 113.897 355.078 115.982 355.078C118.23 355.078 120.294 355.524 122.177 356.414C124.08 357.305 125.71 358.55 127.066 360.15C128.443 361.749 129.476 363.622 130.164 365.768C130.872 367.914 131.166 370.232 131.045 372.722H105.293C105.536 374.645 106.143 376.366 107.115 377.884C108.107 379.403 109.362 380.607 110.881 381.498C112.419 382.369 114.12 382.814 115.982 382.834C118.007 382.834 119.829 382.308 121.448 381.255C123.088 380.202 124.404 378.755 125.396 376.912L129.708 377.915C128.494 380.607 126.662 382.814 124.212 384.535C121.762 386.235 119.019 387.086 115.982 387.086ZM105.172 369.29H126.763C126.621 367.407 126.044 365.687 125.032 364.128C124.04 362.549 122.754 361.294 121.175 360.362C119.596 359.411 117.865 358.935 115.982 358.935C114.1 358.935 112.379 359.401 110.82 360.332C109.261 361.243 107.986 362.488 106.994 364.067C106.002 365.626 105.394 367.367 105.172 369.29ZM160.916 355.929H165.167V386.296H160.916L160.764 380.648C159.772 382.571 158.385 384.13 156.603 385.324C154.822 386.498 152.696 387.086 150.226 387.086C147.999 387.086 145.914 386.671 143.971 385.841C142.027 384.99 140.316 383.826 138.839 382.348C137.361 380.87 136.207 379.16 135.377 377.216C134.547 375.273 134.132 373.187 134.132 370.96C134.132 368.774 134.536 366.719 135.346 364.796C136.176 362.873 137.31 361.182 138.747 359.725C140.205 358.267 141.885 357.133 143.788 356.323C145.712 355.493 147.767 355.078 149.953 355.078C152.484 355.078 154.69 355.686 156.573 356.9C158.456 358.095 159.954 359.664 161.067 361.607L160.916 355.929ZM150.135 382.956C152.301 382.956 154.164 382.429 155.723 381.376C157.282 380.304 158.476 378.866 159.306 377.064C160.156 375.263 160.582 373.279 160.582 371.112C160.582 368.885 160.156 366.881 159.306 365.1C158.456 363.298 157.251 361.87 155.692 360.818C154.134 359.765 152.281 359.239 150.135 359.239C147.989 359.239 146.025 359.775 144.244 360.848C142.483 361.901 141.076 363.328 140.023 365.13C138.99 366.932 138.474 368.926 138.474 371.112C138.474 373.319 139.011 375.323 140.084 377.125C141.157 378.907 142.574 380.324 144.335 381.376C146.117 382.429 148.05 382.956 150.135 382.956ZM195.963 360.18L176.042 382.045H195.963V386.296H170.029V382.045L189.95 360.18H170.029V355.929H195.963V360.18ZM222.413 355.929H226.907L210.296 401.48H205.772L211.299 386.296L200.397 355.929H205.043L213.424 380.435L222.413 355.929Z" fill="#3D8361"/>
<path d="M252.695 387.086C249.74 387.086 246.986 386.519 244.436 385.385C241.905 384.231 239.688 382.642 237.785 380.617C235.902 378.573 234.424 376.214 233.351 373.542C232.299 370.869 231.772 368.025 231.772 365.008C231.772 361.83 232.339 358.905 233.473 356.232C234.607 353.56 236.155 351.242 238.119 349.278C240.083 347.294 242.32 345.756 244.83 344.662C247.361 343.569 250.013 343.022 252.787 343.022C255.925 343.022 258.941 343.751 261.836 345.209C264.731 346.667 267.252 348.853 269.398 351.768L263.749 354.835C262.292 353.013 260.591 351.637 258.647 350.705C256.724 349.774 254.75 349.309 252.726 349.309C250.762 349.309 248.9 349.713 247.138 350.523C245.377 351.313 243.818 352.426 242.462 353.864C241.105 355.281 240.032 356.951 239.243 358.874C238.473 360.777 238.089 362.852 238.089 365.1C238.089 367.266 238.463 369.3 239.212 371.203C239.982 373.106 241.034 374.777 242.371 376.214C243.727 377.631 245.286 378.745 247.047 379.554C248.829 380.364 250.732 380.769 252.756 380.769C254.254 380.769 255.692 380.526 257.068 380.04C258.445 379.554 259.72 378.866 260.895 377.975C262.089 377.064 263.132 375.981 264.023 374.726C264.913 373.471 265.622 372.074 266.148 370.535H257.129V364.948H273.558C273.598 367.984 273.072 370.839 271.979 373.511C270.906 376.184 269.408 378.542 267.484 380.587C265.581 382.611 263.365 384.201 260.834 385.355C258.303 386.509 255.59 387.086 252.695 387.086ZM292.256 387.086C289.462 387.086 286.911 386.367 284.603 384.929C282.315 383.492 280.483 381.569 279.107 379.16C277.75 376.73 277.072 374.048 277.072 371.112C277.072 368.885 277.467 366.81 278.256 364.887C279.046 362.943 280.129 361.243 281.506 359.785C282.903 358.307 284.522 357.153 286.364 356.323C288.207 355.493 290.17 355.078 292.256 355.078C295.049 355.078 297.59 355.797 299.878 357.234C302.186 358.672 304.018 360.605 305.374 363.035C306.751 365.464 307.439 368.157 307.439 371.112C307.439 373.319 307.045 375.384 306.255 377.307C305.466 379.231 304.372 380.931 302.975 382.409C301.599 383.867 299.989 385.01 298.147 385.841C296.325 386.671 294.361 387.086 292.256 387.086ZM292.256 380.769C293.936 380.769 295.444 380.324 296.78 379.433C298.117 378.542 299.169 377.368 299.939 375.91C300.728 374.432 301.123 372.833 301.123 371.112C301.123 369.351 300.718 367.731 299.908 366.254C299.119 364.776 298.056 363.601 296.72 362.731C295.384 361.84 293.896 361.395 292.256 361.395C290.596 361.395 289.087 361.84 287.731 362.731C286.395 363.622 285.332 364.806 284.542 366.284C283.773 367.762 283.388 369.371 283.388 371.112C283.388 372.914 283.793 374.544 284.603 376.001C285.413 377.459 286.486 378.623 287.822 379.494C289.178 380.344 290.656 380.769 292.256 380.769Z" fill="#1C6758"/>
</svg>
