<svg width="24" height="24" viewBox="0 0 24 24" fill="none" xmlns="http://www.w3.org/2000/svg">
<g clip-path="url(#clip0_437_755)">
<path d="M3.91026 17.15V13.784H0.544258V12.016H3.91026V8.65H5.67826V12.016H9.04426V13.784H5.67826V17.15H3.91026ZM12.3691 18L14.7746 13.835C14.2023 13.9427 13.6441 13.92 13.1001 13.767C12.5618 13.6083 12.0773 13.3505 11.6466 12.9935C11.2159 12.6308 10.8731 12.1917 10.6181 11.676C10.3631 11.1603 10.2356 10.5937 10.2356 9.976C10.2356 9.415 10.3404 8.888 10.5501 8.395C10.7654 7.89633 11.0601 7.46 11.4341 7.086C11.8081 6.70633 12.2416 6.41167 12.7346 6.202C13.2333 5.98667 13.7659 5.879 14.3326 5.879C15.0749 5.879 15.7549 6.06317 16.3726 6.4315C16.9903 6.79983 17.4833 7.29567 17.8516 7.919C18.2199 8.53667 18.4041 9.22233 18.4041 9.976C18.4041 10.367 18.3559 10.724 18.2596 11.047C18.1689 11.37 18.0244 11.71 17.8261 12.067L14.4176 18H12.3691ZM14.3156 12.2965C14.7689 12.2965 15.1713 12.1888 15.5226 11.9735C15.8739 11.7525 16.1488 11.4663 16.3471 11.115C16.5511 10.758 16.6531 10.3755 16.6531 9.9675C16.6531 9.5255 16.5454 9.12883 16.3301 8.7775C16.1148 8.42617 15.8286 8.1485 15.4716 7.9445C15.1203 7.7405 14.7406 7.6385 14.3326 7.6385C13.8793 7.6385 13.4769 7.749 13.1256 7.97C12.7743 8.191 12.4966 8.48 12.2926 8.837C12.0886 9.18833 11.9866 9.56517 11.9866 9.9675C11.9866 10.3925 12.0886 10.7835 12.2926 11.1405C12.5023 11.4918 12.7828 11.7723 13.1341 11.982C13.4854 12.1917 13.8793 12.2965 14.3156 12.2965ZM21.0058 18V7.868H19.5863L20.0708 6.1H22.7738V18H21.0058Z" fill="#595959"/>
</g>
<defs>
<clipPath id="clip0_437_755">
<rect width="24" height="24" fill="white"/>
</clipPath>
</defs>
</svg>
