<svg width="21" height="25" viewBox="0 0 21 25" fill="none" xmlns="http://www.w3.org/2000/svg">
<path d="M9.37449 18.5H11.7745V11.3H9.37449V18.5ZM10.5745 8.9C10.9145 8.9 11.1997 8.7848 11.4301 8.5544C11.6597 8.3248 11.7745 8.04 11.7745 7.7C11.7745 7.36 11.6597 7.0748 11.4301 6.8444C11.1997 6.6148 10.9145 6.5 10.5745 6.5C10.2345 6.5 9.94969 6.6148 9.72009 6.8444C9.48969 7.0748 9.37449 7.36 9.37449 7.7C9.37449 8.04 9.48969 8.3248 9.72009 8.5544C9.94969 8.7848 10.2345 8.9 10.5745 8.9ZM10.5745 24.5C7.79449 23.8 5.49969 22.2048 3.69009 19.7144C1.87969 17.2248 0.974487 14.46 0.974487 11.42V4.1L10.5745 0.5L20.1745 4.1V11.42C20.1745 14.46 19.2697 17.2248 17.4601 19.7144C15.6497 22.2048 13.3545 23.8 10.5745 24.5ZM10.5745 21.98C12.6545 21.32 14.3745 20 15.7345 18.02C17.0945 16.04 17.7745 13.84 17.7745 11.42V5.75L10.5745 3.05L3.37449 5.75V11.42C3.37449 13.84 4.05449 16.04 5.41449 18.02C6.77449 20 8.49449 21.32 10.5745 21.98Z" fill="#1C6758"/>
</svg>
