<svg width="26" height="25" viewBox="0 0 26 25" fill="none" xmlns="http://www.w3.org/2000/svg">
<path d="M20.38 7.02623C20.2763 7.02623 20.1677 6.99514 20.0542 6.93297C19.9398 6.87079 19.8618 6.77753 19.8204 6.65317L19.0121 4.91224L17.2712 4.10395C17.1468 4.0625 17.0535 3.98457 16.9914 3.87017C16.9292 3.75659 16.8981 3.64799 16.8981 3.54437C16.8981 3.44074 16.9292 3.33172 16.9914 3.21732C17.0535 3.10374 17.1468 3.02623 17.2712 2.98478L19.0121 2.17649L19.8204 0.435557C19.8618 0.311205 19.9398 0.21794 20.0542 0.155764C20.1677 0.0935881 20.2763 0.0625 20.38 0.0625C20.4836 0.0625 20.5926 0.0935881 20.707 0.155764C20.8206 0.21794 20.8981 0.311205 20.9396 0.435557L21.7478 2.17649L23.4888 2.98478C23.6131 3.02623 23.7064 3.10374 23.7686 3.21732C23.8307 3.33172 23.8618 3.44074 23.8618 3.54437C23.8618 3.64799 23.8307 3.75659 23.7686 3.87017C23.7064 3.98457 23.6131 4.0625 23.4888 4.10395L21.7478 4.91224L20.9396 6.65317C20.8981 6.77753 20.8206 6.87079 20.707 6.93297C20.5926 6.99514 20.4836 7.02623 20.38 7.02623ZM22.867 15.762C22.7634 15.762 22.6598 15.7309 22.5561 15.6687C22.4525 15.6065 22.3696 15.5236 22.3074 15.42L21.8722 14.4874L20.9396 14.0521C20.8774 14.0107 20.7634 13.8242 20.5976 13.4926C20.5976 13.3889 20.6287 13.2853 20.6908 13.1817C20.753 13.078 20.8359 12.9951 20.9396 12.933L21.8722 12.4977L22.3074 11.5651C22.3489 11.5029 22.5354 11.3889 22.867 11.2231C22.9706 11.2231 23.0743 11.2542 23.1779 11.3164C23.2815 11.3786 23.3644 11.4615 23.4266 11.5651L23.8618 12.4977L24.7945 12.933C24.8567 12.9744 24.9706 13.1609 25.1364 13.4926C25.1364 13.5962 25.1054 13.6998 25.0432 13.8034C24.981 13.9071 24.8981 13.99 24.7945 14.0521L23.8618 14.4874L23.4266 15.42C23.3851 15.4822 23.1986 15.5962 22.867 15.762ZM7.78929 24.0625C7.47841 24.0625 7.20898 23.9589 6.981 23.7516C6.75302 23.5444 6.61831 23.2853 6.57686 22.9744L6.32815 21.1402C6.16235 21.078 6.00193 20.9951 5.84691 20.8915C5.69105 20.7879 5.56131 20.6843 5.45769 20.5806L3.74784 21.3267C3.45769 21.4718 3.16256 21.4926 2.86245 21.3889C2.56152 21.2853 2.32815 21.0884 2.16235 20.7983L0.172712 17.3164C0.00690844 17.047 -0.0395164 16.7568 0.033437 16.4459C0.105561 16.135 0.265976 15.8863 0.51468 15.6998L1.97582 14.6117V13.6169L0.51468 12.5288C0.265976 12.3423 0.105561 12.0936 0.033437 11.7827C-0.0395164 11.4718 0.00690844 11.1817 0.172712 10.9122L2.16235 7.43038C2.32815 7.14022 2.56152 6.94333 2.86245 6.8397C3.16256 6.73607 3.45769 6.7568 3.74784 6.90188L5.45769 7.64799C5.56131 7.54437 5.69105 7.44074 5.84691 7.33711C6.00193 7.23349 6.16235 7.15058 6.32815 7.08841L6.57686 5.25421C6.61831 4.94333 6.75302 4.68426 6.981 4.47701C7.20898 4.26975 7.47841 4.16613 7.78929 4.16613H11.8307C12.1416 4.16613 12.4111 4.26975 12.639 4.47701C12.867 4.68426 13.0017 4.94333 13.0432 5.25421L13.2919 7.08841C13.4577 7.15058 13.6185 7.23349 13.7744 7.33711C13.9294 7.44074 14.0587 7.54437 14.1623 7.64799L15.8722 6.90188C16.1623 6.7568 16.4579 6.73607 16.7588 6.8397C17.0589 6.94333 17.2919 7.14022 17.4577 7.43038L19.4473 10.9122C19.6131 11.1817 19.66 11.4718 19.5878 11.7827C19.5149 12.0936 19.3541 12.3423 19.1054 12.5288L17.6442 13.6169V14.6117L19.1054 15.6998C19.3541 15.8863 19.5149 16.135 19.5878 16.4459C19.66 16.7568 19.6131 17.047 19.4473 17.3164L17.4577 20.7983C17.2919 21.0884 17.0589 21.2853 16.7588 21.3889C16.4579 21.4926 16.1623 21.4718 15.8722 21.3267L14.1623 20.5806C14.0587 20.6843 13.9294 20.7879 13.7744 20.8915C13.6185 20.9951 13.4577 21.078 13.2919 21.1402L13.0432 22.9744C13.0017 23.2853 12.867 23.5444 12.639 23.7516C12.4111 23.9589 12.1416 24.0625 11.8307 24.0625H7.78929ZM9.81002 17.8449C10.8463 17.8449 11.7271 17.4822 12.4525 16.7568C13.1779 16.0314 13.5406 15.1506 13.5406 14.1143C13.5406 13.078 13.1779 12.1972 12.4525 11.4718C11.7271 10.7464 10.8463 10.3837 9.81002 10.3837C8.77375 10.3837 7.89292 10.7464 7.16753 11.4718C6.44214 12.1972 6.07945 13.078 6.07945 14.1143C6.07945 15.1506 6.44214 16.0314 7.16753 16.7568C7.89292 17.4822 8.77375 17.8449 9.81002 17.8449ZM9.81002 15.3578C9.45769 15.3578 9.16214 15.2385 8.92339 14.9997C8.68546 14.7618 8.56649 14.4666 8.56649 14.1143C8.56649 13.762 8.68546 13.4664 8.92339 13.2277C9.16214 12.9898 9.45769 12.8708 9.81002 12.8708C10.1623 12.8708 10.4579 12.9898 10.6966 13.2277C10.9346 13.4664 11.0535 13.762 11.0535 14.1143C11.0535 14.4666 10.9346 14.7618 10.6966 14.9997C10.4579 15.2385 10.1623 15.3578 9.81002 15.3578ZM8.87737 21.5755H10.7427L10.9914 19.3371C11.5924 19.1713 12.1056 18.9591 12.5308 18.7004C12.9553 18.4409 13.3748 18.0936 13.7893 17.6584L15.8411 18.591L16.7116 17.0366L14.9085 15.6687C15.0743 15.192 15.1572 14.6739 15.1572 14.1143C15.1572 13.5547 15.0743 13.0366 14.9085 12.5599L16.7116 11.192L15.8411 9.63763L13.7893 10.5703C13.3748 10.135 12.9553 9.78768 12.5308 9.5282C12.1056 9.26955 11.5924 9.05732 10.9914 8.89152L10.7427 6.65317H8.87737L8.62867 8.89152C8.02763 9.05732 7.51489 9.26955 7.09043 9.5282C6.66515 9.78768 6.24525 10.135 5.83074 10.5703L3.77893 9.63763L2.90846 11.192L4.71157 12.5599C4.54577 13.0366 4.45789 13.5547 4.44794 14.1143C4.43717 14.6739 4.52504 15.192 4.71157 15.6687L2.90846 17.0366L3.77893 18.591L5.83074 17.6584C6.24525 18.0936 6.66515 18.4409 7.09043 18.7004C7.51489 18.9591 8.02763 19.1713 8.62867 19.3371L8.87737 21.5755Z" fill="#1C6758"/>
</svg>
