<svg width="20" height="25" viewBox="0 0 20 25" fill="none" xmlns="http://www.w3.org/2000/svg">
<path d="M10.4316 1.01934V8.85737C10.4316 8.9142 10.4542 8.96871 10.4944 9.00889C10.5346 9.04908 10.5891 9.07166 10.6459 9.07166H18.484C18.5051 9.07168 18.5258 9.06542 18.5435 9.05368C18.5611 9.04194 18.5748 9.02525 18.583 9.0057C18.5911 8.98616 18.5933 8.96464 18.5892 8.94387C18.5851 8.92309 18.575 8.90399 18.56 8.88898L10.6143 0.943266C10.5993 0.92834 10.5802 0.918198 10.5594 0.914118C10.5387 0.910038 10.5171 0.912204 10.4976 0.920342C10.4781 0.928481 10.4614 0.942227 10.4496 0.959846C10.4379 0.977465 10.4316 0.998166 10.4316 1.01934Z" fill="#1C6758"/>
<path d="M9.14594 10.7857C9.03227 10.7857 8.92326 10.7406 8.84289 10.6602C8.76252 10.5798 8.71736 10.4708 8.71736 10.3571V0.5H0.788792C0.618296 0.5 0.454783 0.567729 0.334223 0.688288C0.213664 0.808848 0.145935 0.972361 0.145935 1.14286V23.8571C0.145935 24.0276 0.213664 24.1912 0.334223 24.3117C0.454783 24.4323 0.618296 24.5 0.788792 24.5H18.3602C18.5307 24.5 18.6942 24.4323 18.8148 24.3117C18.9353 24.1912 19.0031 24.0276 19.0031 23.8571V10.7857H9.14594ZM14.7174 19.3571H4.43165V17.6429H14.7174V19.3571ZM14.7174 15.0714H4.43165V13.3571H14.7174V15.0714Z" fill="#1C6758"/>
</svg>
