<svg width="27" height="26" viewBox="0 0 27 26" fill="none" xmlns="http://www.w3.org/2000/svg">
<path d="M10.0472 16.7733C9.55194 16.2781 9.15908 15.6901 8.89104 15.043C8.62301 14.3959 8.48506 13.7024 8.48506 13.002C8.48506 12.3016 8.62301 11.6081 8.89104 10.961C9.15908 10.3139 9.55194 9.72593 10.0472 9.23067C10.5425 8.73541 11.1304 8.34255 11.7775 8.07452C12.4246 7.80648 13.1181 7.66853 13.8185 7.66853C14.5189 7.66853 15.2125 7.80648 15.8596 8.07452C16.5066 8.34255 17.0946 8.73541 17.5899 9.23067M12.8752 13.9427L13.1072 14.272C14.4261 16.0553 16.3005 17.3495 18.4354 17.951C20.5703 18.5525 22.8446 18.4272 24.9005 17.5947C24.1439 19.4153 22.9503 21.0215 21.4254 22.2712C19.9004 23.5209 18.091 24.3755 16.1571 24.7596C14.2233 25.1437 12.2246 25.0454 10.3378 24.4734C8.45098 23.9014 6.73418 22.8733 5.3392 21.48M1.81653 13H3.14986M13.8165 1V2.33333M5.2832 4.46667L6.21653 5.4M1.81653 25L25.8165 1" stroke="#1C6758" stroke-width="2" stroke-linecap="round" stroke-linejoin="round"/>
</svg>
