<svg width="25" height="24" viewBox="0 0 25 24" fill="none" xmlns="http://www.w3.org/2000/svg">
<path d="M24.1467 22.2262C22.4378 19.2518 19.7025 17.0194 16.4652 15.957C18.0169 15.0247 19.2228 13.6034 19.8975 11.9114C20.5722 10.2195 20.6785 8.3505 20.2 6.5916C19.7216 4.83271 18.6848 3.28119 17.249 2.1754C15.8131 1.0696 14.0577 0.470703 12.2524 0.470703C10.447 0.470703 8.69158 1.0696 7.25577 2.1754C5.81995 3.28119 4.78316 4.83271 4.30468 6.5916C3.8262 8.3505 3.9325 10.2195 4.60724 11.9114C5.28197 13.6034 6.48783 15.0247 8.03956 15.957C4.80223 17.0194 2.06693 19.2518 0.358071 22.2262C0.286395 22.3313 0.237001 22.4502 0.212991 22.5755C0.188982 22.7008 0.190876 22.8297 0.218555 22.9542C0.246234 23.0787 0.2991 23.1961 0.37383 23.2989C0.44856 23.4018 0.54354 23.488 0.652801 23.5519C0.762061 23.6159 0.883242 23.6564 1.00873 23.6708C1.13421 23.6852 1.26129 23.6733 1.38198 23.6357C1.50266 23.5981 1.61434 23.5356 1.71001 23.4523C1.80568 23.369 1.88325 23.2666 1.93787 23.1516C2.98464 21.324 4.48866 19.8067 6.29904 18.7518C8.10943 17.697 10.1625 17.1417 12.2524 17.1417C14.3422 17.1417 16.3953 17.697 18.2057 18.7518C20.0161 19.8067 21.5201 21.324 22.5669 23.1516C22.6215 23.2666 22.6991 23.369 22.7947 23.4523C22.8904 23.5356 23.0021 23.5981 23.1228 23.6357C23.2434 23.6733 23.3705 23.6852 23.496 23.6708C23.6215 23.6564 23.7427 23.6159 23.8519 23.5519C23.9612 23.488 24.0562 23.4018 24.1309 23.2989C24.2056 23.1961 24.2585 23.0787 24.2862 22.9542C24.3139 22.8297 24.3157 22.7008 24.2917 22.5755C24.2677 22.4502 24.2183 22.3313 24.1467 22.2262ZM5.84158 8.80868C5.84158 7.52756 6.21757 6.27521 6.92199 5.21C7.62642 4.1448 8.62765 3.31457 9.79906 2.8243C10.9705 2.33404 12.2595 2.20577 13.503 2.4557C14.7466 2.70563 15.8889 3.32255 16.7855 4.22844C17.682 5.13432 18.2926 6.28849 18.54 7.54499C18.7873 8.80149 18.6604 10.1039 18.1752 11.2875C17.6899 12.4711 16.8683 13.4827 15.814 14.1945C14.7598 14.9062 13.5203 15.2861 12.2524 15.2861C10.5521 15.2861 8.92151 14.6037 7.71926 13.3889C6.517 12.1742 5.84158 10.5266 5.84158 8.80868Z" fill="#595959"/>
</svg>
